<?xml version="1.0" encoding="UTF-8"?>
<!DOCTYPE svg PUBLIC "-//W3C//DTD SVG 1.1//EN" "http://www.w3.org/Graphics/SVG/1.1/DTD/svg11.dtd">
<!-- Creator: CorelDRAW -->
<svg xmlns="http://www.w3.org/2000/svg" xml:space="preserve" width="412.054mm" height="110.408mm" version="1.1" style="shape-rendering:geometricPrecision; text-rendering:geometricPrecision; image-rendering:optimizeQuality; fill-rule:evenodd; clip-rule:evenodd"
viewBox="0 0 22459.56 6017.95"
 xmlns:xlink="http://www.w3.org/1999/xlink"
 xmlns:xodm="http://www.corel.com/coreldraw/odm/2003">
 <defs>
  <style type="text/css">
   <![CDATA[
    .fil0 {fill:#F4EFE7}
    .fil1 {fill:#F4EFE7;fill-rule:nonzero}
   ]]>
  </style>
 </defs>
 <g id="Camada_x0020_1">
  <metadata id="CorelCorpID_0Corel-Layer"/>
  <path class="fil0" d="M7416.76 3714.92c143.89,8.72 405.5,200.57 941.81,130.8 850.24,-122.08 1386.55,-819.72 1504.28,-1726.65l0 -2119.07 -222.38 0 0 1848.74c0,95.93 0,191.85 -13.08,287.78 0,43.6 -13.08,87.2 -13.08,130.8 -104.64,427.3 -287.77,854.61 -784.84,1159.82 -117.72,78.48 -274.69,148.25 -418.58,174.41 -784.84,148.25 -1294.99,-305.22 -1556.6,-741.24 -248.53,-383.7 -261.61,-793.56 -261.61,-1299.34 0,-523.23 13.08,-1046.46 0,-1560.96l-222.37 0c0,488.34 -39.24,1962.1 39.24,2337.09 104.65,523.22 392.42,967.97 811.01,1255.74 39.24,17.44 65.4,34.88 104.65,61.04l91.57 61.05z"/>
  <path class="fil0" d="M19712.62 2326.16c0,148.25 -562.47,1351.68 -601.71,1534.81l222.37 0 601.71 -1491.2 667.11 -1683.05c13.08,-26.16 13.08,-34.88 26.16,-52.32 0,-26.16 0,-8.72 13.08,-26.16 13.08,-26.16 13.08,-17.44 26.16,-34.88l1582.76 3287.62 209.29 0c-13.08,-95.93 -156.97,-357.54 -209.29,-462.19l-1582.76 -3296.34c-13.08,-26.16 0,-8.72 -26.16,-34.88 -26.16,130.81 -366.26,924.37 -457.83,1133.66 -52.32,156.97 -405.5,1063.9 -470.9,1124.94z"/>
  <path class="fil0" d="M-0 3852.25l222.37 8.72 1308.07 -3296.34c379.34,732.52 837.16,1691.77 1203.42,2467.89l405.5 828.45 209.29 0 -1805.14 -3793.41 -1543.52 3784.69z"/>
  <path class="fil0" d="M13983.27 2495.51l-52.32 0c39.24,78.48 91.56,104.65 156.97,174.41 156.97,165.69 300.85,348.82 470.9,505.79l562.47 601.72c91.57,113.36 104.65,78.48 313.93,78.48 -91.57,-130.81 -418.58,-462.19 -536.31,-575.55l-523.23 -592.99c497.07,-8.72 981.05,-130.8 1203.42,-409.86 457.83,-540.67 457.83,-1866.18 -562.47,-2153.95 -340.1,-87.2 -1190.34,-95.93 -1556.6,-69.76l0 218.01c706.36,87.2 1975.19,-287.78 2158.32,845.88 183.13,1220.87 -562.47,1404 -1635.09,1377.83z"/>
  <polygon class="fil1" points="775,5995.7 775,5310.92 936.52,5310.92 936.52,5562.4 1200.57,5562.4 1200.57,5310.92 1361.13,5310.92 1361.13,5995.7 1200.57,5995.7 1200.57,5708.45 936.52,5708.45 936.52,5995.7 "/>
  <path id="_1" class="fil1" d="M5992.38 5653.31c0,59.48 17.41,109.45 52.23,149.59 34.82,40.14 77.7,60.29 128.64,60.29 51.26,0 94.3,-19.99 128.96,-59.96 34.66,-40.14 51.91,-90.12 51.91,-149.92 0,-60.13 -17.25,-110.42 -51.91,-150.56 -34.66,-40.14 -77.7,-60.29 -128.96,-60.29 -50.94,0 -93.82,20.15 -128.64,60.29 -34.82,40.14 -52.23,90.44 -52.23,150.56zm-168.29 0c0,-50.78 8.7,-98.17 26.27,-142.34 17.41,-44.33 43.2,-83.82 77.22,-118.8 32.08,-33.37 69.47,-59 112.03,-76.73 42.4,-17.89 87.05,-26.76 133.64,-26.76 46.59,0 91.24,9.03 133.95,26.92 42.72,17.89 80.6,43.84 113.65,77.54 33.37,33.69 58.68,72.54 75.76,116.87 17.25,44.17 25.79,92.04 25.79,143.31 0,42.88 -5.96,83.18 -17.89,120.9 -12.09,37.72 -29.82,72.22 -53.52,103.49 -33.37,44.33 -74.31,78.83 -122.99,103.33 -48.69,24.66 -100.27,36.91 -154.75,36.91 -46.26,0 -90.6,-9.03 -133,-26.92 -42.4,-17.89 -79.96,-43.84 -112.68,-77.54 -34.02,-34.82 -59.81,-74.31 -77.22,-118.32 -17.57,-43.84 -26.27,-91.24 -26.27,-141.86z"/>
  <polygon id="_2" class="fil1" points="11123.52,5995.7 11123.52,5454.07 10905.89,5454.07 10905.89,5310.92 11503.63,5310.92 11503.63,5454.07 11286.97,5454.07 11286.97,5995.7 "/>
  <polygon id="_3" class="fil1" points="15929.99,5995.7 15929.99,5310.92 16351.69,5310.92 16351.69,5452.13 16088.61,5452.13 16088.61,5575.93 16313.98,5575.93 16313.98,5716.18 16088.61,5716.18 16088.61,5851.59 16355.56,5851.59 16355.56,5995.7 "/>
  <polygon id="_4" class="fil1" points="20828.03,5995.7 20828.03,5310.92 20991.49,5310.92 20991.49,5848.69 21258.44,5848.69 21258.44,5995.7 "/>
 </g>
</svg>
