<?xml version="1.0" encoding="UTF-8"?>
<!DOCTYPE svg PUBLIC "-//W3C//DTD SVG 1.1//EN" "http://www.w3.org/Graphics/SVG/1.1/DTD/svg11.dtd">
<!-- Creator: CorelDRAW -->
<svg xmlns="http://www.w3.org/2000/svg" xml:space="preserve" width="81.2688mm" height="62.1443mm" version="1.1" style="shape-rendering:geometricPrecision; text-rendering:geometricPrecision; image-rendering:optimizeQuality; fill-rule:evenodd; clip-rule:evenodd"
viewBox="0 0 8332.16 6371.4"
 xmlns:xlink="http://www.w3.org/1999/xlink"
 xmlns:xodm="http://www.corel.com/coreldraw/odm/2003">
 <defs>
  <style type="text/css">
   <![CDATA[
    .fil0 {fill:#373435}
    .fil1 {fill:#373435;fill-rule:nonzero}
    .fil2 {fill:#373435;fill-rule:nonzero}
   ]]>
  </style>
 </defs>
 <g id="Camada_x0020_1">
  <metadata id="CorelCorpID_0Corel-Layer"/>
  <g id="_2131131556528">
   <path class="fil0" d="M4127.29 2113.01c-8.64,-168.62 56.55,-347.76 165.22,-471.97 34.05,-38.92 67.74,-64.59 121.84,-96.33 89.23,-52.37 213.59,-90.47 335.27,-109.06 86.64,-13.25 341.83,-19.58 408.95,17.26 -17.02,34.1 -187.14,175.46 -222.5,199.29 -259.65,174.93 -591.33,189.25 -722.32,349.1 -16.01,19.55 -31.22,33.93 -49.15,55.85 -14.53,17.76 -24.19,39.59 -37.31,55.87zm-26.37 2725.62l-315.74 0 -612.07 -961.01c-31.87,-49.76 -54.8,-90.02 -69.14,-120.79l-4.78 0c5.74,51.39 8.29,130.27 8.29,236.98l0 844.81 -292.18 0 0 -1485.37 336.14 0 590.08 933.85c39.19,62.19 63.08,101.47 71.69,118.16l4.78 0c-6.37,-36.01 -9.24,-104.41 -9.24,-205.24l-10.22 -1415.87c-9.91,15.89 -11.23,32.02 -20.15,51.67 -139.13,306.39 -480.45,246.49 -805.65,246.48 -385.39,-0.01 -770.74,0.76 -1156.16,1.41 45.9,-229.22 214.85,-189.2 459.83,-188.91 219.14,0.26 438.18,2.03 657.28,3.09 187.44,0.89 467.06,28.71 588.87,-63.63 111.99,-84.89 143.02,-321.36 104.37,-467.38 -41.49,-156.78 -156.25,-262.51 -306.36,-318.87 -187.93,-70.55 -361.07,-49.55 -539.31,11.8 -245.38,84.46 -409.83,242.5 -760.72,146.31 -74.49,-20.43 -171.31,-72.82 -199.76,-114.28 -3.19,-99.92 181.7,-56.87 257.36,-44.41 103.67,17.06 208.37,32.65 309.65,3.47 77.51,-22.35 167.55,-72.78 230.78,-109.43 103.46,-59.97 225.9,-76.58 249.69,-91.39 -188.4,-60.06 -321.81,26.01 -485.17,60.67 -164.1,34.84 -362.53,31.5 -500.04,-35.33 -105.9,-51.47 -91.52,-84.26 -6.36,-141.02 56.21,-37.47 126.26,-61.61 207.12,-77.43 239.13,-46.76 313.86,-19.46 522.71,4.14 -34.55,-43.94 -86.21,-76.52 -131.85,-116.36 -29.91,-26.09 -25.86,-39.59 -93.68,-32.79 -141.54,14.18 -278.73,91.42 -424.12,65.57 -47.67,-8.47 -49.2,-19.11 -78.45,-39.44 12.6,-71.2 95.96,-113.25 163.09,-144.83 85.38,-40.16 232.4,-56.46 245.66,-63.83l-97.31 -70.09c-75.56,-60.17 -208.14,-216.74 -109.97,-304.59 84.88,-75.95 155.69,30.94 209.06,72.6l92.19 69.92c166.8,122.65 209.42,160.28 452.09,140.47 -15.91,-29.51 -68.92,-91.68 -92.17,-118.66 -43.04,-49.99 -52.07,-65.62 -136.53,-83.31 -127.2,-26.64 -263.64,-31.64 -326.2,-111.26 -22.86,-29.12 -58.03,-108.19 -62.54,-152.32 -3.97,-38.87 17.36,-51.73 42.43,-63.68 91.36,-43.51 173.22,121.22 352.05,179.64 -14.36,-55.23 -57.44,-136.97 -81.67,-185.33 -27.75,-55.38 -83.54,-111.88 -59.98,-174.53 244.31,-49.54 305.76,317.74 412.23,457.84l108.29 114.58c94.66,81.59 312.92,201.13 441.97,224.52 -20.44,-99.73 -82.93,-233.85 -136.28,-295.34 -64.61,-74.49 -166.83,-134.14 -259.89,-177.93 -113.21,-53.26 -191.94,-101.59 -251.42,-185.59 -55.34,-78.16 -105.52,-210.73 -90.99,-327.55 62.21,-38.73 155.94,-44.72 201.76,14.02 26,33.34 51.03,165.51 125.14,270.83 44.93,63.85 143.69,141.55 225.87,165.87 46.54,-310.51 -190.44,-489.27 -217.77,-576.76 183.49,-127.37 295.03,308.46 316.69,399.36 10.65,44.71 21.9,186.5 30.7,210.87 67.13,-82.86 -89.7,-520.61 -99.79,-655.95 -3.6,-48.29 5.43,-68.34 48.47,-81.2 27.92,-8.34 85.08,-19.5 117.69,-17.32 20.04,30.23 28.9,211.88 46.84,264.34 25.06,-17.76 52.62,-85.84 61.73,-124.51 14.47,-61.34 7.17,-109.03 8.78,-169.43 17.5,-11.74 101.46,-33.21 120.3,-9.97l14.64 29.24c58.62,207.67 -135.08,414.57 -153.53,516.56 57.37,-40.82 131,-158.53 165.46,-242.42 59.63,-145.21 44.84,-206.69 78.4,-325.06 36.89,-6.69 75.74,-5.09 112.93,-4.43 28.89,0.51 80.73,-11.45 100.89,10.11 4.8,5.14 15.78,308.74 133.79,463.41 19.48,25.54 73.78,88.22 101.69,99.25 -12.96,-68.84 -85.18,-168.22 -116.57,-245.47 -30.79,-75.76 -71.46,-200.85 -37.57,-291.14 41.94,-5.15 79.55,6.13 118.71,10.74 -0.66,62.2 -1,119.1 13.03,177.4 5.79,24.09 12.03,50.67 25.08,71.48 11.47,18.31 26.66,41.65 44.92,48.56 21.06,-42.08 18.58,-218.09 17.11,-274.92 98.68,2.62 173.46,13.03 183.16,85.67 15.19,113.82 -23.9,240.84 -40.93,352.6 14.22,-21.74 31.16,-84.21 45.57,-113.9 17.43,-35.87 33.8,-69.99 54.48,-104.2 40.88,-67.6 96.39,-140.47 214.81,-87.36 -4.28,54.81 -103.14,213.92 -132.29,268.73 -65.18,122.61 -66.33,180.15 -63.63,330.32 38.03,-19.85 72.17,-46.74 109.77,-69.33 231.49,-138.98 207.8,-378.3 268.99,-400.07 44.56,-15.86 117.04,-2.25 138.74,21.99 77,86.06 -24.97,333.92 -182.57,434.91 -34.21,21.92 -67.59,43.14 -105.68,63.63 -38.64,20.77 -69.72,34.97 -111.43,58.44 -76.3,42.94 -133.59,86.06 -177.23,164.24 -29.75,53.34 -80.34,177.76 -74.1,248.15 93.38,-36.5 217.73,-91.5 295.1,-141.84 337.71,-219.7 292.09,-492.36 456.94,-619.92 40.85,-31.61 114.44,-57.48 165.2,-24.82 34.41,44.9 -135.42,286.39 -136.87,355.1 110.45,-20.95 166.05,-128.41 256.5,-172.15 86.34,-41.74 163.87,82.55 55.88,228.47 -61.6,83.22 -211.67,68.74 -334.43,98 -70.67,16.85 -81.87,46.06 -118.94,93.39 -27.44,35.04 -63.68,78.72 -85.75,119.32 57.6,1 147.76,-10.94 212.86,-14.19 115.12,-5.73 188.66,-94.51 286.35,-166.98 94.24,-69.93 188.93,-211.46 258.48,-111.07 97.48,140.74 -31.14,260.64 -148.35,335.32l-59.99 35.22c-0.84,0.68 -2.95,4.46 -3.55,3.4 -0.6,-1.06 -2.46,2.26 -3.49,3.54 107.22,0.71 179.34,28.95 256.9,69.72 60.67,31.89 157.61,84.6 149.07,161.3 -89.63,55.33 -306.31,-28.88 -406.71,-51.52 -87.9,-19.83 -114.34,-20.35 -178.23,39.84 -22.18,20.91 -36.53,39.65 -58.41,59.31 -15.73,14.13 -51.63,40.37 -61.24,58.29 130.79,-43.1 332.24,-45.24 479.34,-26.14 116.67,15.15 199.98,37.24 283.33,103.16 131.34,103.88 -69.92,154.63 -181.13,167.02 -237.4,26.47 -352.82,-44.49 -527.54,-79.59 -71.4,-14.35 -215.09,-23.04 -272.08,12.85 34.54,15.34 111.52,27.45 157.05,45 148.84,57.36 242.46,157.77 426.73,161.66 138.39,2.92 289.15,-57.46 347.06,-42.59 54.91,14.09 115.55,43.82 61.42,88.6 -223.72,185.1 -535.91,110.21 -758.22,0.51 -178.55,-88.11 -418.51,-158.37 -645.65,-75.68 -44.22,16.1 -100.67,44.55 -127,68.03 -29.27,26.09 -71.7,61.41 -96.24,95.86 -116.85,164.04 -131.4,404.68 -16.33,574.43 123.43,182.04 424.84,134.08 656,134.44 206.49,0.32 625.77,-7.09 807.15,3.61 115.86,6.85 217.25,56.89 218.64,162.76 -94.33,15.95 -1077.72,8.65 -1181.97,6.63 -193.08,-3.73 -363.46,14.03 -515.37,-68.4 -93.82,-50.9 -163.73,-129.53 -203.48,-223.43 -12.78,-30.16 -21.8,-72.82 -33.07,-97.07l-0.64 2143.14zm-1413.08 -3398.6c92.14,-36.21 310.89,-32.2 419.28,-14.33 136.24,22.46 274.68,70.26 378.15,135.26l93.25 74.87c119,107.39 186.45,306.11 186.97,466.75 -97.94,-81.9 -48.58,-180.58 -552.46,-318.13 -168.9,-46.11 -307.54,-128.74 -423.18,-236.2l-102 -108.23zm1267.58 292.05c-43.75,-60.3 -65.39,-175.3 -61.84,-249.4 4.4,-91.93 32.43,-169.32 61.6,-248.76 36.5,-99.42 175.79,-310.67 267.06,-365.64 29.06,50.16 36.69,198.51 33.37,265.17 -11.24,225.56 -110.55,337.31 -241.45,508.9 -18.14,23.77 -36.13,69.58 -58.74,89.73zm-266.72 -279.44c-57.04,-62.03 -156.17,-496.45 -86.39,-606.17 33.27,16.17 213.24,208.64 206.2,260.75 -3.88,28.6 -96.44,244.75 -119.81,345.42zm2.7 -745.16c11.04,-45.28 102.45,-156.89 140.07,-231 67.48,-132.98 48.86,-222.83 77.07,-284.88 6.64,190.39 25.06,267.52 135.62,423.33 23.87,33.63 55.02,74.28 71.99,110.3 -16.86,17.52 -40.97,32.03 -63.16,47.38 -64.29,44.52 -104.16,123.53 -131.58,158.25 -9.78,12.39 -0.57,4.48 -13.79,12.94 -15.97,-25.22 -25.74,-44.62 -43.59,-70.37 -77.78,-112.17 -150.26,-138.13 -172.63,-165.94z"/>
   <path class="fil1" d="M2841.73 6282.69c-102.35,59.15 -228.27,88.72 -377.76,88.72 -166.82,0 -298.75,-46.9 -395.33,-140.71 -96.58,-94.04 -144.86,-222.27 -144.86,-385.15 0,-165.2 53.14,-299.67 159.42,-403.18 106.28,-103.51 246.3,-155.27 420.05,-155.27 111.83,0 209.55,15.72 293.19,47.37l0 211.87c-81.32,-47.37 -180.68,-71.16 -297.82,-71.16 -101.2,0 -182.99,33.04 -245.84,98.89 -62.61,65.85 -94.04,152.72 -94.04,260.62 0,109.52 28.18,195.24 85.02,256.47 56.6,61.45 133.78,92.18 231.74,92.18 58.22,0 105.83,-9 142.79,-27.26l0 -215.1 -211.87 0 0 -179.52 435.29 0 0 521.24z"/>
   <path id="_1" class="fil1" d="M3968.29 6353.15l-257.38 0 -164.51 -272.86c-33.73,-56.38 -61.45,-92.65 -83.18,-108.83 -21.71,-16.4 -44.59,-24.48 -69.08,-24.48l-67.7 0 0 406.18 -223.41 0 0 -1048.49 367.6 0c249.53,0 374.29,94.72 374.29,284.19 0,71.39 -20.79,132.62 -62.61,183.45 -41.58,51.06 -99.12,86.87 -172.13,107.66l0 2.78c48.29,16.17 101.66,69.54 160.35,159.65l197.77 310.76zm-641.85 -878.68l0 301.98 109.75 0c52.22,0 94.5,-15.25 126.15,-45.75 31.89,-30.49 47.83,-68.38 47.83,-114.13 0,-94.73 -56.6,-142.1 -170.05,-142.1l-113.68 0z"/>
   <polygon id="_2" class="fil1" points="4346.48,5304.66 4346.48,6353.15 4123.29,6353.15 4123.29,5304.66 "/>
   <polygon id="_3" class="fil1" points="5257.24,6353.15 4641.74,6353.15 4641.74,5304.66 4865.15,5304.66 4865.15,6170.39 5257.24,6170.39 "/>
   <polygon id="_4" class="fil1" points="6068.19,6353.15 5452.69,6353.15 5452.69,5304.66 5676.1,5304.66 5676.1,6170.39 6068.19,6170.39 "/>
   <path class="fil2" d="M1122.18 4784.95c-105.15,53.03 -242.47,79.54 -411.66,79.54 -217.93,0 -390.62,-66.78 -518.71,-200.97 -127.76,-133.88 -191.81,-312.26 -191.81,-535.49 0,-234.69 71.37,-426.5 214.43,-575.75 142.75,-149.26 326.9,-223.89 552.8,-223.89 141.47,0 259.67,18.65 354.94,56.63l0 305.71c-97.82,-58.91 -208.69,-88.05 -332.33,-88.05 -141.45,0 -254.25,46.16 -339,138.79 -84.44,92.96 -126.81,214.06 -126.81,363.65 0,145.66 40.15,263.16 120.44,351.87 80.29,88.71 188.94,133.22 325.63,133.22 129.04,0 246.28,-31.75 352.07,-95.91l0 290.66z"/>
   <path class="fil2" d="M2632.42 4838.63l-336.15 0 -108.32 -340.42 -525.4 0 -106.42 340.42 -334.22 0 529.23 -1485.37 362.25 0 519.04 1485.37zm-517.13 -584.92l-164.4 -514.87c-10.52,-32.73 -17.84,-75.93 -22.3,-129.61l-8.28 0c-3.82,43.53 -12.11,85.42 -25.49,125.69l-165.04 518.8 385.51 0z"/>
   <path class="fil2" d="M4346.26 4115.58c0,-232.72 66.28,-422.24 198.51,-568.23 132.22,-145.99 306.82,-218.97 524.11,-218.97 206.47,0 372.78,70.7 498.95,211.78 125.85,141.39 188.93,323.06 188.93,544.66 0,231.41 -65.63,419.29 -196.58,563.31 -130.95,144.36 -302.36,216.36 -514.56,216.36 -207.42,0 -375.65,-69.72 -505,-209.48 -129.69,-139.76 -194.37,-319.46 -194.37,-539.42zm324.03 -17.35c0,144.67 33.77,262.51 101.64,354.48 67.86,91.65 160.9,137.48 279.11,137.48 120.76,0 214.74,-43.86 281.97,-131.91 67.24,-87.72 100.69,-205.89 100.69,-354.17 0,-154.82 -32.5,-276.91 -97.81,-366.92 -65.32,-89.69 -157.4,-134.53 -276.25,-134.53 -120.76,0 -216.02,45.83 -285.48,138.13 -69.13,91.98 -103.87,211.12 -103.87,357.44z"/>
   <path class="fil2" d="M6309.26 4320.81l0 517.82 -308.1 0 0 -1485.37 497.68 0c359.7,0 539.41,156.45 539.41,469.7 0,152.21 -54.16,274.3 -162.81,365.95 -108.65,91.65 -244.38,135.84 -407.51,131.91l-158.67 0zm0 -722.07l0 479.52 133.5 0c181.29,0 271.78,-80.85 271.78,-242.87 0,-157.77 -89.85,-236.65 -268.9,-236.65l-136.37 0z"/>
   <path class="fil2" d="M8332.16 3353.25l-472.51 955.12 0 530.25 -308.1 0 0 -524.7 -459.12 -960.68 351.75 0 242.79 567.57c5.1,11.45 16.57,50.73 34.41,117.18l3.82 0c7.65,-44.84 17.84,-82.81 30.9,-114.23l249.16 -570.52 326.9 0z"/>
  </g>
 </g>
</svg>
