<?xml version="1.0" encoding="UTF-8"?>
<!DOCTYPE svg PUBLIC "-//W3C//DTD SVG 1.1//EN" "http://www.w3.org/Graphics/SVG/1.1/DTD/svg11.dtd">
<!-- Creator: CorelDRAW -->
<svg xmlns="http://www.w3.org/2000/svg" xml:space="preserve" width="58.8445mm" height="58.7486mm" version="1.1" style="shape-rendering:geometricPrecision; text-rendering:geometricPrecision; image-rendering:optimizeQuality; fill-rule:evenodd; clip-rule:evenodd"
viewBox="0 0 6980.75 6969.37"
 xmlns:xlink="http://www.w3.org/1999/xlink"
 xmlns:xodm="http://www.corel.com/coreldraw/odm/2003">
 <defs>
  <style type="text/css">
   <![CDATA[
    .fil1 {fill:#231F20;fill-rule:nonzero}
    .fil0 {fill:#DEBBA8;fill-rule:nonzero}
   ]]>
  </style>
 </defs>
 <g id="Layer_x0020_1">
  <metadata id="CorelCorpID_0Corel-Layer"/>
  <path class="fil0" d="M5261.94 4028.56c-13.81,-342.58 -124.67,-668.64 -216.95,-992.89 -95.03,-334.73 -214.39,-724.94 -86.71,-1071.33 39.8,-107.89 103.49,-203.23 181.97,-284.37 -19.38,10.55 -38.84,21.09 -57.88,32.02 -292.53,167.73 -539.96,390.79 -724.93,681.73 -223.74,351.12 -241.98,755.02 -105.89,1137.03 117.05,328.36 277.51,635.7 359.33,978.12 58.96,246 77.5,507.44 41.59,759.16 121.32,-92.78 228.42,-208.03 313.97,-319.98 203.47,-266.42 308.97,-583.85 295.5,-919.49z"/>
  <path class="fil0" d="M3760.98 3563.72c-73.49,-258.56 -165.6,-560 -67.05,-827.42 30.76,-83.41 80.11,-157.02 140.54,-219.8 -14.98,8.16 -29.85,16.32 -44.74,24.82 -225.91,129.57 -417,301.95 -559.88,526.4 -172.71,271.31 -186.87,583.31 -81.69,878.47 90.35,253.53 214.27,490.99 277.42,755.31 45.63,190.13 59.93,392.14 32.15,586.41 93.66,-71.52 176.56,-160.63 242.6,-247.08 157.02,-205.74 238.67,-451.1 228.13,-710.24 -10.63,-264.58 -96.21,-516.43 -167.48,-766.86z"/>
  <path class="fil0" d="M2513.32 3035.68c-95.21,-334.72 -214.4,-724.93 -86.71,-1071.36 39.71,-107.89 103.45,-203.18 181.75,-284.37 -19.22,10.55 -38.54,21.09 -57.84,32.05 -292.48,167.73 -539.83,390.79 -724.96,681.7 -223.52,351.17 -241.77,755.02 -105.68,1137.07 116.89,328.36 277.35,635.7 359.32,978.07 58.94,246.04 77.51,507.44 41.52,759.21 121.32,-92.78 228.54,-208.04 313.96,-320.03 203.44,-266.37 308.98,-583.85 295.43,-919.45 -13.73,-342.59 -124.59,-668.65 -216.79,-992.9z"/>
  <path class="fil1" d="M3490.35 739.29c-1513.39,0 -2744.67,1231.23 -2744.67,2744.66 0,1513.39 1231.28,2744.67 2744.67,2744.67 1513.46,0 2744.69,-1231.28 2744.69,-2744.67 0,-1513.43 -1231.23,-2744.66 -2744.69,-2744.66zm0 5607.92c-1578.84,0 -2863.31,-1284.46 -2863.31,-2863.26 0,-1578.83 1284.47,-2863.3 2863.31,-2863.3 1578.88,0 2863.3,1284.47 2863.3,2863.3 0,1578.81 -1284.42,2863.26 -2863.3,2863.26z"/>
  <path class="fil1" d="M6250.98 2058.5c-1.55,-0.33 -3.1,-1.64 -4.65,-3.94 -1.54,-2.22 -2.72,-3.89 -3.26,-4.8l-6.66 -8.96c-3.18,-4.57 -7.49,-11.39 -13.06,-20.56 -5.73,-9.49 -9.83,-16.69 -12.34,-21.63 -1.14,-1.89 -1.72,-3.23 -1.72,-3.86 0,-0.63 0.71,-1.64 2.14,-2.93l7.4 -3.81 11.64 -6.36 23.28 -14.06c11.38,-6.83 28.53,-17.63 51.59,-32.35 22.4,-14.4 39.39,-25.08 51.14,-32.15 43.61,-26.28 92.15,-56.62 145.6,-91.03 -34.14,4.24 -73.74,9.75 -118.68,16.62l-131.92 19.37 -65.33 9.63 -32.93 4.31 -16.29 2.05c-0.79,0.08 -2.25,0.12 -4.47,0.08 -2.14,0.04 -3.76,-0.88 -4.9,-2.81 -0.58,-0.91 -1.29,-2.84 -2.22,-5.77 0.17,-1.89 1.47,-4.78 3.77,-8.75l144.42 -200.25c12.43,-17.41 31.47,-43.31 57.22,-77.8 5.48,-8.13 8.66,-14.27 9.49,-18.67l-46.99 28.29c-94.42,58.72 -165.86,102.83 -214.32,132.5 -5.4,3.23 -9.75,6.16 -12.93,8.71 -3.18,2.6 -5.91,5.61 -8.08,9.12 -0.42,0.66 -1.01,1.76 -1.54,3.18 -0.68,1.47 -1.42,2.47 -2.14,2.98 -0.84,0.42 -1.97,0.5 -3.52,0.12 -1.71,-0.66 -4.19,-2.68 -7.45,-5.86 -0.79,-0.79 -1.87,-2.09 -3.01,-3.97 -1.13,-1.89 -2.14,-4.31 -3.01,-7.24 -0.83,-2.1 -1,-3.56 -0.33,-4.32 0.55,-0.79 2.05,-1.42 4.31,-1.92 1.39,-0.5 3.19,-0.75 5.41,-0.75 2.12,0.04 3.76,-0.08 4.89,-0.34 1.17,-0.28 2.55,-0.88 4.1,-1.79 102.4,-61.82 179.16,-107.89 230.34,-138.24 29.34,-17.74 51.39,-30.83 66.21,-39.29l6.61 -3.94c3.86,-2.34 6.62,-3.38 8.41,-3.21 4.69,-0.17 9.09,3.21 13.27,10.17 5.68,9.42 9.87,16.66 12.42,21.56l12.1 21.18c1.72,2.85 2.43,5.56 2.17,8.03 -0.12,2.51 -1.29,5.23 -3.43,8.24l-76.59 112.12 -81.74 116.59 -8.33 14.07c1.3,0.04 3.27,0.33 5.82,1 2.5,0.68 4.56,0.71 6.03,0.3l215.4 -30.96 36.87 -5.45 18.87 -2.98 10.05 -1.51c0.79,-0.08 1.8,-0.28 2.93,-0.45 1.17,-0.3 2.38,-0.38 3.76,-0.3 1.3,0.04 2.65,1.17 3.94,3.39l5.31 9.79c3.51,4.4 6.28,9.09 8.58,14.24l8.84 14.69 4.47 6.32c2.14,3.46 2.38,6.11 0.93,7.87 -0.59,1.26 -2.3,2.68 -5.15,4.39 -2.81,2.55 -4.85,4.19 -6.07,5.03 -3.51,3.38 -7.45,6.31 -11.51,8.83 -31.56,19.88 -79.72,49.72 -144.42,89.68l-127.27 80.6c-5.74,3.39 -9.92,6.16 -12.6,8.21 -1.09,1.09 -2.72,3.01 -4.82,5.81 -2.22,2.85 -3.93,4.24 -5.31,4.14 -0.33,0.21 -0.58,0.18 -0.75,-0.2z"/>
  <path class="fil1" d="M6518.1 2113.14c-8.16,3.43 -14.24,6.16 -18.25,8.21l-16.83 7.02c-25.23,9.42 -51.31,25.07 -78.13,47.12 -22.63,19.5 -39.97,40.31 -51.89,62.53 -2.65,4.27 -4.44,10.46 -5.48,18.46 -1.3,9.32 0,18.62 3.84,27.87 5.23,12.6 13.89,23.36 25.83,32.35 11.92,9.04 24.02,13.61 36.03,13.77 23.48,0.58 40.97,0.3 52.48,-0.88 32.93,-2.6 68.51,-11.85 106.67,-27.8 10.55,-4.44 26.41,-11.89 47.67,-22.35 25.49,-12.67 46.25,-30.13 62.11,-52.39 21.26,-29.63 25.98,-58.51 14.31,-86.39 -5.23,-12.63 -10.8,-20.96 -16.44,-24.98 -18.29,-12.3 -35.79,-19.62 -52.4,-21.92 -34.57,-3.14 -71.02,3.3 -109.52,19.37zm84.45 261.57c-3.06,1 -5.03,1.79 -5.99,2.22 -2.63,1.46 -6.44,3.26 -11.51,5.43 -19.46,8.08 -41.67,12.93 -66.54,14.57 -16.19,1.54 -36.62,-0.93 -61.39,-7.37 -31.39,-8.11 -56.5,-21.84 -75.38,-41.09 -17.57,-17.08 -30.38,-35.53 -38.74,-55.28 -8.24,-19.76 -12.1,-41.39 -11.44,-64.83 0.51,-19.8 2.93,-36.41 7.37,-49.88 3.94,-13.64 11.51,-29.84 22.9,-48.59 16.74,-29.8 42.32,-52.9 76.67,-69.26 4.98,-2.47 12.55,-5.91 22.81,-10.18 29.24,-12.22 55.48,-18.36 78.68,-18.41 34.77,-0.12 67.63,8.92 98.43,27.25 31.72,18.33 54.2,43.36 67.42,75.08 9.83,23.51 14.57,50.71 14.32,81.61 0.17,9.95 -2.22,21.18 -7.03,33.56 -8.41,24.78 -19.04,46.16 -31.89,64.37 -16.66,23.31 -40.13,42.39 -70.35,57 -2.63,1.46 -5.4,2.8 -8.33,3.81z"/>
  <path class="fil1" d="M6676.19 2535.61c-8.59,2.3 -14.95,4.19 -19.14,5.65l-17.65 4.69c-26.32,5.82 -54.29,17.83 -83.87,35.96 -25.07,16.28 -45.12,34.52 -59.88,54.9 -3.23,3.89 -5.82,9.72 -7.96,17.53 -2.59,9.12 -2.59,18.46 -0.08,28.13 3.52,13.14 10.63,25.03 21.27,35.61 10.63,10.55 21.89,16.7 33.86,18.54 23.1,3.76 40.5,5.81 52.06,6.19 32.93,1.97 69.47,-2.35 109.44,-12.93 11.06,-2.93 27.8,-8.16 50.26,-15.61 26.99,-9.09 49.93,-23.56 68.76,-43.48 24.98,-26.45 33.66,-54.37 25.91,-83.66 -3.51,-13.19 -7.87,-22.18 -12.93,-26.95 -16.49,-14.73 -32.77,-24.32 -48.89,-28.84 -33.73,-7.87 -70.85,-6.44 -111.14,4.27zm47.95 270.64c-3.1,0.58 -5.14,1.01 -6.19,1.34 -2.76,1.09 -6.86,2.38 -12.17,3.76 -20.35,5.45 -42.98,7.25 -67.93,5.45 -16.19,-0.71 -36.11,-5.9 -59.77,-15.69 -30,-12.25 -53.02,-29.29 -69.04,-50.98 -15.07,-19.34 -25.36,-39.34 -30.81,-60.05 -5.48,-20.71 -6.31,-42.56 -2.55,-65.74 3.18,-19.59 7.91,-35.74 14.06,-48.46 5.74,-13.01 15.53,-27.96 29.34,-45 20.59,-27.32 49.14,-46.66 85.43,-58.16 5.22,-1.85 13.26,-4.15 23.93,-6.95 30.68,-8.16 57.55,-10.71 80.53,-7.57 34.4,4.6 65.74,18.08 93.74,40.42 28.96,22.52 47.75,50.35 56.59,83.54 6.52,24.65 7.53,52.22 3.01,82.86 -1.22,9.83 -4.98,20.63 -11.42,32.27 -11.77,23.35 -25.28,43.18 -40.48,59.39 -19.62,20.88 -45.45,36.53 -77.5,46.91 -2.76,1.14 -5.61,2.02 -8.75,2.68z"/>
  <path class="fil1" d="M6568.95 3011.98c0.33,8.2 0.66,13.94 1.04,17.2 1.09,8.41 3.76,20.5 8.03,36.36 10.21,42.65 36.95,69.98 80.18,81.99 3.44,1.06 6.87,2.22 10.21,3.44 3.26,1.29 6.7,2.42 10.21,3.46 13.73,3.11 25.03,5.15 33.69,6.32 10.63,1.26 20.84,1.42 30.8,0.55 9.96,-0.84 24.02,-2.43 42.35,-4.82 21.97,-3.13 43.32,-10.66 64.16,-22.63 11.85,-6.32 22.65,-14.24 32.43,-23.61 9.75,-9.45 19.63,-20.59 29.55,-33.35 6.7,-8.67 11.42,-18.51 14.11,-29.43 2.72,-10.96 4.35,-23.56 4.77,-37.75 0.63,-12.01 0.63,-20.91 -0.08,-26.74 -0.66,-5.56 -2.47,-11.84 -5.15,-18.91l-356.31 47.91zm351.32 -122.62c1.22,0.96 2.02,2.3 2.43,4.09 0.42,1.84 0.66,3.1 0.75,3.81 2.05,10.21 3.36,17.83 3.99,22.98 4.69,24.69 7.78,43.31 9.32,55.74 3.69,28.96 4.73,54.82 3.18,77.76 -2.14,35.99 -11.59,67 -28.41,92.9 -15.32,22.85 -35.74,41.19 -61.06,55.2 -20.63,11.22 -42.18,18.21 -64.91,21.09 -20.91,2.65 -44.94,1.97 -72.27,-2 -30.71,-4.27 -59.52,-19.84 -86.29,-46.57 -24.27,-24.07 -42.7,-56.34 -55.29,-96.85 -7.32,-22.85 -13.38,-52.43 -17.95,-88.71l-2.38 -19.22c-0.33,-2.55 -0.88,-5.18 -1.64,-7.87 -0.66,-2.76 -1.21,-5.53 -1.63,-8.49 -0.51,-4.39 -0.25,-8.33 0.75,-11.8 0.46,-2.25 2.18,-3.59 5.15,-3.97 1.39,-0.17 3.35,-0.17 5.78,0.08 2.47,0.25 4.27,0.5 5.4,0.66 3.77,-0.08 9.25,-0.53 16.62,-1.51 6.94,-0.88 12.25,-1.71 15.86,-2.55l15.27 -2.47c122.3,-16.28 214.32,-28.66 276.09,-37.29 2.98,-0.38 7.28,-1.29 13.1,-2.8 5.74,-1.42 9.88,-2.31 12.43,-2.65 2.22,-0.28 4.06,-0.12 5.73,0.43z"/>
  <path class="fil1" d="M6860.09 3518.64c6.62,-4.6 14.86,-8.62 24.86,-11.93 1.54,9.25 4.82,16.16 10.05,20.71 5.14,4.57 12.17,7.79 21.01,9.63 5.22,0.71 8.66,1.13 10.55,1.13 9.24,0 17.07,-2.63 23.51,-7.83 6.49,-5.15 11.14,-11.84 14.06,-19.95 4.1,-10.34 6.07,-20.35 6.07,-29.93 0,-17.37 -5.81,-33.77 -17.24,-49.26 -4.1,-5.53 -9.93,-9.96 -17.5,-13.23 -7.62,-3.3 -15.61,-4.94 -24.11,-4.94 -6.66,0 -12.35,0.88 -17.2,2.8 -19.5,7.41 -34.07,19.97 -43.64,37.75l-8.79 17.17c-19.55,36.95 -33.11,61.89 -40.89,74.87 -11.76,19.54 -24.11,35.49 -36.95,47.67 -21.8,20 -47.96,30.93 -78.64,32.85 -3.68,0.05 -6.44,-0.17 -8.24,-0.5 -32.52,-10.3 -55.99,-27.75 -70.47,-52.43 -7.75,-12.93 -12.98,-26.7 -15.61,-41.31 -2.6,-14.57 -3.89,-31.09 -3.97,-49.47 -0.08,-41.77 4.97,-77.47 15.27,-106.97 5.56,-15.9 14.95,-28.63 28.21,-38.29 13.23,-9.59 27.87,-14.47 43.73,-14.52 8.08,-0.05 16.57,1.51 25.49,4.44 9.59,3.64 17.24,9.54 22.98,17.66 5.81,8.11 8.66,16.74 8.66,26.03 0,12.55 -4.19,23.23 -12.68,32.14 -0.71,0.71 -2.22,1.47 -4.39,2.18 -11.89,-12.9 -26.07,-19.34 -42.7,-19.3 -7.73,0 -16.49,1.51 -26.07,4.57 -13.64,4.02 -24.6,10.55 -32.93,19.37 -8.24,8.87 -12.93,20.21 -13.97,33.86 -0.76,14.02 -1.04,24.73 -1.04,32.1 0,10.68 0.37,27.17 1.21,49.3 0,6.23 3.43,12.55 10.3,18.83 6.77,6.24 13.56,10.26 20.17,12.14 10.38,2.56 17.33,3.81 21.09,3.77 2.55,0.04 4.44,-0.17 5.56,-0.5 9.59,-3.01 17.66,-5.99 24.27,-8.92 6.7,-3.01 12.76,-6.86 18.34,-11.64 19.54,-17.78 35.45,-39.62 48.03,-65.5 8.42,-18.83 15.45,-33.89 21.19,-45.2 5.73,-11.29 12.25,-22.22 19.62,-32.97 10.3,-15.16 22.22,-26.75 35.95,-34.65 13.56,-8 28.21,-11.97 43.66,-12.02 11.13,0 23.48,2.3 37.2,7.12 35.07,13.23 58.05,40.3 68.81,81.27 5.23,19.92 7.87,36.7 7.87,50.35 0,15.15 -2.55,30.08 -7.7,44.85 -13.97,39.93 -39.14,61.95 -75.66,66.09 -2.3,0.33 -5.4,0.55 -9.42,0.58 -14.48,0 -25.4,-4.01 -33.03,-12.14 -7.62,-8.08 -11.38,-18.41 -11.42,-30.96 0,-5.15 0.88,-11.09 2.76,-17.71 2.51,-8.16 7.12,-14.56 13.81,-19.16z"/>
  <path class="fil1" d="M6793.56 4149.04c7.45,-3.26 16.36,-5.68 26.74,-7.07 -0.25,9.34 1.72,16.74 5.94,22.18 4.27,5.52 10.55,10 18.87,13.51 5.03,1.64 8.38,2.65 10.17,3.01 9.04,1.64 17.25,0.59 24.62,-3.3 7.24,-3.94 13.13,-9.59 17.45,-17 5.98,-9.41 9.75,-18.87 11.55,-28.25 3.26,-17.07 0.62,-34.32 -7.79,-51.69 -2.93,-6.15 -7.82,-11.59 -14.69,-16.19 -6.77,-4.73 -14.39,-7.83 -22.72,-9.42 -6.54,-1.21 -12.35,-1.34 -17.41,-0.42 -20.59,3.64 -37.2,13.31 -49.97,29.01l-11.85 15.18c-26.06,32.65 -44.06,54.66 -54.11,65.92 -15.2,16.99 -30.22,30.38 -45.28,39.92 -24.98,15.61 -52.81,21.47 -83.28,17.62 -3.61,-0.66 -6.28,-1.34 -8,-2.05 -30.1,-16.15 -49.88,-37.75 -59.43,-64.7 -5.23,-14.09 -7.87,-28.58 -7.7,-43.4 0.17,-14.82 1.97,-31.31 5.4,-49.42 7.71,-41.01 19.3,-75.08 34.91,-102.25 8.41,-14.52 20,-25.35 34.82,-32.3 14.85,-6.99 30.08,-8.99 45.7,-6.11 7.91,1.51 16.03,4.57 24.19,9.04 8.74,5.45 15.2,12.63 19.29,21.67 4.15,9.04 5.4,18.08 3.69,27.17 -2.3,12.35 -8.49,22.1 -18.49,29.25 -0.79,0.58 -2.43,1.04 -4.73,1.38 -9.25,-14.94 -21.97,-23.86 -38.34,-26.95 -7.62,-1.42 -16.44,-1.63 -26.41,-0.45 -14.14,1.46 -26.15,5.81 -35.95,12.97 -9.83,7.2 -16.53,17.37 -20.13,30.59 -3.35,13.64 -5.61,24.06 -7.02,31.39 -1.97,10.5 -4.65,26.74 -8,48.63 -1.14,6.19 1.04,12.98 6.61,20.43 5.56,7.37 11.47,12.63 17.58,15.69 9.7,4.47 16.36,7.02 20.05,7.65 2.5,0.5 4.39,0.71 5.52,0.55 10,-1.17 18.51,-2.6 25.61,-4.27 7.03,-1.67 13.73,-4.31 20.1,-8.03 22.47,-13.81 42.27,-32.23 59.42,-55.36 11.76,-16.95 21.51,-30.43 29.25,-40.43 7.7,-9.96 16.19,-19.55 25.45,-28.76 12.88,-12.97 26.79,-22.1 41.77,-27.37 14.85,-5.28 29.92,-6.44 45.12,-3.64 10.96,2.09 22.63,6.7 35.23,13.94 31.94,19.54 49.42,50.43 52.48,92.73 1.29,20.46 0.79,37.55 -1.72,50.94 -2.8,14.85 -8.11,29.04 -15.94,42.64 -21.09,36.59 -50.05,53.57 -86.75,50.77 -2.18,-0.05 -5.28,-0.38 -9.29,-1.17 -14.15,-2.72 -24.19,-8.71 -30.18,-18.08 -5.94,-9.34 -7.73,-20.21 -5.4,-32.52 0.93,-5.11 2.89,-10.8 5.99,-16.95 4.01,-7.53 9.7,-12.93 17.07,-16.24z"/>
  <path class="fil1" d="M6446.91 4448.5c-2.56,-0.79 -4.1,-1.89 -4.82,-3.27 -0.25,-0.45 -0.58,-1.29 -0.93,-2.63 0,-4.98 1.09,-11.04 3.27,-18.08l5.98 -17.28 7.37 -19.75c0.63,-2.14 1.38,-3.43 2.34,-3.89 1.01,-0.84 3.77,-0.55 8.46,0.88 4.65,1.04 8.66,2.18 11.92,3.43 3.36,1.22 6.03,2.18 8.16,2.85 38.01,10.68 75.96,21.89 113.62,33.66 8.58,2.25 21.18,5.98 37.67,11.13l58.72 18.25 118.97 37.12c3.52,-8.96 5.65,-14.47 6.32,-16.61 5.86,-18.71 10.38,-32.56 13.56,-41.6 3.26,-10.58 4.73,-19.88 4.35,-28 -0.42,-8 -4.02,-15.4 -10.8,-22.14l-0.34 -0.71c0.34,-1.04 1.97,-2.38 4.98,-3.94 3.01,-1.63 5.31,-2.5 6.95,-2.8l3.18 1.01c5.98,1.84 9.83,4.39 11.55,7.62 1.71,3.26 1.13,9.45 -1.72,18.58l-60.98 193.94c-5.15,16.61 -9.25,29.04 -12.18,37.4l-5.81 18.51c-1.64,5.27 -3.68,8.99 -6.06,11.17 -2.43,2.14 -6.79,2.22 -13.14,0.28 -5.31,-1.67 -10.3,-4.85 -15.07,-9.41l0.25 -2.81c0.84,-2.42 1.97,-4.09 3.59,-4.98 1.64,-0.88 3.27,-1.38 4.9,-1.67 1.59,-0.25 2.8,-0.45 3.61,-0.55 10.33,-1.84 17.4,-7.98 21.42,-18.33 9.08,-29.25 15.69,-51.14 19.87,-65.7 0.97,-3.18 1.39,-5.2 1.3,-6.03 -0.25,-0.46 -0.76,-0.71 -1.55,-0.71 -0.75,-0.08 -1.29,-0.17 -1.63,-0.25 -2.22,-0.34 -4.1,-0.84 -5.66,-1.47 -1.54,-0.71 -2.84,-1.17 -3.84,-1.46l-19.12 -5.99c-16.49,-5.15 -29.09,-8.87 -37.67,-11.17 -21.09,-6.57 -52.98,-16.06 -95.46,-28.54l-96.04 -28.79 -55.03 -17.12 -26.95 -8.36 -7.53 -1.76z"/>
  <path class="fil1" d="M6618.48 5020.7c-1.29,0.21 -3.84,-0.5 -7.53,-2.09 -3.76,-1.72 -8.49,-4.19 -14.22,-7.53 -12.9,-6.62 -22.23,-11.93 -28,-16.11 -0.34,-0.13 -1.17,-0.71 -2.3,-1.59 -1.22,-0.97 -1.72,-2.22 -1.47,-3.69 0.96,-2 2.18,-3.48 3.86,-4.39 3.18,-1.85 7.32,-2.55 12.47,-2.27 27.62,1.34 48.88,-12.25 63.61,-40.88 5.94,-10.72 11.34,-21.47 16.11,-32.18l11.42 -27.12c2.22,-5.86 5.91,-14.57 10.97,-26.04 0.88,-2 1.54,-3.93 1.97,-5.77 0.37,-1.85 0.71,-3.52 1.04,-5.03l-156.44 -69.42c-0.93,1.16 -2.05,2.72 -3.26,4.56 -1.26,1.92 -2.38,4.02 -3.44,6.41 -5.23,11.8 -12.93,30 -23.05,54.57 -4.52,10.13 -5.91,17.37 -4.19,21.8 1.63,4.32 7.45,9.17 17.24,14.32l4.6 2.05c3.01,1.33 5.07,2.8 6.11,4.52 1.09,1.67 1.39,3.01 0.93,4.09 -0.58,1.3 -1.8,2.22 -3.68,2.85 -1.89,0.59 -3.94,0.63 -6.07,0.05 -13.39,-4.4 -23.35,-8 -29.75,-10.81 -4.4,-1.96 -10.46,-5.05 -18.29,-9.32 -7.78,-4.27 -13.26,-7.91 -16.36,-10.93 -1.89,-1.21 -2.51,-2.55 -1.89,-3.86 0.42,-1 1.72,-1.54 4.02,-1.54 2.22,-0.05 4.27,0.13 6.11,0.58 9.5,2.18 16.11,2.65 19.7,1.22 3.69,-1.42 7.03,-5.69 10.21,-12.76l24.19 -55.91 7.45 -16.7c-7.73,-4.27 -13.31,-7.12 -16.74,-8.62 -9.42,-4.19 -23.81,-10.17 -43.03,-17.91 -12.39,-4.69 -21.63,-8.36 -27.7,-11.08l-66.29 -28.21 -15.94 -6.49c-1.04,1.51 -2.09,3.01 -3.26,4.65 -1.04,1.51 -2,3.26 -2.93,5.31l-30.55 68.84 -15.33 34.36c-3.26,7.45 -5.31,16.54 -5.93,27.12 -0.26,15.2 4.56,26.03 14.6,32.56 4.09,3.38 6.23,6.39 6.39,8.87 0,0.79 -0.17,1.71 -0.66,2.72 -1.46,3.39 -5.23,4.6 -11.17,3.48 -2.72,-0.34 -6.41,-1.64 -11.13,-3.64 -5.07,-2.3 -8.67,-4.1 -10.97,-5.48l-8.91 -5.82c-1.64,-0.75 -2.76,-1.42 -3.26,-2.09 -0.88,-0.76 -1.04,-1.97 -0.59,-3.56 0.51,-1.54 0.93,-2.68 1.26,-3.39l2.35 -6.77c13.26,-29.72 26.32,-59.22 39.42,-88.61 12.98,-29.33 25.99,-58.96 38.84,-88.79l19.12 -43.03c2.17,-5.07 4.9,-7.7 8,-7.95 3.18,-0.21 6.44,0.37 9.87,1.67 3.44,1.29 6.07,2.38 7.7,3.1 2.85,0.91 6.37,2.05 10.64,3.51 4.14,1.42 8.83,3.31 13.89,5.61 40.55,16.74 80.81,34.07 120.56,51.69l42.1 18.71 85 37.78c17.83,7.96 31.31,13.61 40.22,17.25 1.97,0.88 5.66,1.67 11.01,2.47 0.33,0.12 1.42,0.2 3.23,0.25 1.89,-0.05 3.26,0.21 4.22,0.63 3.77,1.63 4.19,5.69 1.29,12.09l-4.89 12.35c-0.88,2.85 -2.27,6.66 -4.4,11.42l-89.93 202.43 -4.14 7.87c-1.72,2.05 -3.06,3.23 -4.02,3.64z"/>
  <path class="fil1" d="M6326.92 5194.36l22.22 1.76c4.9,0.33 15.53,1.21 31.72,2.55 16.19,1.29 31.72,2.14 46.67,2.47l-112.12 -159.65 -87.55 145.76c22.88,2.14 55.91,4.47 99.06,7.12zm-23.31 -170.92l-42.98 -61.94c-1.04,-1.13 -2.47,-2.88 -4.19,-5.43 -1.72,-2.51 -3.43,-4.57 -5.07,-5.99l-1.97 -1.13c-4.06,-2.47 -8.41,-3.56 -12.88,-3.23 -0.33,-0.17 -0.76,-0.25 -1.47,-0.25 -0.66,0.05 -1.08,-0.21 -1.16,-0.71 -0.3,-0.21 -0.26,-0.75 0.33,-1.72l2.14 -4.56 2.59 -5.53c0.43,-0.63 1.17,-2.25 2.3,-4.77 1.09,-2.6 2.48,-3.76 4.1,-3.64l0.51 0.3c1.63,0.91 3.01,2.25 4.22,4.14 1.29,1.84 2.14,3.1 2.63,3.81l6.7 9.25 223.86 325.51c1.08,1.04 1.33,2.05 0.75,3.01 -1.29,2.25 -5.98,3.51 -13.97,3.89l-76.67 -4.6 -99.65 -6.24 -130.86 -10.08 -65.46 -5.07c-6.23,-0.3 -15.48,-1.13 -27.65,-2.38 -1.64,-0.13 -3.89,-0.58 -6.79,-1.51 -0.3,-0.21 -1.38,-0.5 -3.26,-1.01 -1.89,-0.45 -2.76,-1.51 -2.6,-3.13l2.68 -6.79 5.48 -12.25c3.69,-6.82 9.59,-17.04 17.75,-30.64l9.37 -15.69c0.25,-0.28 0.68,-1.21 1.34,-2.72 0.71,-1.54 1.72,-1.92 2.93,-1.17l0.5 0.25c0.96,0.63 1.64,1.3 1.97,2.18 0.3,0.83 0.96,1.59 1.97,2.14 1.46,1.8 3.64,3.1 6.61,4.02 2.76,1.21 7.37,2 13.99,2.55l86.62 4.22c2.14,0 5.91,-0.17 11.22,-0.42l90.85 -151.5c-1.63,-2.25 -3.89,-6.03 -6.77,-11.17z"/>
  <path class="fil1" d="M5802.31 5572.49c0,0 -1.21,0.37 -3.76,1.16 3.01,-7.95 7.62,-15.69 13.56,-23.14 11.64,-14.39 26.66,-23.13 45.2,-26.19 4.94,-0.83 12.05,-2.25 21.18,-4.31l25.11 -4.73c22.05,-2.68 47.33,1.26 75.75,11.8 14.57,5.48 28.29,8.62 41.22,9.29 12.97,0.68 25.65,-1.8 38.16,-7.37 14.4,-6.03 25.2,-13.6 32.6,-22.85 4.44,-5.48 7.96,-12.3 10.71,-20.51 -20.83,-17.65 -36.44,-30.71 -46.74,-38.96 -27.8,-23.26 -48.89,-40.63 -63.28,-52.15l-15.11 -12.17c-1.96,-1.59 -5.48,-3.48 -10.46,-5.56 -0.25,-0.26 -1.96,-0.59 -5.05,-1.22 -3.11,-0.58 -4.7,-1.63 -4.82,-3.13l0.55 -1.67 0.5 -2.47c0.66,-1.89 1.29,-3.99 2.14,-6.12 3.1,-7.4 7.66,-14.69 13.56,-21.76 5.98,-7.12 9.7,-11.67 11.26,-13.64l3.13 -3.94c2.76,-3.43 5.23,-5.52 7.2,-6.28l5.69 -1.8c1.55,-0.17 2.8,0.09 3.68,0.76 0.84,0.71 1.89,2.05 3.19,4.02l5.73 6.03c1.29,1.46 2.72,3.05 4.35,4.89 1.63,1.77 3.72,3.69 6.36,5.78l236.21 189.63 5.18 4.14c1.55,1.67 3.97,3.93 7.41,6.69 2.63,2.1 4.6,3.48 5.98,4.06 2.76,1.26 5.48,2.05 8.16,2.31 0.76,0.17 2.38,0.04 4.9,-0.34 2.38,-0.46 3.84,0.25 4.35,2.05 0.17,3.94 -1.3,8.41 -4.44,13.48 -0.63,1.39 -1.89,3.23 -3.72,5.53 -1.67,2.05 -3.77,4.35 -6.41,6.99 -2.51,2.68 -4.47,5.15 -5.86,7.4 -2.47,3.69 -4.94,6.82 -7.2,9.42 -2.38,2.63 -4.26,4.82 -5.56,6.52 -1.71,1.51 -4.1,4.07 -7.03,7.83 -0.5,0.63 -1.13,1.55 -1.87,2.8 -0.84,1.3 -1.72,1.93 -2.76,2.05 -0.42,0.59 -1.26,0.43 -2.38,-0.45l-3.1 -3.27c-3.26,-3.56 -8.41,-8.66 -15.45,-15.23 -3.31,-3.1 -8.62,-7.57 -16.11,-13.6l-16.87 -13.52c-15.45,-11.46 -26.62,-19.97 -33.48,-25.48 -6.66,-5.36 -11.47,-9.37 -14.32,-12.27 -4.44,-3.93 -8.33,-7.15 -11.67,-9.7 -3.51,-2.55 -6.49,-4.82 -9.08,-6.87l-13.03 -10.42c0.34,2.59 0.34,5.23 0.18,7.87 -0.26,2.68 -0.26,4.6 0.17,5.86 3.76,29.01 9.79,72.48 18.25,130.36l8.83 62.48 4.65 27.83c0.42,3.64 -0.33,6.66 -2.22,8.91 -0.88,1.17 -2.51,2.27 -4.73,3.31l-3.59 0c-1.47,-1.17 -2.14,-1.97 -2.22,-2.47 1.38,-14.07 1.38,-28.04 0.17,-41.81 -1.21,-13.77 -3.43,-29.97 -6.52,-48.56l-3.77 -27.2c-2.55,-20.96 -5.65,-42.18 -9.34,-63.53l-5.68 -38c-0.26,-2.6 -0.84,-5.02 -1.59,-7.28 -0.79,-2.3 -1.47,-4.9 -2.02,-7.66l-10.55 22.81c-2.97,6.57 -7.53,13.77 -13.73,21.59 -12.05,14.95 -29.5,28.13 -52.4,39.6 -5.73,2.97 -11.46,4.69 -17.2,5.07 -5.68,0.33 -13.38,0.25 -22.85,-0.26 -16.11,-0.62 -34.27,-4.26 -54.44,-11 -17.17,-5.74 -43.32,-13.27 -78.47,-22.56 -18.71,-5.02 -36.29,-1.67 -52.9,10.17l-1.47 0.97z"/>
  <path class="fil1" d="M5701.53 5661.66c0.33,-3.39 2.76,-7.28 7.28,-11.64 4.47,-4.44 7.37,-7.24 8.74,-8.49l15.02 -17.07 9.93 -8.87c0.79,-0.76 2.34,-2.05 4.8,-3.86 2.35,-1.79 4.32,-2.93 5.86,-3.39 1.8,-0.28 3.35,0.26 4.69,1.55 1.3,1.34 2.35,2.85 3.26,4.57 0.88,1.67 1.72,2.92 2.51,3.76l10.38 13.01c2.3,2.98 5.9,6.9 10.8,11.97 6.24,6.28 15.45,15.32 27.88,26.95 12.34,11.64 21.67,20.68 27.87,27.04 7.2,7.87 18.41,19.62 33.61,35.28 16.53,16.95 42.02,42.6 76.5,76.96l35.23 33.82c8.24,7.4 14.32,13.06 18.16,17.04l9.72 8.36c0.75,0.79 1.96,1.76 3.59,2.98 1.72,1.21 2.68,2.47 2.93,3.76 -0.08,1.59 -0.71,3.56 -2.22,6.07 -1.47,2.42 -3.01,4.44 -4.65,5.98l-11.42 11.97c-2.22,2.6 -5.9,6.49 -11.21,11.64 -5.48,5.45 -9.72,9.25 -12.68,11.55l-3.51 3.46c-2.1,2.1 -3.99,3.39 -5.53,3.86 -2.63,0.5 -5.15,-0.58 -7.62,-3.43 -2.47,-2.73 -4.02,-4.52 -4.82,-5.31l-26.66 -27.38 -53.36 -54.77 -37.12 -38.13c-7.87,6.69 -19.12,17.15 -33.69,31.31 -8.74,8.49 -21.56,21.54 -38.51,39.09l-20.25 20.5c5.15,6.28 8.74,10.55 10.88,12.65l89.22 91.64c5.66,5.78 10.1,10.05 13.19,12.73 2.05,1.54 4.72,3.05 8.08,4.39 0.58,0 1.87,0.3 3.93,0.84 2.14,0.58 3.1,1.89 3.1,3.97 0,1.01 -0.55,2.6 -1.63,4.64 -1.06,2.1 -2.3,3.52 -3.61,4.32 -3.89,3.31 -9.45,8.99 -16.66,16.99 -3.18,4.1 -5.81,7.2 -7.95,9.25l-5.15 5.86c-1.89,1.76 -4.65,3.97 -8.33,6.52 -3.68,2.05 -6.61,3.18 -8.66,3.39 -2.14,0.25 -4.4,-0.96 -6.95,-3.61l-20.5 -21.01c-9,-9.79 -22.81,-24.19 -41.35,-43.26l-49.88 -51.94 -51.01 -51.57 -50.98 -50.85 -26.32 -25.4 -12.76 -12.3 -4.65 -3.97c-1.54,-1.59 -2.14,-3.56 -1.87,-5.91 0,-0.5 0.96,-2.47 2.84,-5.86 4.27,-5.18 7.53,-8.83 9.88,-11.21 4.02,-3.89 9.67,-8.87 17.12,-15.03 2.93,-2.85 8,-7.37 15.45,-13.51 2.34,-2.3 4.22,-3.86 5.56,-4.6 1.29,-0.79 2.59,-0.51 3.81,0.79 1.09,1.09 2.14,2.63 3.13,4.72 1.55,2.65 3.61,5.78 6.11,9.5 6.7,7.96 11.85,13.73 15.45,17.45 5.65,5.78 9.67,10.13 11.93,13.11 8.53,8.7 14.72,15.27 18.58,19.79 9.21,10.59 16.32,18.38 21.26,23.39 7.4,7.7 18.96,18.92 34.4,33.82 2.51,2.55 8,7.62 16.28,15.02l93.16 -90.81c-2.76,-4.98 -6.44,-9.83 -11.13,-14.65 -3.36,-3.43 -6.29,-6.23 -8.87,-8.33 -2.65,-2.14 -4.95,-3.93 -6.95,-5.56 -8.36,-6.41 -14.06,-11.55 -17.49,-15.53 -13.36,-15.32 -27.42,-30.51 -42.02,-45.58l-20.56 -20.25c-1.54,-1.59 -4.8,-4.57 -9.87,-8.91 -4.98,-4.4 -9.25,-8.59 -12.52,-12.52 -0.33,-0.25 -0.63,-1.17 -1.21,-2.76z"/>
  <path class="fil1" d="M5569.36 6076.69c-5.4,-7.07 -9.49,-12.27 -12.42,-15.56l-11.06 -14.65c-15.27,-22.22 -36.91,-43.61 -64.78,-64.12 -24.52,-17.2 -48.96,-28.83 -73.4,-34.98 -4.86,-1.42 -11.22,-1.72 -19.3,-0.66 -9.41,1 -18.08,4.52 -25.98,10.55 -10.97,8.2 -19.3,19.16 -25.03,33.01 -5.81,13.81 -7.37,26.57 -4.48,38.33 5.23,22.86 9.8,39.76 13.82,50.61 10.55,31.29 28.25,63.44 53.1,96.51 6.87,9.16 18,22.72 33.44,40.76 18.54,21.54 40.55,37.37 66.04,47.29 34.02,13.23 63.11,10.8 87.3,-7.45 10.88,-8.16 17.66,-15.53 20.13,-22.02 7.4,-20.83 10.2,-39.54 8.33,-56.16 -5.4,-34.27 -20.68,-68.05 -45.71,-101.44zm-232.76 146.22c-1.76,-2.6 -2.98,-4.4 -3.59,-5.28 -2.05,-2.14 -4.78,-5.4 -8.13,-9.83 -12.6,-16.82 -22.81,-37.16 -30.46,-60.89 -5.48,-15.27 -8.21,-35.7 -7.95,-61.26 0.08,-32.43 7.19,-60.15 21.26,-83.16 12.25,-21.21 26.91,-38.29 44.06,-51.14 17.08,-12.85 37.13,-21.89 59.98,-27.12 19.29,-4.35 36.08,-6.06 50.22,-5.1 14.11,0.38 31.69,3.81 52.7,10.21 33.01,8.86 61.72,28 86,57.29 3.69,4.19 8.84,10.71 15.45,19.59 19.04,25.4 31.47,49.3 37.29,71.69 8.66,33.69 7.91,67.71 -2.22,102.2 -9.95,35.23 -28.74,63.11 -56.16,83.79 -20.35,15.32 -45.53,26.61 -75.58,33.94 -9.67,2.63 -21.01,3.13 -34.27,1.51 -26.07,-2.1 -49.43,-7.17 -70.19,-15.07 -26.82,-10.43 -51.01,-28.51 -72.68,-54.2 -2.05,-2.17 -3.94,-4.52 -5.69,-7.15z"/>
  <path class="fil1" d="M5103.7 6573.37c-3.51,2 -6.44,3.23 -8.74,3.72 -2.6,0.63 -6.36,-3.35 -11.34,-12.02l-97.13 -168.99 -10.38 -17.12c-2.68,-3.97 -6.19,-9.79 -10.63,-17.45 -5.15,-9.04 -9.12,-17.53 -12.1,-25.65 -7.45,-21.26 -8.49,-41.72 -3.1,-61.4 11.14,-42.93 31.98,-75.41 62.28,-97.47 3.84,-2.97 10.08,-6.94 18.74,-11.89 35.2,-20.17 71.9,-25.15 109.98,-15.07 12.76,2.98 22.65,9.22 29.84,18.71l9.34 11.89c14.57,18.08 24.86,31.97 30.81,41.69 19.46,31.89 36.32,59.8 50.43,83.82 14.14,24.02 25.94,43.99 35.4,59.8 12.27,21.51 21.59,37.42 27.96,47.83l7.45 12.98 2.12 3.86c1.85,3.21 2.68,5.31 2.35,6.28 0.25,1.21 -0.08,2 -1.04,2.6l-12.27 7.62 -17.4 11.87c-7.79,4.35 -13.56,7.5 -17.58,9.42 -5.81,3.23 -10.13,5.31 -13.1,6.19 -3.1,0.51 -4.9,0.63 -5.36,0.55 -1.09,-0.3 -2.05,-1.26 -2.97,-2.85 -0.71,-1.29 -1.22,-3.1 -1.55,-5.48 -0.25,-2.38 -0.66,-4.31 -1.04,-5.81 -0.66,-3.43 -1.8,-6.57 -3.51,-9.45 -1.8,-4.02 -4.9,-9.75 -9.09,-17.08l-70.48 -124.37 -17.49 -30.76c-13.06,-22.77 -26.62,-42.65 -41.01,-59.52 -12.94,-16.03 -29.25,-25.61 -48.97,-28.83 -19.72,-3.19 -38.33,0.25 -55.99,10.29 -12.52,7.17 -24.19,15.74 -35.07,25.83 -18.38,19.04 -26.87,42.94 -25.24,71.77 1.72,21.6 7.33,40.84 17.08,57.88 8.74,15.36 22.05,37.91 39.97,67.71 13.97,22.27 27.29,44.53 40.13,67.05l26.16 46.91c4.72,8.29 9.54,14.52 14.47,18.49 1.3,0.93 3.36,2.05 5.94,3.31 2.63,1.26 4.73,2.51 6.32,3.69 1.54,1.29 1.92,2.75 1.21,4.47l-0.17 0.71c-0.66,1.21 -2.38,2.63 -5.23,4.27z"/>
  <path class="fil1" d="M4757.86 6606.6c6.86,4.31 13.73,10.46 20.67,18.29 -7.9,4.97 -12.97,10.71 -15.27,17.32 -2.22,6.52 -2.47,14.24 -0.76,23.1 1.42,5.07 2.38,8.46 3.14,10.18 3.56,8.49 9.04,14.69 16.32,18.66 7.28,3.94 15.18,5.69 23.81,5.23 11.09,-0.3 21.05,-2.3 29.97,-6.03 15.94,-6.77 28.87,-18.46 38.67,-35.03 3.51,-5.86 5.4,-12.93 5.48,-21.21 0.08,-8.29 -1.47,-16.32 -4.82,-24.19 -2.55,-6.11 -5.65,-11.01 -9.25,-14.7 -14.39,-15.15 -31.64,-23.73 -51.64,-25.61l-19.29 -1.51c-41.6,-3.68 -69.9,-6.52 -84.88,-8.66 -22.63,-3.26 -42.05,-8.45 -58.25,-15.65 -26.92,-12.3 -47.08,-32.15 -60.73,-59.64 -1.47,-3.48 -2.38,-6.07 -2.72,-7.91 -3.18,-33.94 3.84,-62.4 21.09,-85.25 8.83,-12.22 19.46,-22.3 31.89,-30.38 12.43,-8.04 27.2,-15.69 44.19,-22.9 38.42,-16.19 73.24,-25.32 104.5,-27.33 16.74,-1 32.18,2.68 46.16,11.14 14.06,8.58 24.11,20.08 30.35,34.77 3.1,7.45 5.07,15.83 5.78,25.11 0.33,10.33 -2.1,19.72 -7.33,28.08 -5.23,8.46 -12.09,14.48 -20.71,18.08 -11.51,4.85 -23.01,5.15 -34.49,0.79 -0.96,-0.38 -2.22,-1.51 -3.76,-3.26 7.27,-15.94 7.7,-31.56 1.25,-46.84 -3.05,-7.11 -7.78,-14.52 -14.22,-22.22 -9.09,-11.01 -19.29,-18.58 -30.68,-22.81 -11.34,-4.22 -23.61,-4.22 -36.62,0.13 -13.22,4.82 -23.18,8.62 -29.97,11.47 -9.92,4.22 -24.85,10.91 -44.98,20.25 -5.78,2.43 -10.3,8 -13.39,16.74 -3.1,8.71 -4.22,16.54 -3.35,23.36 1.64,10.58 3.18,17.53 4.65,20.93 1,2.34 1.87,3.97 2.63,4.85 6.44,7.73 12.35,14.06 17.66,18.99 5.31,4.98 11.26,9.09 17.82,12.35 23.94,11.14 50.26,17.41 78.94,18.92 20.67,0.5 37.29,1.16 49.97,2.09 12.55,0.84 25.23,2.6 37.91,5.23 18,3.69 33.36,10.21 45.91,19.72 12.6,9.45 22.02,21.38 27.96,35.65 4.35,10.21 6.94,22.56 7.87,37 1.38,37.5 -14.73,69.09 -48.21,94.92 -16.37,12.52 -30.84,21.47 -43.44,26.79 -13.94,5.9 -28.76,9.32 -44.36,10.33 -42.18,2.63 -72.28,-12.14 -90.23,-44.24 -1.26,-1.89 -2.65,-4.77 -4.19,-8.45 -5.56,-13.27 -6.11,-24.95 -1.64,-35.08 4.57,-10.17 12.6,-17.65 24.19,-22.55 4.73,-1.97 10.55,-3.48 17.41,-4.35 8.49,-0.79 16.11,0.96 22.98,5.31z"/>
  <path class="fil1" d="M4329.63 6866.94c-1.04,-0.88 -2.14,-3.31 -3.26,-7.15 -1.13,-3.94 -2.22,-9.17 -3.35,-15.74 -3.27,-14.06 -5.23,-24.64 -5.74,-31.8 -0.08,-0.33 -0.17,-1.25 -0.25,-2.75 -0.08,-1.55 0.59,-2.68 1.89,-3.48 2.14,-0.63 4.1,-0.63 5.81,0.04 3.44,1.34 6.7,4.02 9.8,8.13 16.77,22.09 40.88,29.54 72.19,22.34 12.02,-2.25 23.69,-5.1 35.07,-8.41l28.04 -8.61c5.94,-2.14 14.95,-4.9 26.95,-8.38 2.14,-0.63 4.1,-1.38 5.73,-2.25 1.72,-0.84 3.18,-1.67 4.48,-2.43l-47.46 -164.39c-1.59,0.04 -3.48,0.21 -5.65,0.46 -2.3,0.25 -4.69,0.71 -7.12,1.46 -12.42,3.61 -31.29,9.42 -56.57,17.53 -10.71,3.06 -17.17,6.7 -19.38,10.8 -2.25,4.1 -2.17,11.6 0.08,22.43l1.42 4.78c0.88,3.18 1.06,5.73 0.46,7.65 -0.55,1.89 -1.38,3.01 -2.5,3.35 -1.42,0.38 -2.98,0.05 -4.61,-1.04 -1.63,-1.04 -2.92,-2.6 -3.89,-4.6 -5.31,-13.1 -8.91,-22.98 -10.88,-29.72 -1.38,-4.6 -2.88,-11.29 -4.69,-20 -1.72,-8.71 -2.43,-15.28 -2.17,-19.5 -0.26,-2.25 0.33,-3.59 1.79,-3.97 1.04,-0.33 2.27,0.38 3.77,2.05 1.38,1.72 2.6,3.39 3.43,5.07 4.48,8.71 8.41,14.02 11.84,15.9 3.44,1.93 8.84,1.76 16.24,-0.37l58.38 -17.5 17.58 -5.02c-1.72,-8.71 -3.1,-14.9 -4.19,-18.42 -2.85,-9.95 -7.49,-24.73 -13.97,-44.36 -4.31,-12.6 -7.49,-22.05 -9.29,-28.46l-21.09 -68.84 -5.31 -16.32c-1.89,0.13 -3.77,0.3 -5.65,0.46 -1.8,0.12 -3.86,0.5 -5.99,1.17l-72.32 20.83 -36.19 10.51c-7.79,2.25 -15.94,6.49 -24.53,12.85 -11.84,9.59 -16.99,20.25 -15.52,32.14 0.08,5.36 -0.93,8.92 -2.73,10.59 -0.55,0.55 -1.38,1.04 -2.42,1.29 -3.61,1.01 -6.87,-1.09 -10.01,-6.32 -1.38,-2.34 -2.84,-5.9 -4.22,-10.91 -1.54,-5.31 -2.55,-9.25 -2.88,-11.8l-1.3 -10.63c-0.53,-1.76 -0.71,-3.06 -0.53,-3.86 0.04,-1.17 0.79,-2.09 2.34,-2.72 1.55,-0.66 2.72,-1.01 3.43,-1.26l6.7 -2.51c31.22,-9.08 62.32,-18.03 93.11,-26.91 30.89,-8.91 61.85,-18.08 93.03,-27.5l45.2 -13.05c5.31,-1.51 9.04,-1.14 11.26,1.08 2.22,2.27 3.86,5.15 5.07,8.62 1.26,3.48 2.05,6.16 2.63,7.95 1.14,2.68 2.51,6.11 4.07,10.3 1.59,4.14 3.21,8.92 4.69,14.24 13.31,41.84 25.99,83.74 38.08,125.68l12.76 44.06 25.83 89.4c5.4,18.79 9.62,32.77 12.68,41.89 0.62,2.14 2.34,5.48 5.23,10 0.08,0.38 0.71,1.26 1.84,2.63 1.17,1.39 1.97,2.6 2.22,3.69 1.17,3.89 -1.64,6.86 -8.41,8.83l-12.6 4.19c-2.76,1.21 -6.62,2.51 -11.51,3.94l-212.86 61.47 -8.66 1.97c-2.72,0 -4.52,-0.3 -5.4,-0.76z"/>
  <path class="fil1" d="M3752.72 6823.24l-11.93 13.56c-7.62,7.91 -13.38,14.95 -17.49,21.09 -6.07,9.29 -10.55,19.72 -13.48,31.44 -1.26,4.47 -1.64,9.16 -1.42,13.93 0.75,11.09 6.07,21.85 15.94,32.31 5.56,5.52 11.31,8.11 17.15,7.73 5.58,-0.37 10.72,-3.26 15.58,-8.78 10.38,-10.68 15.1,-23.49 14.19,-38.64l-1.14 -17.7c-2.22,-16.87 -7.98,-35.15 -17.4,-54.95zm-59.77 -204.85c53.24,50.63 95.08,106.09 125.56,166.27 2.12,-1.59 5.81,-4.73 11.04,-9.3 5.23,-4.6 9.5,-9.08 12.76,-13.6 3.18,-4.48 5.4,-9.12 6.61,-13.97 5.86,-23.31 8.24,-44.37 7.03,-63.19 -0.58,-8.79 -1.8,-16.92 -3.77,-24.19 -7.7,-32.81 -27.95,-52.23 -60.88,-58.22 -13.48,-2.5 -27.08,-3.26 -40.73,-2.47 -6.95,0.51 -12.35,1.06 -15.94,1.64 -17.33,2.17 -31.14,7.87 -41.69,17.04zm-219.63 45.78c-2.5,0.17 -3.93,-0.93 -4.06,-3.1 -0.08,-1.84 0.46,-4.19 1.8,-6.82 1.64,-3.76 4.65,-8.2 9.12,-13.26 4.52,-5.2 7.78,-9.04 9.83,-11.77 7.83,-10.17 15.07,-18.74 21.59,-25.81 16.66,-17.37 37,-26.83 60.94,-28.34 12.93,-0.79 26.49,0.51 40.8,4.07 18.38,4.35 36.87,12.25 55.33,23.6l14.9 8 23.69 -20.96c27.29,-23.94 58.59,-37.04 93.99,-39.3 6.32,-0.42 15.36,-0.21 27.25,0.46 28.25,1.92 51.47,15.4 69.72,40.51 15.45,21.59 24.02,45.99 25.83,73.28 0.53,9.21 0.33,19.8 -0.76,31.67 -2.22,17.55 -9.16,33.52 -20.84,47.93 -20.84,26.11 -44.44,41.85 -70.76,47.25 -0.76,0.08 -3.61,1 -8.66,2.85 1.71,3.89 3.35,8.66 4.72,14.06 4.48,12.3 8.08,21.51 10.63,27.62 4.4,10.84 7.03,22.52 7.83,35.07 0.93,14.32 -1.21,29.47 -6.52,45.38 -5.66,16.23 -14.78,28.83 -27.55,37.83 -12.76,8.96 -26.82,13.93 -42.35,14.9 -5.86,0.33 -12.6,-0.13 -20,-1.51 -15.07,-3.1 -27.62,-10.55 -37.8,-22.23 -10.2,-11.76 -15.78,-24.82 -16.66,-39.21 -0.66,-9.96 0.79,-19.17 4.32,-27.45 3.51,-8.38 8.91,-16.87 16.11,-25.45 10.3,-12.9 21.42,-26.16 33.52,-39.88 -26.83,-37.55 -47.5,-66.12 -62.11,-85.92l-2.97 14.57 -4.82 19.17c-4.39,18.83 -8.24,33.48 -11.67,44.06 -6.79,20.43 -17.75,36.12 -32.77,47.05 -14.98,10.91 -33.36,17.11 -55.12,18.53 -13.23,0.84 -24.86,-2.22 -34.73,-9.16 -9.88,-6.95 -16.49,-16.66 -19.88,-29.01 -2.09,-9.45 -3.35,-16.79 -3.56,-21.93 -1.26,-19.16 4.39,-35.45 17.07,-48.88 12.65,-13.35 28.21,-20.63 46.59,-21.76 6.61,-0.46 12.43,-0.13 17.32,1.08 9.72,1.93 18.33,7.03 25.66,15.23 7.37,8.24 11.21,17.12 11.46,26.79 -1.16,0.08 -2.63,0 -4.52,-0.28 -1.87,-0.26 -3.35,-0.51 -4.47,-0.81 -3.77,-1.63 -8.08,-2.3 -12.85,-1.96 -5.23,0.28 -9.72,1.96 -13.64,5.02 -3.86,3.06 -6.7,7.2 -8.58,12.52 -4.82,11.76 -6.19,24.06 -4.32,36.87 0.79,6.23 2.93,11.01 6.54,14.31 3.51,3.26 7.82,4.73 12.97,4.44 3.69,-0.2 7.7,-1.59 11.93,-4.09 14.98,-9.85 25.53,-23.31 31.8,-40.35 3.43,-10.55 7.78,-26.41 13.1,-47.46 1.72,-7.87 3.94,-19.62 6.61,-35.36 0.68,-2.25 0.79,-5.23 0.59,-8.91 -0.51,-7.37 -3.69,-14.19 -9.67,-20.46 -30.18,-32.1 -64.91,-51.19 -104.12,-57.17 -7.03,-1.04 -14.73,-1.26 -22.81,-0.79 -18.08,1.17 -34.65,7.28 -49.84,18.16 -6.41,4.52 -11.44,6.86 -15.16,7.15z"/>
  <path class="fil1" d="M3157.74 6575.78c0.68,0.88 0.51,1.72 -0.38,2.72l-4.26 6.16c-1.72,4.19 -2.89,8.28 -3.48,12.3 -0.88,3.23 -1.47,7.45 -1.84,12.65 -0.43,5.14 -0.84,9.37 -1.34,12.63 -2.85,19.37 -6.74,48.51 -11.72,87.25 -1.17,8.08 -2.55,20.21 -4.19,36.37 -1.34,16.19 -3.1,32.22 -5.4,47.91l-3.43 23.52 -14.24 92.48c-0.58,4.06 -1.04,9.8 -1.38,17.2 0.08,4.48 0,7.83 -0.33,10.08 -0.08,0.68 -0.17,1.8 -0.25,3.27 0,1.46 -0.51,2.72 -1.34,3.76 -1.67,1.21 -4.57,1.51 -8.54,0.96 -3.43,0.21 -7.28,-0.08 -11.67,-0.88 -4.32,-0.88 -7.28,-1.34 -8.71,-1.59l-29.5 -4.94c-5.15,-0.71 -9.12,-1.51 -11.97,-2.22 -5.23,-2.68 -7.66,-5.48 -7.2,-8.38 0.17,-1.13 0.79,-2.72 1.84,-4.77 1.09,-2.09 1.89,-4.02 2.56,-5.78 1.54,-3.13 2.59,-6.36 3.1,-9.67 1.87,-7.9 3.18,-14.11 3.81,-18.45 0.66,-4.78 1.46,-12.27 2.22,-22.6l2.55 -21.47c5.73,-38.71 10.55,-72.61 14.44,-101.74 3.94,-29.09 7.12,-53.36 9.59,-72.73l7.53 -58.76 6.61 -45c-2.47,-0.71 -5.02,-1.51 -7.53,-2.22 -2.47,-0.71 -5.07,-1.29 -7.57,-1.63 -40.56,-6.03 -70.94,-10.1 -91.16,-12.35 -9.16,-1.01 -21.67,0.21 -37.42,3.48 -9.16,1.63 -15.56,6.82 -19.12,15.65 -2.8,6.66 -6.06,9.75 -9.75,9.25 -4.73,-0.71 -6.66,-3.97 -5.81,-9.88 1.04,-4.31 2.93,-10.75 5.65,-19.34 0.38,-2.5 1.21,-5.94 2.63,-10.2 0.25,-1.89 0.96,-2.85 2.1,-3.06 0.45,-0.3 1,-0.33 1.71,0 0.71,0.3 1.26,0.25 1.67,-0.08 2.18,0.33 4.07,0.46 5.53,0.3l10 0.88 168.91 23.73 34.02 4.47c1.14,0.18 3.94,0.81 8.41,1.77 4.57,1.08 8.51,2.75 11.89,5.15 2.02,1.33 2.98,2.67 2.76,3.76z"/>
  <path class="fil1" d="M2711.57 6714.53c2.35,-8.58 3.89,-15.02 4.69,-19.41l4.86 -17.66c8.15,-25.66 11.79,-55.83 10.91,-90.56 -1.38,-29.85 -7.19,-56.34 -17.37,-79.35 -1.76,-4.69 -5.52,-9.92 -11.21,-15.69 -6.57,-6.74 -14.65,-11.47 -24.27,-14.06 -13.19,-3.61 -27,-3.48 -41.47,0.46 -14.44,3.84 -25.45,10.5 -33.03,19.95 -14.85,18.13 -25.4,32.15 -31.56,41.9 -18.2,27.53 -32.77,61.31 -43.64,101.19 -3.01,11.04 -6.95,28.16 -11.72,51.34 -5.69,27.91 -4.69,54.95 3.1,81.24 10.33,34.98 30.13,56.41 59.3,64.37 13.23,3.59 23.14,4.39 29.8,2.38 21.05,-6.87 37.58,-16.12 49.5,-27.83 23.77,-25.28 41.09,-58.05 52.1,-98.27zm-258.18 -94.29c1.06,-2.97 1.67,-5.02 1.97,-6.06 0.42,-2.98 1.39,-7.12 2.81,-12.43 5.52,-20.3 15.35,-40.81 29.37,-61.44 8.74,-13.73 23.26,-28.29 43.56,-43.86 25.7,-19.75 51.94,-31.18 78.81,-34.11 24.19,-3.35 46.75,-2.22 67.38,3.48 20.63,5.56 40.05,15.86 58.18,30.76 15.32,12.6 26.91,24.77 34.82,36.44 8.36,11.52 16.44,27.46 24.22,48.01 13.19,31.47 15.66,65.88 7.45,103.03 -1.09,5.45 -3.1,13.52 -5.98,24.24 -8.46,30.59 -19.72,55.07 -33.86,73.4 -21.26,27.55 -48.64,47.8 -82.07,60.89 -33.94,13.69 -67.51,15.94 -100.61,6.95 -24.6,-6.74 -49.01,-19.67 -73.24,-38.96 -7.95,-5.99 -15.27,-14.73 -22.14,-26.12 -14.27,-21.89 -24.65,-43.44 -31.09,-64.74 -8.16,-27.5 -8.79,-57.71 -1.72,-90.61 0.43,-2.93 1.17,-5.94 2.14,-8.87z"/>
  <path class="fil1" d="M2032.45 6650.01c-3.72,-1.55 -6.49,-3.14 -8.24,-4.65 -2.1,-1.67 -1.26,-7.07 2.55,-16.32l74.37 -180.25 7.12 -18.62c1.54,-4.56 3.93,-10.96 7.32,-19.12 4.02,-9.5 8.33,-17.95 12.93,-25.23 12.27,-18.92 27.8,-32.23 46.59,-40.01 40.84,-17.45 79.3,-20.84 115.25,-10.3 4.69,1.22 11.67,3.64 20.88,7.5 37.5,15.61 63.91,41.56 79.19,77.93 5.48,11.84 6.61,23.56 3.43,34.98l-3.68 14.69c-5.4,22.55 -10.13,39.12 -14.15,49.88 -13.3,34.82 -25.1,65.25 -35.48,91.11 -10.38,25.86 -18.92,47.42 -25.66,64.62 -9.5,22.81 -16.44,39.97 -20.75,51.39l-5.74 13.77 -1.71 4.06c-1.39,3.43 -2.6,5.31 -3.56,5.73 -0.76,0.88 -1.67,1.09 -2.65,0.71l-13.56 -5.07 -20.04 -6.52c-8.16,-3.39 -14.24,-6.11 -18.25,-8.11 -6.12,-2.56 -10.38,-4.73 -12.81,-6.54 -2.35,-2.17 -3.59,-3.51 -3.76,-4.01 -0.43,-1.01 -0.26,-2.3 0.45,-4.02 0.51,-1.34 1.72,-2.88 3.39,-4.57 1.72,-1.71 3.01,-3.13 3.94,-4.39 2.25,-2.6 4.06,-5.45 5.31,-8.58 2.05,-3.86 4.72,-9.8 8,-17.66l55.32 -131.74 13.61 -32.69c10.13,-24.22 17.4,-47.16 22.05,-68.88 4.73,-20.01 2.3,-38.8 -7.2,-56.29 -9.5,-17.58 -23.64,-30.22 -42.39,-38.04 -13.27,-5.53 -27.21,-9.5 -41.77,-11.97 -26.37,-2.93 -50.48,5.03 -72.32,23.9 -16.03,14.56 -27.8,30.84 -35.33,48.88 -6.82,16.36 -16.53,40.73 -29.17,73.06 -9.04,24.62 -18.53,48.89 -28.41,72.78l-21.18 49.39c-3.68,8.83 -5.65,16.44 -5.86,22.73 0.13,1.63 0.51,3.89 1.13,6.77 0.59,2.85 0.89,5.28 0.89,7.24 -0.05,2.02 -0.97,3.23 -2.76,3.64l-0.71 0.34c-1.34,0.2 -3.48,-0.26 -6.57,-1.51z"/>
  <path class="fil1" d="M1657.27 6443.45c-0.42,1.67 -0.96,2.93 -1.84,3.72 -0.55,1.01 -1.55,1.26 -3.06,0.83 -2.25,-0.42 -4.22,-1.13 -5.81,-2 -4.19,-2.43 -6.95,-5.02 -8.24,-7.91 -0.76,-1.67 -0.76,-3.18 -0.05,-4.47 0.88,-1.59 2.48,-3.23 4.73,-4.98 2.27,-1.72 3.97,-3.23 5.18,-4.69 2.18,-3.01 4.48,-6.7 6.92,-11.01 2.5,-4.31 4.18,-7.28 5.1,-8.87l67.22 -121.74 89.89 -161.67 4.77 -9.37c1.42,-2.63 2.76,-4.19 3.89,-4.82 2.43,-1.13 5.03,-0.96 7.96,0.71 1.92,1.09 3.13,2.6 3.72,4.65 1.84,6.52 2.88,12.47 3.26,17.75l35.2 267.75 7.62 66.17c0.38,3.18 2.34,20.63 5.94,52.39 0.33,3.19 1.54,12.15 3.76,27.04l2.02 13.19c1.63,-2.89 2.97,-5.03 3.89,-6.37 1.04,-1.33 1.67,-2.38 2.05,-2.97l97.47 -172.68 49.47 -85.91 12.25 -21.69c1.89,-3.18 3.1,-6.56 3.77,-9.95 0.2,-1.13 0.28,-2.6 0.2,-4.35 -0.08,-1.67 0.3,-3.64 1.09,-5.73 1.21,-2.27 3.14,-3.56 5.65,-3.86 2.51,-0.25 4.98,0.08 7.37,1.09 1.92,1.09 3.97,2.63 6.24,4.77 1.51,1.72 2.38,2.93 2.63,3.72 0.17,0.75 -0.42,2.43 -1.89,4.98 -1.29,2.25 -3.84,6.11 -7.78,11.46 -3.56,4.82 -6.11,8.46 -7.57,11.06l-134.63 238.08c-3.26,5.82 -7.28,12.6 -12.14,20.21 -4.77,7.7 -8.54,13.56 -11.17,17.53 -3.94,5.48 -6.62,9.42 -8.13,11.97 -3.55,5.61 -6.99,8.58 -10.08,8.96 -3.18,0.3 -7.91,-1.17 -14.22,-4.31l-39.01 -20.89 -1.01 -0.53c-2.22,-1.26 -3.81,-2.81 -4.69,-4.6 -0.91,-1.8 -1.59,-4.48 -2.05,-8.16l-15.9 -112.25 -28.67 -207.33 -2.8 -13.01 -25.45 44.75c-43.11,77.42 -75.29,135.55 -96.55,174.47 -1.25,2.25 -3.1,7.37 -5.56,15.32 -0.3,0.66 -0.63,1.8 -0.96,3.56z"/>
  <path class="fil1" d="M1480.63 6058.46c-1.42,-0.63 -2.93,-1.67 -4.56,-3.1 -1.72,-1.46 -2.85,-2.47 -3.43,-2.93l-13.65 -9.5c-11.21,-8.36 -19.62,-14.98 -25.35,-19.7l-5.31 -3.97c-2.38,-1.77 -3.19,-4.02 -2.56,-6.79 -0.12,-1.01 0.3,-2.25 1.47,-3.72 0.83,-1.26 2.47,-2.76 4.85,-4.69 4.1,-4.27 10.05,-10.93 17.75,-19.92 5.31,-7.07 9.12,-12.52 11.46,-16.32 6.07,-9.34 12.6,-18.03 19.59,-26.16 2.51,-2.68 5.86,-6.9 10.1,-12.52l18.49 -25.56 3.59 -4.85c3.36,-4.44 6.32,-6.87 8.92,-7.2 1.84,0 3.35,0.42 4.56,1.29 1.51,1.09 2.81,2.68 4.02,4.77 1.26,2.02 2,3.48 2.38,4.24 3.39,5.31 7.32,9.62 11.72,12.88 5.94,4.44 12.52,7.07 19.75,7.91 21.56,3.23 40.76,11.17 57.58,23.77 7.75,5.81 14.06,11.46 19.09,17.04 6.61,7.78 15.02,18.45 25.15,32.01 17.04,22.94 24.69,49.22 23.14,79.02 -3.26,50.55 -19.12,94.75 -47.46,132.58 -2.88,3.84 -7.95,9.95 -15.15,18.41 -7.11,7.58 -14.47,13.77 -22.26,18.62 -35.62,24.02 -68.94,38.08 -100.03,41.97 -21.67,3.14 -42.48,2.51 -62.35,-1.76 -26.41,-5.94 -49.55,-16.36 -69.3,-31.18 -20.13,-15.07 -36.08,-34.15 -47.8,-57.3 -9.83,-18.91 -12.8,-37.95 -9.04,-57.25 2.47,-10.58 6.49,-19.67 12.05,-26.99 8.58,-11.59 20.17,-19.25 34.62,-23.18 14.47,-3.94 27.82,-3.56 40.09,0.96 3.31,1.13 6.49,2.85 9.37,4.97 8.92,6.66 14.24,15.83 16.07,27.63 1.8,11.67 -0.75,22.6 -7.78,32.55 -5.73,-1.08 -10.08,-2 -13.1,-2.84 -9.8,-2.31 -18.96,-2.05 -27.38,0.91 -8.41,2.89 -15.43,8.21 -21.26,15.86 -7.78,10.38 -9.32,23.48 -4.6,39.42 4.35,15.78 11.97,27.71 22.9,35.96 7.37,5.52 16.79,9.08 28.04,10.63 22.6,3.05 42.02,-0.43 58.25,-10.34 10.18,-6.23 17.88,-10.63 23.06,-13.22 13.01,-6.32 24.6,-14.65 34.62,-24.9 9.95,-10.3 20.75,-23.14 32.22,-38.51l14.11 -17.83c9.75,-13.01 18.16,-24.44 25.1,-34.44 7.03,-9.96 12.86,-18.29 17.41,-25.03 5.65,-8.71 10.05,-15.27 13.35,-19.75 10.76,-15.48 16.54,-36.79 17.37,-63.74 0.08,-5.07 -1.79,-11.8 -5.6,-20.17 -8.04,-19.47 -20.18,-33.82 -36.24,-43.11 -4.9,-2.72 -11.51,-4.94 -19.93,-6.61 -10.12,-2.55 -18.41,0.46 -24.85,9.08l-9.59 12.81 -39.21 52.27 -19.63 26.21c-2.38,3.21 -3.76,6.82 -3.97,10.83 0.17,1.04 0.75,2.76 1.72,5.11 1.04,2.38 1.04,3.93 0.04,4.52 -0.17,0.28 -1.04,0.58 -2.6,0.83z"/>
  <path class="fil1" d="M980.59 5902.3c0.26,-1.3 1.77,-3.44 4.6,-6.29 2.81,-3.01 6.79,-6.56 11.93,-10.83 10.5,-9.88 18.74,-16.82 24.65,-20.89 0.28,-0.2 1.08,-0.75 2.34,-1.54 1.3,-0.84 2.65,-0.88 3.94,-0.13 1.59,1.59 2.51,3.23 2.8,5.07 0.63,3.64 -0.08,7.87 -2.09,12.6 -10.76,25.53 -5.23,50.1 16.66,73.66 7.95,9.29 16.24,18.03 24.73,26.19l21.51 19.97c4.82,4.14 11.76,10.55 20.71,19.21 1.64,1.59 3.23,2.81 4.82,3.86 1.59,1 3.06,1.92 4.35,2.68l118.73 -123.26c-0.75,-1.26 -1.84,-2.8 -3.21,-4.64 -1.3,-1.8 -2.89,-3.56 -4.78,-5.36 -9.32,-8.99 -23.76,-22.47 -43.43,-40.3 -7.96,-7.7 -14.32,-11.55 -19.05,-11.47 -4.69,0.08 -11.13,3.86 -19.37,11.34l-3.43 3.61c-2.3,2.38 -4.44,3.81 -6.41,4.22 -1.97,0.42 -3.31,0.25 -4.1,-0.5 -1.04,-1.06 -1.54,-2.51 -1.46,-4.52 0.08,-1.93 0.75,-3.86 2.05,-5.69 8.66,-11.13 15.43,-19.25 20.33,-24.24 3.31,-3.51 8.33,-8.11 14.98,-14.01 6.7,-5.82 11.97,-9.75 15.86,-11.64 1.8,-1.34 3.26,-1.47 4.27,-0.51 0.79,0.79 0.84,2.22 0.08,4.35 -0.71,2.05 -1.59,3.94 -2.63,5.53 -5.31,8.16 -7.95,14.22 -7.87,18.16 0.04,3.89 2.88,8.54 8.49,13.94l44.24 41.85 13.18 12.72c6.66,-5.9 11.26,-10.17 13.86,-12.8 7.15,-7.45 17.7,-18.87 31.51,-34.28 8.66,-10.04 15.28,-17.53 19.92,-22.3l49.14 -52.6 11.51 -12.76c-1.04,-1.51 -2.09,-3.1 -3.18,-4.6 -1.04,-1.55 -2.43,-3.11 -4.02,-4.65l-54.24 -52.27 -27.12 -26.16c-5.81,-5.61 -13.6,-10.51 -23.39,-14.82 -14.14,-5.48 -26.03,-4.6 -35.57,2.6 -4.65,2.72 -8.16,3.68 -10.55,2.97 -0.76,-0.25 -1.55,-0.75 -2.4,-1.54 -2.63,-2.6 -2.42,-6.54 0.59,-11.77 1.26,-2.38 3.68,-5.4 7.28,-9.12 3.84,-3.97 6.77,-6.77 8.87,-8.41l8.45 -6.44c1.3,-1.29 2.38,-2.09 3.1,-2.38 1.09,-0.55 2.22,-0.25 3.56,0.71 1.34,1.04 2.27,1.8 2.85,2.34l5.48 4.52c23.44,22.56 46.7,45.03 69.85,67.3 23.1,22.3 46.49,44.57 70.15,66.84l33.94 32.73c3.93,3.81 5.52,7.19 4.64,10.25 -0.83,3.06 -2.55,5.9 -4.9,8.74 -2.47,2.73 -4.34,4.82 -5.6,6.16 -1.76,2.38 -4.07,5.31 -6.87,8.71 -2.8,3.46 -6.15,7.19 -10,11.21 -29.67,32.4 -59.6,64.24 -89.9,95.63l-31.89 33.11 -64.53 66.96c-13.6,14.11 -23.56,24.77 -29.97,31.94 -1.54,1.54 -3.59,4.72 -6.11,9.5 -0.25,0.28 -0.66,1.25 -1.29,2.97 -0.63,1.72 -1.34,2.93 -2.09,3.76 -2.85,2.89 -6.79,1.97 -11.85,-2.92l-9.92 -8.84c-2.38,-1.76 -5.43,-4.44 -9.16,-8.03l-159.53 -153.76 -5.99 -6.57c-1.29,-2.3 -2,-3.97 -2.05,-5.02z"/>
  <path class="fil1" d="M736.73 4922.67c1.51,0.37 3.05,1.67 4.64,3.97 1.64,2.22 2.73,3.84 3.26,4.77l6.74 8.91c3.19,4.57 7.58,11.39 13.14,20.56 5.78,9.41 9.92,16.66 12.52,21.54 1.13,1.89 1.72,3.18 1.67,3.89 0,0.59 -0.71,1.64 -2.14,2.85l-7.4 3.86 -11.59 6.44 -23.19 14.15c-11.34,6.9 -28.46,17.78 -51.44,32.6 -22.3,14.52 -39.34,25.27 -50.96,32.43 -43.53,26.44 -91.9,57.04 -145.18,91.65 34.14,-4.35 73.66,-10.05 118.61,-17.17l131.82 -20 65.28 -9.92 32.9 -4.52 16.24 -2.1c0.84,-0.08 2.35,-0.08 4.52,-0.12 2.09,0 3.72,0.88 4.9,2.76 0.55,1 1.38,2.97 2.22,5.81 -0.13,1.89 -1.39,4.77 -3.69,8.79l-143.46 200.96c-12.3,17.41 -31.22,43.44 -56.87,78.06 -5.4,8.07 -8.58,14.27 -9.34,18.61l46.84 -28.45c94.07,-59.14 165.35,-103.62 213.68,-133.55 5.36,-3.26 9.63,-6.19 12.81,-8.78 3.18,-2.56 5.9,-5.61 8.08,-9.09 0.42,-0.75 1.01,-1.8 1.54,-3.31 0.68,-1.42 1.39,-2.38 2.14,-2.88 0.84,-0.46 1.97,-0.55 3.48,-0.17 1.72,0.71 4.22,2.63 7.45,5.86 0.93,0.75 1.92,2.05 3.1,3.97 1.17,1.89 2.18,4.31 3.06,7.15 0.83,2.14 0.96,3.56 0.37,4.35 -0.58,0.79 -2.04,1.46 -4.26,2 -1.47,0.43 -3.27,0.68 -5.41,0.68 -2.22,0 -3.84,0.12 -4.97,0.42 -1.17,0.25 -2.47,0.88 -4.1,1.8 -102.07,62.27 -178.7,108.76 -229.59,139.36 -29.34,17.88 -51.36,31.06 -66.04,39.55l-6.66 4.02c-3.77,2.38 -6.62,3.38 -8.41,3.21 -4.6,0.21 -9.09,-3.13 -13.27,-10.08 -5.77,-9.45 -9.92,-16.61 -12.5,-21.59l-12.23 -21.09c-1.71,-2.81 -2.47,-5.45 -2.3,-7.96 0.26,-2.55 1.39,-5.27 3.44,-8.24l76.08 -112.53 81.16 -116.92 8.28 -14.11c-1.38,-0.08 -3.26,-0.33 -5.81,-1.01 -2.55,-0.63 -4.57,-0.71 -6.03,-0.2l-215.24 31.97 -36.82 5.56 -18.87 3.1 -10.08 1.55c-0.79,0.08 -1.8,0.25 -2.93,0.5 -1.13,0.3 -2.38,0.33 -3.69,0.3 -1.38,-0.05 -2.67,-1.17 -4.06,-3.39l-5.23 -9.72c-3.51,-4.35 -6.41,-9.12 -8.71,-14.22l-8.91 -14.65 -4.52 -6.36c-2.09,-3.48 -2.38,-6.03 -0.88,-7.83 0.55,-1.21 2.22,-2.68 5.1,-4.44 2.76,-2.5 4.73,-4.18 5.99,-4.97 3.56,-3.44 7.37,-6.41 11.51,-8.92 31.43,-20 79.43,-50.1 144.01,-90.35l126.85 -81.24c5.73,-3.48 9.92,-6.23 12.5,-8.28 1.09,-1.04 2.73,-3.01 4.86,-5.82 2.17,-2.85 3.93,-4.22 5.23,-4.22 0.33,-0.17 0.58,-0.13 0.79,0.21z"/>
  <path class="fil1" d="M469.11 4868.88c8.16,-3.48 14.24,-6.19 18.16,-8.24l16.83 -7.12c25.23,-9.59 51.22,-25.36 77.92,-47.5 22.6,-19.59 39.76,-40.46 51.65,-62.73 2.59,-4.31 4.34,-10.46 5.4,-18.49 1.21,-9.38 -0.08,-18.71 -4.02,-27.83 -5.31,-12.56 -13.97,-23.36 -25.99,-32.31 -12.01,-8.96 -24.02,-13.43 -36.11,-13.51 -23.44,-0.51 -40.97,-0.17 -52.4,1.08 -32.98,2.81 -68.43,12.18 -106.55,28.34 -10.5,4.44 -26.36,11.97 -47.58,22.52 -25.48,12.85 -46.08,30.38 -61.94,52.68 -21.05,29.8 -25.66,58.64 -13.89,86.47 5.31,12.59 10.88,20.88 16.61,24.85 18.38,12.3 35.87,19.5 52.48,21.72 34.57,3.01 71.02,-3.59 109.44,-19.92zm-85.66 -261.11c2.97,-1.09 4.98,-1.8 6.03,-2.27 2.55,-1.46 6.41,-3.3 11.47,-5.48 19.41,-8.2 41.51,-13.13 66.49,-14.9 16.16,-1.63 36.57,0.71 61.31,7.08 31.44,7.95 56.67,21.51 75.59,40.71 17.62,17.04 30.63,35.41 38.99,55.12 8.38,19.72 12.31,41.35 11.8,64.83 -0.37,19.79 -2.8,36.41 -7.15,49.88 -3.81,13.64 -11.39,29.88 -22.68,48.71 -16.57,29.88 -42.02,53.11 -76.34,69.6 -4.98,2.51 -12.55,5.98 -22.72,10.25 -29.25,12.39 -55.46,18.67 -78.64,18.84 -34.78,0.28 -67.58,-8.62 -98.56,-26.75 -31.8,-18.28 -54.36,-43.18 -67.75,-74.78 -9.96,-23.48 -14.82,-50.63 -14.73,-81.61 -0.17,-9.95 2.14,-21.09 6.86,-33.52 8.33,-24.82 18.87,-46.33 31.6,-64.52 16.57,-23.49 39.92,-42.61 70.13,-57.33 2.56,-1.55 5.36,-2.85 8.29,-3.86z"/>
  <path class="fil1" d="M309.35 4448.2c8.54,-2.34 14.9,-4.22 19.09,-5.73l17.66 -4.82c26.32,-5.98 54.19,-18.08 83.66,-36.41 25.07,-16.36 44.9,-34.73 59.64,-55.12 3.18,-3.94 5.78,-9.79 7.91,-17.66 2.5,-9.04 2.47,-18.45 -0.18,-28.03 -3.59,-13.23 -10.71,-25.07 -21.34,-35.58 -10.66,-10.46 -22.01,-16.57 -33.98,-18.33 -23.14,-3.69 -40.56,-5.65 -52.07,-5.99 -33.01,-1.76 -69.47,2.76 -109.35,13.52 -11.09,3.01 -27.78,8.28 -50.26,15.9 -26.91,9.22 -49.8,23.86 -68.43,43.79 -24.94,26.66 -33.48,54.57 -25.56,83.78 3.56,13.18 7.91,22.1 13.01,26.91 16.57,14.62 32.9,24.15 49.09,28.59 33.82,7.7 70.86,6.06 111.11,-4.82zm-49.34 -270.39c3.1,-0.66 5.15,-1.08 6.24,-1.38 2.76,-1.13 6.77,-2.43 12.14,-3.89 20.3,-5.53 42.93,-7.37 67.88,-5.74 16.24,0.63 36.11,5.74 59.8,15.45 30.05,12.14 53.15,28.96 69.35,50.6 15.15,19.22 25.53,39.22 31.13,59.85 5.56,20.68 6.54,42.6 2.85,65.79 -3.1,19.59 -7.7,35.73 -13.81,48.5 -5.69,12.98 -15.36,28.09 -29.09,45.16 -20.5,27.37 -48.88,46.87 -85.12,58.59 -5.28,1.79 -13.27,4.19 -23.94,7.07 -30.64,8.24 -57.46,10.96 -80.4,8 -34.53,-4.44 -65.88,-17.75 -94.12,-40.01 -28.96,-22.35 -47.91,-50.1 -56.87,-83.24 -6.66,-24.56 -7.83,-52.19 -3.52,-82.77 1.14,-9.93 4.98,-20.68 11.39,-32.4 11.59,-23.35 24.98,-43.28 40.05,-59.64 19.59,-20.96 45.36,-36.7 77.3,-47.2 2.76,-1.17 5.65,-2.1 8.74,-2.73z"/>
  <path class="fil1" d="M413.94 3969.87c-0.33,-8.11 -0.75,-13.89 -1.13,-17.15 -1.13,-8.41 -3.86,-20.51 -8.16,-36.32 -10.42,-42.61 -37.25,-69.77 -80.51,-81.65 -3.48,-1.01 -6.95,-2.14 -10.26,-3.39 -3.35,-1.21 -6.74,-2.34 -10.2,-3.39 -13.82,-3.05 -25.03,-5.05 -33.74,-6.15 -10.58,-1.21 -20.88,-1.39 -30.84,-0.46 -9.87,0.96 -24.02,2.6 -42.3,5.02 -21.93,3.27 -43.28,10.93 -64.04,22.98 -11.84,6.36 -22.63,14.27 -32.35,23.77 -9.75,9.45 -19.54,20.63 -29.37,33.48 -6.7,8.71 -11.34,18.54 -14.02,29.47 -2.63,10.96 -4.14,23.6 -4.52,37.75 -0.63,12.05 -0.59,20.96 0.17,26.79 0.75,5.48 2.51,11.84 5.27,18.87l356.02 -49.6zm-350.66 124.3c-1.21,-0.96 -2.09,-2.35 -2.51,-4.15 -0.42,-1.84 -0.66,-3.05 -0.75,-3.76 -2.1,-10.17 -3.48,-17.87 -4.19,-22.98 -4.73,-24.65 -7.87,-43.28 -9.54,-55.74 -3.77,-28.83 -4.95,-54.78 -3.52,-77.67 2.02,-36.04 11.34,-67.05 28.04,-93.08 15.2,-22.9 35.45,-41.35 60.81,-55.5 20.5,-11.26 42.1,-18.33 64.82,-21.34 20.84,-2.72 44.91,-2.22 72.23,1.63 30.76,4.24 59.52,19.55 86.51,46.17 24.4,23.98 42.98,56.24 55.74,96.62 7.45,22.81 13.56,52.43 18.29,88.59l2.55 19.25c0.38,2.55 0.88,5.23 1.64,7.87 0.71,2.76 1.26,5.53 1.63,8.42 0.63,4.47 0.38,8.36 -0.66,11.87 -0.42,2.27 -2.14,3.61 -5.07,3.99 -1.47,0.2 -3.43,0.17 -5.86,-0.08 -2.47,-0.26 -4.27,-0.43 -5.4,-0.63 -3.68,0.08 -9.21,0.63 -16.53,1.59 -6.95,0.88 -12.27,1.79 -15.87,2.63l-15.27 2.6c-122.2,16.77 -214.15,29.62 -275.96,38.5 -2.93,0.38 -7.28,1.3 -13.01,2.85 -5.78,1.47 -9.96,2.43 -12.48,2.72 -2.22,0.26 -4.09,0.18 -5.65,-0.37z"/>
  <path class="fil1" d="M120.54 3467.01c-6.61,4.65 -14.9,8.71 -24.82,12.1 -1.54,-9.25 -4.94,-16.16 -10.13,-20.71 -5.23,-4.52 -12.25,-7.75 -21.13,-9.55 -5.2,-0.66 -8.71,-1 -10.59,-1.04 -9.16,0.08 -16.99,2.73 -23.43,7.95 -6.41,5.2 -11.06,11.93 -13.94,20.05 -3.97,10.38 -5.94,20.38 -5.9,29.97 0.12,17.33 6.03,33.69 17.53,49.17 4.09,5.45 9.95,9.92 17.53,13.19 7.62,3.21 15.65,4.8 24.14,4.72 6.62,0 12.35,-0.91 17.12,-2.88 19.5,-7.5 34.02,-20.13 43.44,-37.96l8.74 -17.2c19.38,-37.07 32.86,-62.15 40.48,-75.08 11.67,-19.67 23.89,-35.65 36.74,-47.91 21.64,-20.05 47.8,-31.18 78.43,-33.28 3.69,0 6.44,0.18 8.29,0.55 32.6,10.1 56.11,27.46 70.76,52.07 7.83,12.88 13.06,26.62 15.78,41.14 2.68,14.56 4.1,31.09 4.22,49.55 0.34,41.72 -4.56,77.42 -14.69,107 -5.48,15.91 -14.77,28.67 -27.95,38.42 -13.27,9.67 -27.8,14.6 -43.66,14.72 -8.16,0.05 -16.66,-1.38 -25.53,-4.26 -9.62,-3.61 -17.32,-9.47 -23.1,-17.55 -5.78,-8.07 -8.71,-16.74 -8.74,-25.94 -0.08,-12.55 4.01,-23.35 12.5,-32.22 0.68,-0.79 2.14,-1.51 4.35,-2.27 11.89,12.81 26.21,19.17 42.78,19.04 7.78,-0.08 16.44,-1.54 26.03,-4.6 13.64,-4.18 24.52,-10.71 32.81,-19.62 8.24,-8.92 12.85,-20.21 13.84,-33.86 0.63,-14.02 0.93,-24.78 0.89,-32.14 -0.09,-10.72 -0.55,-27.17 -1.47,-49.35 -0.08,-6.23 -3.51,-12.47 -10.38,-18.74 -6.86,-6.16 -13.64,-10.21 -20.33,-12.02 -10.3,-2.47 -17.33,-3.72 -21.06,-3.68 -2.6,0 -4.44,0.21 -5.52,0.58 -9.59,2.98 -17.66,6.03 -24.32,9 -6.62,3.01 -12.68,6.99 -18.21,11.8 -19.42,17.87 -35.28,39.75 -47.67,65.7 -8.36,18.87 -15.36,34.02 -21.01,45.25 -5.61,11.34 -12.05,22.39 -19.42,33.15 -10.2,15.23 -22.09,26.87 -35.73,34.85 -13.61,8.08 -28.17,12.14 -43.69,12.23 -11.06,0.12 -23.39,-2.18 -37.13,-6.92 -35.15,-13.01 -58.3,-40 -69.3,-80.89 -5.31,-19.92 -7.98,-36.66 -8.11,-50.35 -0.08,-15.15 2.38,-30.08 7.45,-44.9 13.73,-40.01 38.88,-62.15 75.38,-66.5 2.22,-0.33 5.4,-0.53 9.41,-0.58 14.4,-0.13 25.49,3.94 33.06,11.92 7.62,8.08 11.47,18.38 11.55,30.93 0.08,5.2 -0.84,11.09 -2.63,17.79 -2.47,8.11 -7.12,14.56 -13.69,19.16z"/>
  <path class="fil1" d="M183.92 2834.89c-7.37,3.35 -16.28,5.78 -26.66,7.28 0.21,-9.37 -1.84,-16.82 -6.03,-22.27 -4.31,-5.43 -10.63,-9.92 -18.96,-13.31 -5.02,-1.63 -8.41,-2.63 -10.25,-2.97 -9,-1.64 -17.25,-0.55 -24.49,3.39 -7.28,3.93 -13.14,9.57 -17.5,17.02 -5.81,9.5 -9.67,18.87 -11.38,28.38 -3.1,17.04 -0.43,34.24 8.03,51.56 3.01,6.2 7.91,11.55 14.77,16.24 6.87,4.6 14.48,7.7 22.81,9.25 6.52,1.13 12.35,1.26 17.41,0.38 20.55,-3.81 37.2,-13.52 49.75,-29.22l11.89 -15.32c25.86,-32.77 43.77,-54.87 53.69,-66.21 15.2,-17.12 30.18,-30.46 45.08,-40.18 25.07,-15.68 52.77,-21.67 83.23,-18.03 3.61,0.66 6.32,1.38 8.13,2.05 30.05,16.03 50,37.5 59.67,64.4 5.28,14.11 7.96,28.59 7.83,43.36 -0.05,14.9 -1.72,31.34 -5.07,49.5 -7.53,41.06 -18.96,75.16 -34.44,102.33 -8.38,14.64 -19.92,25.48 -34.7,32.55 -14.82,7.03 -30,9.12 -45.61,6.32 -8,-1.51 -16.07,-4.47 -24.27,-8.99 -8.74,-5.36 -15.23,-12.56 -19.42,-21.56 -4.14,-9 -5.45,-18.04 -3.72,-27.12 2.22,-12.4 8.33,-22.18 18.25,-29.3 0.88,-0.63 2.47,-1.04 4.82,-1.42 9.29,14.82 22.09,23.77 38.41,26.7 7.66,1.47 16.41,1.59 26.37,0.33 14.22,-1.51 26.16,-5.86 35.99,-13.1 9.7,-7.24 16.36,-17.45 19.92,-30.76 3.23,-13.64 5.53,-24.11 6.86,-31.39 1.89,-10.5 4.52,-26.74 7.79,-48.71 1.08,-6.07 -1.09,-12.9 -6.7,-20.3 -5.61,-7.4 -11.51,-12.6 -17.7,-15.65 -9.7,-4.4 -16.41,-6.9 -20,-7.58 -2.56,-0.46 -4.4,-0.58 -5.53,-0.42 -10,1.13 -18.49,2.6 -25.61,4.31 -7.03,1.72 -13.73,4.44 -20.05,8.13 -22.43,13.93 -42.14,32.52 -59.14,55.66 -11.79,16.99 -21.42,30.5 -29.12,40.55 -7.62,10.05 -16.03,19.72 -25.23,28.87 -12.93,13.06 -26.79,22.22 -41.6,27.62 -14.9,5.36 -30,6.62 -45.2,3.81 -10.88,-1.92 -22.63,-6.56 -35.23,-13.68 -32.14,-19.42 -49.77,-50.26 -52.9,-92.45 -1.51,-20.59 -1.04,-37.58 1.42,-50.98 2.72,-14.94 7.95,-29.17 15.65,-42.77 21.01,-36.75 49.85,-53.78 86.51,-51.19 2.22,0.05 5.4,0.43 9.37,1.14 14.15,2.63 24.24,8.61 30.22,17.95 6.03,9.29 7.88,20.17 5.61,32.52 -0.93,5.1 -2.93,10.71 -5.9,16.9 -4.02,7.58 -9.72,12.98 -17.08,16.32z"/>
  <path class="fil1" d="M528.82 2534.87c2.51,0.79 4.1,1.84 4.78,3.21 0.25,0.46 0.58,1.3 1,2.6 0,5.03 -1.09,11.06 -3.21,18.13l-5.86 17.32 -7.28 19.8c-0.63,2.14 -1.39,3.43 -2.35,3.93 -1,0.84 -3.81,0.55 -8.41,-0.83 -4.69,-1.04 -8.71,-2.22 -12.01,-3.39 -3.26,-1.17 -5.99,-2.17 -8.13,-2.76 -38.08,-10.5 -76.04,-21.51 -113.83,-33.06 -8.58,-2.25 -21.14,-5.9 -37.71,-10.96l-58.88 -18 -119.15 -36.41c-3.51,8.99 -5.56,14.52 -6.24,16.66 -5.68,18.71 -10.12,32.6 -13.3,41.69 -3.27,10.55 -4.6,19.87 -4.24,27.91 0.46,8.03 4.1,15.45 10.93,22.17l0.38 0.71c-0.33,1.01 -2.02,2.35 -4.98,3.94 -2.97,1.59 -5.27,2.55 -6.9,2.85l-3.18 -1.01c-6.07,-1.87 -9.92,-4.35 -11.64,-7.53 -1.72,-3.3 -1.13,-9.45 1.64,-18.71l59.97 -194.14c5.07,-16.62 9.09,-29.09 12.05,-37.45l5.65 -18.51c1.64,-5.31 3.61,-9.08 6.03,-11.26 2.38,-2.14 6.74,-2.25 13.1,-0.33 5.31,1.59 10.34,4.69 15.15,9.29l-0.28 2.76c-0.71,2.47 -1.97,4.14 -3.61,5.03 -1.59,0.88 -3.18,1.41 -4.8,1.71 -1.64,0.25 -2.85,0.42 -3.69,0.63 -10.21,1.89 -17.28,8.03 -21.26,18.38 -8.96,29.34 -15.45,51.26 -19.5,65.83 -1,3.14 -1.42,5.18 -1.34,6.03 0.3,0.46 0.84,0.71 1.55,0.75 0.79,0 1.34,0.13 1.67,0.18 2.22,0.33 4.1,0.79 5.61,1.46 1.54,0.66 2.88,1.13 3.93,1.47l19.09 5.81c16.61,5.07 29.12,8.74 37.7,11.01 21.22,6.44 53.16,15.86 95.72,28.03l96.13 28.21 55.12 16.9 26.99 8.21 7.62 1.76z"/>
  <path class="fil1" d="M354.27 1963.68c1.26,-0.28 3.81,0.43 7.53,2.1 3.72,1.63 8.46,4.06 14.24,7.45 12.88,6.44 22.3,11.76 28.08,15.9 0.33,0.13 1.13,0.71 2.35,1.59 1.16,0.93 1.67,2.18 1.41,3.69 -0.88,2.05 -2.17,3.48 -3.76,4.39 -3.18,1.84 -7.32,2.63 -12.47,2.38 -27.75,-1.26 -48.8,12.47 -63.36,41.19 -5.99,10.66 -11.31,21.51 -16.04,32.26l-11.21 27.17c-2.17,5.9 -5.78,14.57 -10.84,26.07 -0.91,2.05 -1.54,3.97 -1.96,5.81 -0.38,1.84 -0.71,3.51 -1.01,5.02l156.81 68.6c0.93,-1.17 2.02,-2.73 3.27,-4.61 1.21,-1.87 2.3,-4.01 3.38,-6.36 5.15,-11.84 12.73,-30.08 22.77,-54.7 4.4,-10.17 5.78,-17.45 4.07,-21.84 -1.72,-4.35 -7.5,-9.09 -17.37,-14.19l-4.52 -2c-3.01,-1.34 -5.11,-2.89 -6.24,-4.57 -1.04,-1.67 -1.38,-3.01 -0.93,-4.02 0.63,-1.33 1.85,-2.34 3.72,-2.92 1.89,-0.59 3.86,-0.59 6.03,-0.09 13.48,4.32 23.39,7.83 29.8,10.64 4.48,1.96 10.51,5.02 18.38,9.24 7.83,4.27 13.26,7.87 16.41,10.88 1.87,1.17 2.55,2.48 1.92,3.86 -0.46,1.01 -1.8,1.51 -3.97,1.59 -2.27,0 -4.31,-0.17 -6.16,-0.63 -9.5,-2.14 -16.11,-2.51 -19.75,-1.04 -3.68,1.38 -7.02,5.61 -10.13,12.72l-23.93 56.09 -7.37 16.74c7.87,4.22 13.43,7.07 16.82,8.58 9.5,4.1 23.86,10.05 43.1,17.62 12.48,4.69 21.72,8.29 27.8,10.96l66.46 27.88 15.94 6.41c1.04,-1.59 2.14,-3.1 3.18,-4.65 1.09,-1.55 2.14,-3.35 2.98,-5.4l30.22 -68.97 15.1 -34.49c3.26,-7.4 5.15,-16.49 5.82,-27.07 0.2,-15.23 -4.73,-26.03 -14.82,-32.48 -4.14,-3.43 -6.28,-6.41 -6.36,-8.83 -0.08,-0.84 0.12,-1.76 0.58,-2.8 1.46,-3.36 5.23,-4.57 11.21,-3.48 2.68,0.28 6.32,1.54 11.09,3.59 5.07,2.18 8.75,4.02 10.93,5.4l8.96 5.69c1.72,0.79 2.85,1.42 3.31,2.09 0.91,0.79 1.13,2.02 0.58,3.61 -0.5,1.59 -0.88,2.72 -1.13,3.38l-2.38 6.87c-13.06,29.72 -26.04,59.34 -38.92,88.76 -12.85,29.42 -25.66,59.05 -38.34,88.98l-18.91 43.15c-2.22,5.07 -4.85,7.73 -8,7.98 -3.14,0.26 -6.41,-0.28 -9.87,-1.59 -3.44,-1.38 -6.07,-2.38 -7.75,-3.1 -2.85,-0.88 -6.36,-1.96 -10.59,-3.46 -4.22,-1.42 -8.87,-3.31 -13.93,-5.49 -40.68,-16.61 -80.99,-33.6 -120.91,-51.09l-42.1 -18.46 -85.25 -37.33c-17.88,-7.87 -31.34,-13.51 -40.3,-16.99 -2.02,-0.91 -5.69,-1.71 -11.01,-2.47 -0.33,-0.13 -1.39,-0.21 -3.18,-0.21 -1.89,0.05 -3.27,-0.2 -4.27,-0.63 -3.77,-1.63 -4.19,-5.65 -1.39,-12.09l4.82 -12.43c0.84,-2.85 2.3,-6.61 4.4,-11.34l88.89 -202.93 3.97 -7.91c1.71,-2 3.13,-3.26 4.09,-3.64z"/>
  <path class="fil1" d="M645.42 1787.41l-22.22 -1.63c-4.94,-0.33 -15.53,-1.14 -31.72,-2.38 -16.28,-1.26 -31.8,-2.05 -46.66,-2.22l112.95 159.07 86.72 -146.19c-22.85,-2 -55.87,-4.19 -99.07,-6.66zm24.2 170.84l43.23 61.77c1.08,1 2.47,2.85 4.18,5.4 1.72,2.47 3.44,4.44 5.2,5.94l1.89 1.08c4.14,2.48 8.45,3.52 12.93,3.19 0.33,0.2 0.83,0.25 1.51,0.25 0.63,-0.05 1.04,0.17 1.17,0.66 0.28,0.21 0.2,0.76 -0.38,1.72l-2.1 4.6 -2.59 5.48c-0.43,0.66 -1.14,2.27 -2.27,4.85 -1.04,2.55 -2.42,3.72 -4.1,3.61l-0.45 -0.26c-1.55,-0.91 -3.06,-2.3 -4.27,-4.14 -1.3,-1.84 -2.18,-3.1 -2.6,-3.81l-6.77 -9.21 -225.46 -324.34c-1.08,-1.09 -1.33,-2.05 -0.79,-3.1 1.34,-2.18 5.94,-3.52 13.94,-3.94l76.67 4.27 99.65 5.69 130.94 9.41 65.5 4.73c6.24,0.3 15.48,1.09 27.62,2.22 1.68,0.17 3.9,0.68 6.87,1.55 0.33,0.12 1.42,0.5 3.26,0.96 1.89,0.46 2.76,1.51 2.6,3.18l-2.68 6.69 -5.35 12.3c-3.64,6.87 -9.55,17.17 -17.63,30.81l-9.32 15.69c-0.17,0.3 -0.63,1.21 -1.3,2.72 -0.66,1.59 -1.67,1.97 -2.93,1.21l-0.5 -0.25c-0.96,-0.63 -1.59,-1.29 -1.97,-2.17 -0.33,-0.84 -0.96,-1.55 -1.97,-2.1 -1.54,-1.79 -3.72,-3.1 -6.61,-4.01 -2.76,-1.17 -7.45,-2.02 -13.97,-2.43l-86.64 -3.81c-2.17,0.05 -5.9,0.21 -11.26,0.46l-90.15 151.92c1.68,2.25 3.99,6.03 6.92,11.17z"/>
  <path class="fil1" d="M1168.84 1406.02c0,0 1.26,-0.46 3.81,-1.21 -3.01,7.95 -7.58,15.69 -13.52,23.18 -11.51,14.44 -26.49,23.31 -45.12,26.45 -4.89,0.83 -11.92,2.25 -21.13,4.39l-25.07 4.82c-22.02,2.76 -47.3,-1.01 -75.84,-11.42 -14.52,-5.45 -28.25,-8.49 -41.22,-9.09 -12.97,-0.66 -25.65,1.89 -38.12,7.5 -14.32,6.11 -25.16,13.81 -32.48,22.97 -4.39,5.53 -7.95,12.35 -10.68,20.55 20.93,17.63 36.62,30.56 47,38.8 27.88,23.14 49.05,40.38 63.44,51.85l15.2 12.14c2,1.59 5.53,3.43 10.5,5.4 0.26,0.28 1.93,0.71 5.07,1.26 3.06,0.58 4.69,1.67 4.85,3.18l-0.58 1.67 -0.46 2.42c-0.58,1.85 -1.29,3.94 -2.09,6.12 -3.1,7.49 -7.58,14.77 -13.48,21.84 -5.86,7.12 -9.62,11.72 -11.26,13.73l-3.1 3.86c-2.76,3.46 -5.15,5.6 -7.12,6.36l-5.73 1.89c-1.55,0.17 -2.76,-0.13 -3.69,-0.84 -0.79,-0.66 -1.92,-2 -3.18,-3.97l-5.81 -5.99c-1.21,-1.41 -2.63,-3.05 -4.31,-4.85 -1.64,-1.76 -3.77,-3.68 -6.41,-5.73l-237.08 -188.57 -5.18 -4.19c-1.55,-1.64 -3.99,-3.81 -7.5,-6.61 -2.6,-2.1 -4.6,-3.39 -5.94,-3.99 -2.76,-1.29 -5.53,-2 -8.16,-2.25 -0.79,-0.21 -2.42,0 -4.85,0.38 -2.47,0.37 -3.94,-0.3 -4.39,-2.05 -0.21,-3.97 1.25,-8.46 4.39,-13.56 0.58,-1.39 1.84,-3.23 3.64,-5.53 1.67,-2 3.72,-4.39 6.32,-6.99 2.59,-2.72 4.56,-5.15 5.85,-7.4 2.48,-3.72 4.86,-6.87 7.2,-9.55 2.35,-2.55 4.19,-4.77 5.56,-6.52 1.64,-1.51 3.99,-4.1 6.95,-7.87 0.5,-0.59 1.13,-1.47 1.89,-2.81 0.75,-1.25 1.63,-1.96 2.72,-2.04 0.46,-0.59 1.26,-0.43 2.43,0.5l3.1 3.18c3.26,3.59 8.49,8.66 15.53,15.2 3.26,3.05 8.66,7.53 16.11,13.56l16.95 13.43c15.52,11.39 26.69,19.8 33.64,25.36 6.61,5.27 11.46,9.29 14.39,12.14 4.35,3.89 8.29,7.2 11.72,9.67 3.43,2.5 6.49,4.72 9.09,6.82l12.97 10.33c-0.25,-2.55 -0.28,-5.18 -0.08,-7.87 0.25,-2.63 0.17,-4.6 -0.25,-5.9 -3.84,-28.97 -10.13,-72.36 -18.83,-130.24l-9.12 -62.4 -4.73 -27.87c-0.42,-3.64 0.3,-6.62 2.09,-8.92 0.93,-1.17 2.55,-2.25 4.77,-3.26l3.56 -0.04c1.42,1.13 2.18,2 2.22,2.47 -1.26,14.11 -1.21,28 0.08,41.81 1.3,13.77 3.52,29.92 6.7,48.51l3.89 27.15c2.68,21.01 5.86,42.15 9.62,63.53l5.91 37.96c0.28,2.6 0.88,5.02 1.63,7.32 0.79,2.27 1.42,4.82 2.05,7.62l10.38 -22.88c2.97,-6.62 7.49,-13.86 13.69,-21.6 11.92,-15.1 29.37,-28.36 52.22,-39.88 5.69,-3.05 11.42,-4.72 17.2,-5.14 5.69,-0.38 13.31,-0.34 22.81,0.12 16.11,0.59 34.24,4.14 54.44,10.76 17.2,5.65 43.41,13.05 78.64,22.22 18.67,4.94 36.29,1.46 52.78,-10.42 1,-0.59 1.51,-0.93 1.51,-0.93z"/>
  <path class="fil1" d="M1269 1316.48c-0.25,3.38 -2.63,7.32 -7.11,11.67 -4.48,4.44 -7.41,7.28 -8.71,8.54l-15.03 17.11 -9.87 8.92c-0.79,0.83 -2.35,2.09 -4.73,3.89 -2.38,1.8 -4.31,3.01 -5.9,3.48 -1.84,0.2 -3.39,-0.3 -4.69,-1.59 -1.26,-1.3 -2.38,-2.85 -3.31,-4.57 -0.88,-1.67 -1.72,-2.97 -2.51,-3.72l-10.5 -13.06c-2.27,-2.84 -5.86,-6.77 -10.76,-11.79 -6.28,-6.29 -15.53,-15.23 -28,-26.87 -12.47,-11.59 -21.8,-20.55 -28,-26.87 -7.24,-7.87 -18.49,-19.63 -33.77,-35.11 -16.57,-16.87 -42.18,-42.43 -76.92,-76.67l-35.28 -33.61c-8.36,-7.32 -14.39,-12.97 -18.28,-16.99l-9.72 -8.24c-0.79,-0.83 -2,-1.79 -3.72,-3.01 -1.63,-1.17 -2.63,-2.42 -2.88,-3.72 0,-1.54 0.75,-3.59 2.17,-6.11 1.42,-2.42 2.98,-4.44 4.57,-5.98l11.46 -12.02c2.14,-2.63 5.82,-6.49 11.09,-11.67 5.53,-5.45 9.72,-9.29 12.6,-11.64l3.56 -3.51c2.09,-2.09 3.94,-3.39 5.53,-3.86 2.67,-0.5 5.14,0.63 7.62,3.39 2.42,2.76 4.06,4.57 4.85,5.31l26.82 27.25 53.53 54.52 37.25 37.88c7.95,-6.74 19.12,-17.2 33.61,-31.39 8.66,-8.58 21.42,-21.67 38.29,-39.25l20.17 -20.58c-5.15,-6.32 -8.79,-10.55 -10.88,-12.65l-89.68 -91.19c-5.69,-5.81 -10.08,-10 -13.18,-12.68 -2.1,-1.54 -4.82,-3.05 -8.21,-4.35 -0.5,0 -1.8,-0.28 -3.89,-0.79 -2.09,-0.58 -3.14,-1.87 -3.14,-3.97 0,-1.09 0.55,-2.63 1.64,-4.64 1.04,-2.1 2.22,-3.52 3.59,-4.35 3.89,-3.31 9.42,-9.04 16.57,-17.04 3.14,-4.19 5.78,-7.28 7.91,-9.37l5.11 -5.78c1.87,-1.8 4.6,-4.02 8.28,-6.66 3.68,-2.05 6.57,-3.18 8.62,-3.43 2.14,-0.26 4.44,0.96 7.02,3.55l20.59 20.97c9.09,9.75 22.9,24.06 41.52,43.06l50.13 51.69 51.22 51.34 51.31 50.56 26.41 25.32 12.76 12.27 4.69 3.97c1.55,1.55 2.18,3.51 1.92,5.81 0.05,0.55 -0.96,2.51 -2.8,5.91 -4.19,5.18 -7.53,8.96 -9.83,11.26 -4.02,3.84 -9.67,8.91 -16.99,15.15 -2.98,2.8 -8.04,7.4 -15.45,13.56 -2.3,2.34 -4.19,3.89 -5.48,4.69 -1.34,0.75 -2.63,0.46 -3.89,-0.84 -1.09,-1.08 -2.1,-2.67 -3.1,-4.77 -1.59,-2.55 -3.64,-5.73 -6.19,-9.42 -6.7,-7.9 -11.93,-13.64 -15.53,-17.32 -5.69,-5.81 -9.72,-10.17 -12.02,-13.1 -8.53,-8.67 -14.77,-15.23 -18.62,-19.72 -9.32,-10.5 -16.44,-18.28 -21.34,-23.26 -7.53,-7.7 -19.04,-18.79 -34.57,-33.61 -2.63,-2.6 -8.08,-7.62 -16.36,-15.03l-92.78 91.29c2.8,4.97 6.52,9.83 11.21,14.56 3.36,3.39 6.37,6.24 9,8.29 2.5,2.14 4.9,3.97 6.94,5.56 8.33,6.36 14.15,11.46 17.5,15.4 13.48,15.28 27.53,30.43 42.32,45.41l20.58 20.17c1.55,1.55 4.85,4.52 9.92,8.92 5.03,4.26 9.25,8.49 12.6,12.42 0.25,0.21 0.63,1.14 1.13,2.73z"/>
  <path class="fil1" d="M1397.99 901.82c5.4,7.02 9.59,12.22 12.52,15.48l11.06 14.6c15.43,22.1 37.16,43.4 65.2,63.78 24.57,17.08 49.09,28.63 73.57,34.53 4.8,1.51 11.21,1.72 19.29,0.71 9.34,-1.09 18,-4.65 25.94,-10.71 10.88,-8.24 19.17,-19.34 24.9,-33.15 5.69,-13.86 7.12,-26.66 4.22,-38.38 -5.31,-22.85 -10.04,-39.72 -14.06,-50.56 -10.8,-31.18 -28.63,-63.31 -53.69,-96.26 -6.9,-9.04 -18.13,-22.6 -33.61,-40.51 -18.62,-21.46 -40.71,-37.16 -66.29,-46.99 -34.06,-13.06 -63.06,-10.46 -87.22,7.87 -10.83,8.28 -17.57,15.65 -20,22.18 -7.37,20.84 -10.05,39.59 -8.08,56.2 5.56,34.2 21.01,67.98 46.24,101.2zm231.98 -147.4c1.76,2.6 2.97,4.35 3.68,5.23 2.05,2.14 4.77,5.35 8.08,9.79 12.76,16.74 23.06,37.04 30.89,60.77 5.56,15.23 8.28,35.61 8.24,61.14 0.04,32.43 -6.9,60.18 -20.84,83.36 -12.14,21.22 -26.74,38.38 -43.77,51.31 -17.04,12.98 -37.04,22.1 -59.9,27.42 -19.32,4.47 -35.98,6.23 -50.13,5.43 -14.14,-0.37 -31.8,-3.72 -52.77,-9.95 -33.06,-8.75 -61.82,-27.71 -86.3,-56.92 -3.64,-4.14 -8.83,-10.68 -15.52,-19.5 -19.17,-25.23 -31.77,-49.09 -37.71,-71.52 -8.83,-33.56 -8.28,-67.63 1.67,-102.15 9.88,-35.25 28.46,-63.28 55.74,-84.04 20.35,-15.45 45.45,-26.82 75.46,-34.4 9.59,-2.63 21.01,-3.21 34.22,-1.67 26.07,2 49.52,6.9 70.31,14.77 26.82,10.21 51.11,28.17 72.86,53.82 2.09,2.09 4.06,4.48 5.78,7.12z"/>
  <path class="fil1" d="M1862.36 402.15c3.51,-2.05 6.39,-3.26 8.7,-3.76 2.65,-0.59 6.41,3.3 11.39,12.01l97.93 168.57 10.46 16.95c2.72,3.97 6.32,9.79 10.75,17.49 5.11,8.96 9.22,17.45 12.18,25.58 7.58,21.21 8.71,41.64 3.43,61.26 -10.96,43.07 -31.59,75.67 -61.85,97.81 -3.81,2.97 -10.04,7.03 -18.66,12.01 -35.15,20.3 -71.82,25.49 -109.98,15.53 -12.73,-2.85 -22.73,-9.04 -29.88,-18.49l-9.37 -11.84c-14.69,-18 -25.03,-31.9 -31.01,-41.65 -19.63,-31.64 -36.54,-59.51 -50.86,-83.53 -14.22,-23.94 -26.15,-43.82 -35.73,-59.64 -12.35,-21.39 -21.72,-37.29 -28.13,-47.67l-7.49 -12.98 -2.22 -3.81c-1.8,-3.23 -2.6,-5.27 -2.38,-6.32 -0.21,-1.13 0.17,-2 1.13,-2.5l12.22 -7.7 17.4 -11.93c7.58,-4.52 13.48,-7.62 17.5,-9.54 5.78,-3.31 10.13,-5.45 13.01,-6.24 3.14,-0.5 4.95,-0.75 5.45,-0.58 1.04,0.3 1.97,1.26 2.93,2.85 0.71,1.26 1.26,3.1 1.59,5.43 0.2,2.38 0.63,4.35 1.04,5.78 0.71,3.43 1.89,6.57 3.56,9.5 1.89,3.97 4.94,9.7 9.21,17.04l70.94 124.04 17.74 30.71c13.06,22.69 26.83,42.45 41.27,59.27 13.05,15.94 29.42,25.53 49.12,28.63 19.72,3.05 38.34,-0.42 55.91,-10.59 12.48,-7.19 24.11,-15.86 34.95,-25.86 18.33,-19.21 26.7,-43.19 24.98,-72.02 -1.84,-21.56 -7.62,-40.84 -17.4,-57.8 -8.84,-15.28 -22.31,-37.83 -40.26,-67.5 -14.11,-22.18 -27.58,-44.45 -40.51,-66.84l-26.36 -46.84c-4.78,-8.24 -9.63,-14.39 -14.53,-18.41 -1.38,-0.93 -3.35,-2 -6.03,-3.26 -2.63,-1.26 -4.72,-2.47 -6.31,-3.69 -1.55,-1.25 -1.93,-2.67 -1.22,-4.44l0.18 -0.71c0.62,-1.21 2.38,-2.63 5.23,-4.31z"/>
  <path class="fil1" d="M2207.08 367.7c-6.82,-4.27 -13.77,-10.3 -20.76,-18.21 7.91,-4.98 12.93,-10.71 15.15,-17.32 2.22,-6.54 2.43,-14.27 0.68,-23.14 -1.39,-5.03 -2.43,-8.41 -3.14,-10.18 -3.64,-8.45 -9.12,-14.6 -16.41,-18.53 -7.32,-3.94 -15.27,-5.61 -23.89,-5.11 -11.14,0.34 -21.06,2.38 -29.88,6.16 -15.94,6.9 -28.84,18.58 -38.54,35.2 -3.51,5.9 -5.28,13.05 -5.36,21.26 -0.08,8.28 1.55,16.36 4.9,24.11 2.63,6.15 5.73,11.04 9.34,14.73 14.47,15.02 31.8,23.56 51.81,25.35l19.29 1.42c41.6,3.39 69.93,6.16 84.83,8.21 22.65,3.13 42.1,8.24 58.47,15.32 26.91,12.18 47.24,31.97 60.98,59.39 1.46,3.43 2.38,6.03 2.75,7.87 3.31,33.99 -3.59,62.45 -20.63,85.38 -8.87,12.22 -19.42,22.43 -31.84,30.51 -12.35,8.11 -27.04,15.81 -43.95,23.13 -38.41,16.41 -73.15,25.7 -104.37,27.83 -16.87,1.14 -32.22,-2.47 -46.29,-10.91 -14.06,-8.46 -24.22,-19.97 -30.46,-34.53 -3.21,-7.45 -5.18,-15.86 -5.98,-25.19 -0.38,-10.26 2.05,-19.59 7.28,-28.09 5.18,-8.45 12.01,-14.47 20.5,-18.16 11.51,-4.89 23.06,-5.23 34.57,-0.96 0.96,0.42 2.22,1.47 3.77,3.23 -7.25,15.94 -7.58,31.56 -1.01,46.87 3.05,7.12 7.78,14.48 14.31,22.18 9.09,10.96 19.38,18.45 30.81,22.6 11.38,4.18 23.56,4.06 36.62,-0.3 13.18,-4.85 23.14,-8.71 29.97,-11.64 9.83,-4.27 24.77,-11.04 44.85,-20.46 5.82,-2.42 10.21,-8.08 13.27,-16.82 3.05,-8.74 4.14,-16.57 3.21,-23.36 -1.71,-10.5 -3.26,-17.49 -4.72,-20.88 -0.97,-2.38 -1.97,-4.06 -2.68,-4.9 -6.52,-7.62 -12.43,-13.97 -17.75,-18.91 -5.31,-4.9 -11.29,-9 -17.91,-12.22 -23.98,-10.97 -50.35,-17.12 -79.06,-18.51 -20.63,-0.42 -37.25,-1.04 -49.84,-1.84 -12.65,-0.83 -25.28,-2.5 -38.04,-5.07 -18,-3.51 -33.31,-10 -45.99,-19.46 -12.73,-9.45 -22.05,-21.31 -28.21,-35.58 -4.35,-10.12 -7.03,-22.52 -8,-36.91 -1.59,-37.46 14.32,-69.19 47.84,-95.17 16.23,-12.68 30.67,-21.64 43.23,-27 13.89,-5.98 28.66,-9.45 44.27,-10.55 42.18,-2.85 72.32,11.77 90.44,43.77 1.21,1.85 2.63,4.73 4.22,8.41 5.65,13.23 6.28,24.95 1.8,35.11 -4.48,10.13 -12.52,17.66 -24.02,22.68 -4.73,1.97 -10.55,3.48 -17.41,4.44 -8.49,0.84 -16.11,-0.91 -23.01,-5.27z"/>
  <path class="fil1" d="M2634.25 105.11c1.01,0.88 2.09,3.23 3.23,7.15 1.13,3.89 2.3,9.12 3.51,15.74 3.31,14.02 5.27,24.57 5.86,31.72 0.12,0.33 0.2,1.26 0.25,2.76 0.04,1.54 -0.55,2.72 -1.84,3.51 -2.14,0.58 -4.1,0.63 -5.82,-0.08 -3.46,-1.26 -6.77,-3.97 -9.87,-8.03 -16.87,-21.98 -40.97,-29.3 -72.28,-22.02 -12.01,2.34 -23.68,5.18 -35.07,8.54l-27.95 8.83c-5.91,2.14 -14.9,4.98 -26.92,8.54 -2.14,0.58 -4.06,1.38 -5.69,2.22 -1.71,0.88 -3.18,1.71 -4.47,2.5l48.29 164.18c1.54,-0.08 3.43,-0.25 5.65,-0.55 2.22,-0.25 4.57,-0.79 7.03,-1.51 12.39,-3.64 31.31,-9.59 56.54,-17.78 10.63,-3.1 17.07,-6.79 19.34,-10.89 2.25,-4.06 2.17,-11.59 -0.25,-22.43l-1.42 -4.77c-0.88,-3.18 -1.06,-5.73 -0.51,-7.65 0.59,-1.93 1.42,-2.98 2.47,-3.36 1.42,-0.37 2.93,-0.08 4.65,1.01 1.64,1.01 2.97,2.55 3.94,4.57 5.35,13.05 9.08,22.93 11.04,29.62 1.38,4.65 2.93,11.31 4.73,20.05 1.79,8.71 2.5,15.2 2.3,19.5 0.2,2.27 -0.34,3.51 -1.72,3.97 -1.09,0.3 -2.38,-0.42 -3.81,-2.09 -1.42,-1.67 -2.68,-3.35 -3.48,-4.98 -4.52,-8.74 -8.45,-14.02 -11.89,-15.86 -3.48,-1.89 -8.87,-1.72 -16.32,0.46l-58.3 17.75 -17.57 5.15c1.79,8.74 3.26,14.85 4.26,18.36 2.93,9.96 7.71,24.7 14.24,44.37 4.47,12.55 7.62,21.97 9.45,28.36l21.42 68.72 5.4 16.36c1.89,-0.25 3.77,-0.37 5.66,-0.53 1.84,-0.18 3.84,-0.59 5.94,-1.17l72.27 -21.31 36.12 -10.63c7.78,-2.3 15.94,-6.61 24.47,-13.01 11.8,-9.59 16.92,-20.35 15.32,-32.18 -0.04,-5.4 0.84,-8.87 2.65,-10.58 0.66,-0.59 1.46,-1.01 2.5,-1.34 3.56,-1.04 6.9,1.04 9.96,6.31 1.46,2.3 2.88,5.91 4.35,10.84 1.54,5.31 2.55,9.29 2.93,11.89l1.38 10.5c0.51,1.8 0.68,3.11 0.51,3.9 0,1.13 -0.79,2.09 -2.35,2.72 -1.51,0.66 -2.68,1.13 -3.35,1.29l-6.79 2.55c-31.13,9.25 -62.14,18.34 -92.95,27.38 -30.8,9.08 -61.81,18.41 -92.82,27.91l-45.16 13.3c-5.31,1.55 -9.08,1.22 -11.26,-1 -2.22,-2.27 -3.94,-5.15 -5.18,-8.62 -1.22,-3.51 -2.02,-6.06 -2.6,-7.87 -1.13,-2.76 -2.6,-6.19 -4.19,-10.34 -1.59,-4.14 -3.18,-8.86 -4.73,-14.14 -13.46,-41.89 -26.41,-83.66 -38.66,-125.46l-12.98 -44.11 -26.24 -89.27c-5.56,-18.76 -9.92,-32.73 -12.93,-41.81 -0.58,-2.14 -2.34,-5.45 -5.27,-10.01 -0.08,-0.33 -0.76,-1.21 -1.93,-2.59 -1.16,-1.42 -1.92,-2.6 -2.17,-3.69 -1.17,-3.84 1.64,-6.82 8.33,-8.83l12.6 -4.27c2.76,-1.17 6.57,-2.51 11.51,-3.97l212.56 -62.53 8.61 -2c2.73,0 4.52,0.21 5.45,0.71z"/>
  <path class="fil1" d="M3210.38 145.97l11.85 -13.56c7.62,-7.95 13.43,-15.02 17.4,-21.18 6.07,-9.34 10.46,-19.84 13.39,-31.47 1.17,-4.52 1.59,-9.21 1.26,-13.97 -0.79,-11.04 -6.16,-21.76 -16.11,-32.22 -5.61,-5.49 -11.31,-8.08 -17.17,-7.62 -5.56,0.37 -10.71,3.3 -15.52,8.83 -10.38,10.71 -15.07,23.56 -13.99,38.71l1.22 17.66c2.3,16.87 8.16,35.15 17.65,54.82zm60.81 204.57c-53.44,-50.35 -95.54,-105.55 -126.34,-165.51 -2.14,1.59 -5.81,4.69 -11.04,9.29 -5.23,4.64 -9.42,9.16 -12.65,13.64 -3.21,4.52 -5.4,9.21 -6.49,14.11 -5.81,23.35 -8.03,44.36 -6.74,63.19 0.59,8.79 1.93,16.86 3.9,24.14 7.82,32.73 28.16,52.07 61.18,57.93 13.52,2.42 27.04,3.13 40.64,2.17 7.02,-0.46 12.34,-1.01 16.03,-1.63 17.24,-2.35 31.05,-8.13 41.51,-17.33zm219.38 -46.84c2.6,-0.17 3.97,0.79 4.1,3.06 0.17,1.84 -0.51,4.06 -1.72,6.77 -1.64,3.77 -4.65,8.24 -9.09,13.36 -4.42,5.1 -7.65,9.08 -9.7,11.76 -7.87,10.21 -15.02,18.84 -21.56,25.99 -16.53,17.4 -36.82,26.91 -60.76,28.58 -12.9,0.93 -26.49,-0.37 -40.81,-3.84 -18.36,-4.24 -36.91,-12.05 -55.4,-23.31l-14.98 -7.87 -23.52 21.05c-27.2,24.11 -58.51,37.37 -93.82,39.85 -6.28,0.42 -15.36,0.28 -27.2,-0.34 -28.29,-1.76 -51.65,-15.15 -70.02,-40.09 -15.53,-21.52 -24.24,-45.91 -26.12,-73.16 -0.66,-9.21 -0.5,-19.75 0.55,-31.67 2.1,-17.58 8.92,-33.61 20.55,-48.09 20.76,-26.24 44.24,-42.14 70.53,-47.62 0.75,-0.05 3.64,-0.97 8.66,-2.81 -1.72,-3.97 -3.35,-8.66 -4.82,-14.14 -4.56,-12.22 -8.16,-21.42 -10.8,-27.53 -4.47,-10.81 -7.15,-22.48 -8,-35.03 -1,-14.32 1.04,-29.47 6.28,-45.36 5.58,-16.29 14.65,-28.92 27.33,-38.01 12.72,-8.99 26.79,-14.01 42.27,-15.07 5.86,-0.45 12.63,0.05 20.08,1.34 15.03,3.06 27.66,10.43 37.93,22.05 10.2,11.72 15.86,24.78 16.82,39.14 0.71,9.88 -0.68,19.09 -4.15,27.5 -3.51,8.36 -8.83,16.86 -16.03,25.48 -10.2,12.93 -21.34,26.29 -33.31,40.05 27.04,37.42 47.88,65.96 62.57,85.63l2.85 -14.6 4.82 -19.21c4.27,-18.84 8.03,-33.52 11.38,-44.12 6.7,-20.42 17.55,-36.19 32.56,-47.2 14.94,-11.04 33.23,-17.28 55,-18.84 13.22,-0.91 24.85,2.14 34.77,8.96 9.92,6.95 16.62,16.54 20.08,28.89 2.1,9.49 3.36,16.82 3.69,21.97 1.34,19.16 -4.27,35.45 -16.87,48.92 -12.6,13.43 -28.08,20.8 -46.46,22.09 -6.66,0.46 -12.42,0.13 -17.28,-1.08 -9.83,-1.85 -18.36,-6.9 -25.78,-15.07 -7.4,-8.21 -11.26,-17.12 -11.59,-26.75 1.13,-0.04 2.63,0 4.52,0.26 1.84,0.25 3.35,0.53 4.48,0.88 3.81,1.54 8.07,2.17 12.93,1.84 5.15,-0.38 9.62,-2.05 13.48,-5.11 3.84,-3.05 6.74,-7.24 8.58,-12.5 4.72,-11.85 6.06,-24.15 4.09,-36.95 -0.79,-6.2 -2.97,-11.01 -6.56,-14.27 -3.56,-3.23 -7.91,-4.69 -13.06,-4.35 -3.68,0.25 -7.66,1.63 -11.89,4.14 -14.9,9.92 -25.4,23.44 -31.59,40.51 -3.36,10.58 -7.66,26.44 -12.85,47.5 -1.68,7.91 -3.86,19.75 -6.45,35.45 -0.58,2.25 -0.75,5.23 -0.5,8.87 0.55,7.4 3.76,14.19 9.75,20.5 30.38,31.9 65.16,50.81 104.45,56.54 7.07,1.01 14.65,1.22 22.77,0.63 18.04,-1.21 34.65,-7.37 49.8,-18.41 6.37,-4.47 11.34,-6.9 15.03,-7.12z"/>
  <path class="fil1" d="M3806.74 390.33c-0.66,-0.83 -0.5,-1.71 0.33,-2.72l4.24 -6.11c1.71,-4.22 2.88,-8.33 3.43,-12.39 0.84,-3.23 1.42,-7.45 1.8,-12.65 0.33,-5.15 0.83,-9.32 1.26,-12.63 2.75,-19.38 6.44,-48.54 11.26,-87.35 1.16,-8.11 2.47,-20.17 4.01,-36.36 1.22,-16.24 2.93,-32.23 5.15,-47.96l3.35 -23.52 13.73 -92.57c0.51,-4.06 1.01,-9.83 1.3,-17.17 -0.17,-4.56 -0.08,-7.9 0.25,-10.08 0.17,-0.71 0.17,-1.79 0.25,-3.3 0,-1.51 0.42,-2.73 1.39,-3.72 1.63,-1.26 4.44,-1.59 8.49,-1.01 3.38,-0.3 7.28,-0.05 11.63,0.75 4.32,0.89 7.28,1.39 8.75,1.59l29.5 4.73c5.15,0.68 9.16,1.47 12.01,2.27 5.23,2.59 7.62,5.35 7.2,8.28 -0.17,1.09 -0.75,2.68 -1.8,4.77 -1.08,2.1 -1.87,4.02 -2.47,5.78 -1.54,3.18 -2.59,6.36 -3.1,9.67 -1.89,7.95 -3.1,14.06 -3.68,18.49 -0.71,4.73 -1.39,12.3 -2.14,22.65l-2.51 21.39c-5.48,38.79 -10.04,72.73 -13.81,101.86 -3.76,29.09 -6.87,53.32 -9.25,72.78l-7.19 58.84 -6.37 44.98c2.43,0.71 4.98,1.42 7.53,2.14 2.43,0.76 4.98,1.3 7.58,1.64 40.55,5.78 70.93,9.7 91.14,11.89 9.17,0.88 21.64,-0.33 37.42,-3.69 9.25,-1.63 15.58,-6.9 19.09,-15.73 2.76,-6.7 6.03,-9.8 9.7,-9.29 4.73,0.71 6.7,3.93 5.91,9.83 -1.09,4.31 -2.89,10.75 -5.56,19.25 -0.43,2.63 -1.26,6.03 -2.65,10.33 -0.25,1.84 -0.96,2.85 -2.14,3.05 -0.37,0.3 -0.96,0.34 -1.63,0.05 -0.71,-0.3 -1.3,-0.3 -1.72,0.04 -2.17,-0.28 -3.97,-0.42 -5.52,-0.25l-9.93 -0.88 -169.11 -22.85 -33.99 -4.22c-1.17,-0.17 -3.93,-0.79 -8.49,-1.76 -4.52,-1.01 -8.46,-2.68 -11.89,-5.07 -2,-1.39 -2.93,-2.68 -2.76,-3.77z"/>
  <path class="fil1" d="M4253.36 249.59c-2.3,8.53 -3.84,14.98 -4.56,19.37l-4.77 17.7c-8,25.7 -11.51,55.91 -10.55,90.61 1.59,29.88 7.53,56.29 17.83,79.3 1.79,4.69 5.56,9.92 11.29,15.61 6.52,6.74 14.69,11.38 24.35,13.97 13.14,3.51 26.95,3.31 41.44,-0.63 14.39,-3.97 25.4,-10.71 32.93,-20.17 14.73,-18.21 25.28,-32.18 31.31,-42.07 18.08,-27.65 32.47,-61.43 43.15,-101.36 2.97,-11.04 6.77,-28.21 11.55,-51.39 5.56,-27.96 4.39,-54.99 -3.52,-81.19 -10.55,-34.95 -30.42,-56.33 -59.67,-64.19 -13.23,-3.56 -23.14,-4.27 -29.76,-2.22 -21.01,7.02 -37.4,16.31 -49.37,28.08 -23.61,25.45 -40.84,58.25 -51.65,98.56zm258.64 93.03c-1.01,2.97 -1.64,5.02 -1.89,6.06 -0.42,2.98 -1.38,7.08 -2.8,12.43 -5.48,20.35 -15.11,40.89 -29.09,61.6 -8.66,13.73 -23.14,28.38 -43.31,43.99 -25.58,19.92 -51.82,31.47 -78.64,34.6 -24.27,3.48 -46.66,2.38 -67.33,-3.13 -20.71,-5.53 -40.22,-15.78 -58.38,-30.56 -15.36,-12.5 -27.04,-24.6 -34.98,-36.32 -8.42,-11.42 -16.57,-27.37 -24.45,-47.8 -13.39,-31.51 -16.03,-65.83 -8,-103.07 1.06,-5.45 3.01,-13.48 5.94,-24.19 8.21,-30.68 19.38,-55.21 33.44,-73.66 21.18,-27.55 48.38,-47.96 81.74,-61.19 33.94,-13.89 67.47,-16.36 100.65,-7.45 24.57,6.52 49.01,19.42 73.36,38.59 7.96,5.9 15.41,14.56 22.27,26.03 14.44,21.8 24.9,43.31 31.47,64.57 8.33,27.46 9,57.68 2.09,90.56 -0.37,2.93 -1.13,5.94 -2.09,8.92z"/>
  <path class="fil1" d="M4932.78 310.85c3.76,1.54 6.52,3.1 8.33,4.6 2.05,1.63 1.26,7.07 -2.51,16.36l-73.41 180.54 -7.11 18.71c-1.47,4.56 -3.86,10.96 -7.28,19.16 -3.94,9.55 -8.16,17.96 -12.76,25.24 -12.1,18.99 -27.62,32.43 -46.41,40.25 -40.73,17.63 -79.14,21.27 -115.18,10.84 -4.73,-1.13 -11.67,-3.59 -20.93,-7.37 -37.5,-15.4 -64.07,-41.26 -79.52,-77.47 -5.56,-11.92 -6.74,-23.56 -3.59,-35.07l3.59 -14.69c5.31,-22.56 9.88,-39.22 13.9,-49.93 13.13,-34.95 24.82,-65.41 35.07,-91.31 10.21,-25.96 18.62,-47.5 25.32,-64.75 9.42,-22.85 16.19,-40 20.51,-51.39l5.65 -13.86 1.72 -4.14c1.38,-3.35 2.55,-5.27 3.51,-5.69 0.76,-0.88 1.64,-1.13 2.68,-0.66l13.51 4.9 20.1 6.44c8.2,3.35 14.31,6.11 18.25,8.11 6.19,2.51 10.46,4.65 12.88,6.49 2.38,2.17 3.61,3.43 3.77,3.94 0.42,0.96 0.25,2.22 -0.42,3.97 -0.55,1.38 -1.72,2.93 -3.36,4.6 -1.71,1.71 -3.01,3.18 -3.89,4.39 -2.3,2.68 -4.09,5.56 -5.31,8.58 -2.05,3.99 -4.69,9.88 -7.87,17.75l-54.74 131.95 -13.44 32.86c-9.95,24.22 -17.24,47.16 -21.64,68.92 -4.69,20 -2.22,38.84 7.41,56.29 9.59,17.53 23.73,30.08 42.52,37.83 13.31,5.48 27.29,9.37 41.85,11.76 26.41,2.89 50.43,-5.27 72.27,-24.32 15.91,-14.56 27.63,-30.93 35.03,-49.01 6.74,-16.36 16.28,-40.8 28.79,-73.19 8.92,-24.69 18.29,-48.96 28.13,-72.9l20.93 -49.47c3.59,-8.87 5.56,-16.44 5.73,-22.77 -0.17,-1.72 -0.5,-3.94 -1.17,-6.77 -0.63,-2.85 -0.88,-5.28 -0.88,-7.25 0,-1.97 0.88,-3.26 2.68,-3.68l0.75 -0.3c1.3,-0.3 3.52,0.21 6.54,1.47z"/>
  <path class="fil1" d="M5308.94 515.47c0.33,-1.71 0.88,-2.97 1.8,-3.76 0.5,-0.96 1.46,-1.26 3.01,-0.79 2.3,0.33 4.19,1.09 5.81,1.97 4.19,2.3 6.95,5.02 8.33,7.82 0.76,1.67 0.76,3.18 0,4.48 -0.88,1.63 -2.42,3.3 -4.64,5.02 -2.3,1.67 -4.02,3.26 -5.23,4.65 -2.14,3.05 -4.44,6.77 -6.87,11.09 -2.47,4.34 -4.1,7.36 -4.98,8.91l-66.62 122.04 -89.1 162.13 -4.64 9.41c-1.51,2.6 -2.81,4.24 -4.02,4.77 -2.38,1.26 -4.98,1.06 -7.95,-0.62 -1.89,-1.09 -3.1,-2.6 -3.64,-4.65 -1.89,-6.49 -3.06,-12.47 -3.48,-17.75l-36.46 -267.58 -7.98 -66.04c-0.34,-3.18 -2.38,-20.63 -6.11,-52.4 -0.34,-3.14 -1.68,-12.14 -3.94,-26.99l-2.14 -13.27c-1.54,2.93 -2.85,5.07 -3.84,6.41 -0.97,1.38 -1.64,2.38 -2.05,3.06l-96.51 173.08 -49.05 86.22 -12.27 21.67c-1.79,3.26 -3.01,6.61 -3.68,10.08 -0.25,1.09 -0.25,2.55 -0.17,4.32 0.08,1.71 -0.33,3.59 -1.04,5.73 -1.26,2.3 -3.14,3.51 -5.66,3.81 -2.47,0.33 -4.97,0 -7.36,-1.01 -1.97,-1.04 -4.02,-2.63 -6.2,-4.69 -1.63,-1.76 -2.47,-2.97 -2.72,-3.72 -0.25,-0.79 0.42,-2.47 1.89,-5.02 1.21,-2.27 3.84,-6.11 7.7,-11.55 3.59,-4.77 6.03,-8.49 7.49,-11.01l133.51 -238.84c3.26,-5.81 7.28,-12.55 12.02,-20.25 4.72,-7.7 8.41,-13.56 11.13,-17.58 3.89,-5.43 6.52,-9.42 8,-12.05 3.59,-5.56 6.94,-8.58 10.04,-8.91 3.18,-0.3 7.96,1.09 14.24,4.19l39.17 20.71 0.96 0.55c2.3,1.26 3.86,2.76 4.73,4.56 0.91,1.76 1.63,4.48 2.14,8.16l16.44 112.12 29.67 207.25 2.85 13.05 25.28 -44.95c42.65,-77.63 74.62,-135.88 95.63,-174.93 1.29,-2.22 3.1,-7.37 5.48,-15.35 0.3,-0.63 0.71,-1.8 1.04,-3.52z"/>
  <path class="fil1" d="M5488.27 900.26c1.39,0.58 2.93,1.59 4.65,3.05 1.63,1.47 2.8,2.47 3.35,2.89l13.69 9.41c11.26,8.38 19.75,14.95 25.48,19.59l5.31 4.02c2.38,1.76 3.26,3.97 2.6,6.74 0.17,1.04 -0.3,2.27 -1.47,3.77 -0.88,1.16 -2.42,2.75 -4.8,4.69 -4.1,4.27 -9.96,10.96 -17.66,20 -5.23,7.12 -9.09,12.52 -11.42,16.32 -5.99,9.37 -12.43,18.11 -19.47,26.28 -2.47,2.68 -5.81,6.9 -9.95,12.56l-18.41 25.65 -3.61 4.9c-3.35,4.44 -6.28,6.86 -8.83,7.28 -1.89,-0.05 -3.43,-0.46 -4.57,-1.34 -1.46,-1.04 -2.85,-2.72 -4.09,-4.69 -1.22,-2.1 -2.05,-3.52 -2.35,-4.27 -3.43,-5.28 -7.37,-9.59 -11.89,-12.9 -5.86,-4.39 -12.47,-6.99 -19.67,-7.78 -21.59,-3.1 -40.88,-10.96 -57.71,-23.51 -7.78,-5.69 -14.14,-11.39 -19.21,-17 -6.61,-7.62 -15.15,-18.33 -25.28,-31.84 -17.07,-22.81 -24.9,-49.09 -23.51,-78.85 3.01,-50.6 18.62,-94.87 46.82,-132.83 2.85,-3.84 7.91,-10 15.11,-18.46 7.02,-7.62 14.39,-13.93 22.18,-18.74 35.45,-24.24 68.71,-38.38 99.77,-42.48 21.76,-3.18 42.52,-2.68 62.4,1.55 26.44,5.78 49.59,16.06 69.47,30.84 20.17,14.94 36.19,33.94 48.05,57 9.87,18.87 13.01,37.95 9.24,57.25 -2.38,10.63 -6.31,19.67 -11.84,27.07 -8.58,11.55 -20.13,19.34 -34.52,23.31 -14.45,3.97 -27.88,3.72 -40.14,-0.75 -3.35,-1.14 -6.44,-2.76 -9.37,-4.98 -8.91,-6.57 -14.31,-15.74 -16.19,-27.5 -1.89,-11.76 0.66,-22.6 7.7,-32.65 5.61,1.06 10.05,2.02 13.06,2.85 9.83,2.27 18.96,1.92 27.32,-1.09 8.41,-2.92 15.53,-8.28 21.22,-15.98 7.7,-10.38 9.17,-23.52 4.44,-39.42 -4.44,-15.78 -12.1,-27.63 -23.14,-35.79 -7.37,-5.52 -16.74,-8.99 -28.04,-10.45 -22.63,-3.06 -42.01,0.45 -58.16,10.55 -10.17,6.23 -17.83,10.66 -22.98,13.3 -13.1,6.41 -24.6,14.73 -34.52,25.07 -9.96,10.34 -20.68,23.19 -32.1,38.55l-13.97 17.95c-9.67,13.1 -18,24.57 -24.95,34.57 -7.03,10 -12.72,18.41 -17.33,25.15 -5.56,8.71 -9.95,15.32 -13.3,19.8 -10.55,15.53 -16.29,36.82 -17,63.86 -0.08,5.02 1.8,11.72 5.69,20.08 8.13,19.42 20.3,33.74 36.46,42.99 4.85,2.63 11.55,4.8 19.97,6.52 10.12,2.47 18.36,-0.63 24.77,-9.25l9.54 -12.85 39.01 -52.48 19.47 -26.24c2.42,-3.26 3.68,-6.9 3.89,-10.91 -0.13,-1.01 -0.71,-2.68 -1.72,-5.07 -0.96,-2.35 -1.04,-3.89 -0.04,-4.52 0.12,-0.25 1.04,-0.55 2.59,-0.79z"/>
  <path class="fil1" d="M5987.94 1052.95c-0.25,1.29 -1.71,3.46 -4.56,6.36 -2.81,3.01 -6.79,6.61 -11.89,10.88 -10.46,9.92 -18.71,16.87 -24.57,20.96 -0.25,0.21 -1.01,0.79 -2.3,1.59 -1.29,0.84 -2.63,0.89 -3.94,0.08 -1.63,-1.51 -2.5,-3.18 -2.85,-5.02 -0.66,-3.64 0.09,-7.83 2.05,-12.55 10.59,-25.58 4.98,-50.1 -17.02,-73.66 -8,-9.21 -16.32,-17.87 -24.9,-26.07l-21.6 -19.84c-4.82,-4.06 -11.76,-10.42 -20.84,-19.04 -1.54,-1.55 -3.18,-2.85 -4.72,-3.81 -1.64,-1.04 -3.14,-1.92 -4.44,-2.73l-118.11 123.89c0.79,1.29 1.89,2.85 3.27,4.6 1.29,1.84 2.92,3.64 4.8,5.43 9.34,8.87 23.9,22.27 43.66,40.05 8.03,7.63 14.31,11.39 19.04,11.31 4.69,-0.13 11.13,-3.94 19.29,-11.42l3.43 -3.61c2.3,-2.42 4.44,-3.81 6.41,-4.26 1.97,-0.43 3.35,-0.3 4.14,0.5 1.09,1.01 1.55,2.51 1.47,4.44 -0.17,1.97 -0.79,3.84 -2,5.78 -8.67,11.13 -15.41,19.29 -20.21,24.35 -3.36,3.48 -8.33,8.11 -14.95,14.02 -6.61,5.94 -11.92,9.79 -15.78,11.76 -1.79,1.38 -3.26,1.51 -4.35,0.46 -0.71,-0.71 -0.79,-2.18 -0.08,-4.22 0.76,-2.14 1.64,-4.02 2.65,-5.61 5.31,-8.24 7.9,-14.24 7.73,-18.21 0,-3.93 -2.85,-8.49 -8.49,-13.89l-44.44 -41.64 -13.27 -12.6c-6.61,5.86 -11.17,10.17 -13.81,12.85 -7.12,7.5 -17.58,18.96 -31.31,34.4 -8.58,10.13 -15.18,17.62 -19.84,22.39l-48.88 52.9 -11.47 12.85c1.17,1.51 2.22,3.06 3.26,4.57 1.09,1.59 2.38,3.1 4.02,4.6l54.53 52.07 27.2 25.94c5.9,5.6 13.73,10.55 23.48,14.73 14.22,5.43 26.07,4.47 35.53,-2.81 4.69,-2.72 8.2,-3.72 10.55,-3.01 0.83,0.25 1.63,0.79 2.38,1.55 2.68,2.5 2.51,6.48 -0.5,11.76 -1.22,2.35 -3.69,5.45 -7.2,9.21 -3.81,3.97 -6.79,6.82 -8.84,8.41l-8.49 6.44c-1.21,1.34 -2.25,2.14 -3.01,2.43 -1.04,0.55 -2.22,0.33 -3.59,-0.71 -1.29,-0.96 -2.22,-1.8 -2.76,-2.25l-5.56 -4.6c-23.56,-22.43 -46.92,-44.7 -70.15,-66.92 -23.31,-22.1 -46.74,-44.28 -70.55,-66.46l-34.07 -32.48c-3.94,-3.86 -5.56,-7.24 -4.73,-10.3 0.88,-3.01 2.51,-5.94 4.9,-8.71 2.38,-2.8 4.22,-4.89 5.56,-6.23 1.8,-2.38 3.97,-5.31 6.87,-8.75 2.68,-3.46 6.03,-7.19 9.87,-11.26 29.5,-32.52 59.35,-64.57 89.44,-96.08l31.72 -33.28 64.24 -67.3c13.48,-14.14 23.36,-24.9 29.76,-32.09 1.54,-1.55 3.51,-4.73 6.03,-9.5 0.25,-0.25 0.75,-1.26 1.34,-2.98 0.53,-1.71 1.29,-3.01 2,-3.76 2.8,-2.98 6.77,-1.97 11.89,2.88l9.95 8.75c2.38,1.76 5.48,4.39 9.25,7.98l160.28 152.96 6.03 6.49c1.3,2.35 2.05,4.02 2.05,5.03z"/>
  <path class="fil1" d="M1041.36 5582.05c0,57.92 -46.91,104.87 -104.87,104.87 -57.88,0 -104.88,-46.95 -104.88,-104.87 0,-57.88 47,-104.83 104.88,-104.83 57.96,0 104.87,46.95 104.87,104.83z"/>
  <path class="fil1" d="M6109.49 1392.65c0,57.93 -47,104.88 -104.88,104.88 -57.96,0 -104.87,-46.95 -104.87,-104.88 0,-57.88 46.91,-104.83 104.87,-104.83 57.88,0 104.88,46.95 104.88,104.83z"/>
 </g>
</svg>
