<?xml version="1.0" encoding="UTF-8"?>
<!DOCTYPE svg PUBLIC "-//W3C//DTD SVG 1.1//EN" "http://www.w3.org/Graphics/SVG/1.1/DTD/svg11.dtd">
<!-- Creator: CorelDRAW -->
<svg xmlns="http://www.w3.org/2000/svg" xml:space="preserve" width="84.7921mm" height="56.742mm" version="1.1" style="shape-rendering:geometricPrecision; text-rendering:geometricPrecision; image-rendering:optimizeQuality; fill-rule:evenodd; clip-rule:evenodd"
viewBox="0 0 3886.61 2600.88"
 xmlns:xlink="http://www.w3.org/1999/xlink"
 xmlns:xodm="http://www.corel.com/coreldraw/odm/2003">
 <defs>
  <style type="text/css">
   <![CDATA[
    .fil1 {fill:#231F20;fill-rule:nonzero}
    .fil0 {fill:#DEBBA8;fill-rule:nonzero}
   ]]>
  </style>
 </defs>
 <g id="Layer_x0020_1">
  <metadata id="CorelCorpID_0Corel-Layer"/>
  <polygon class="fil0" points="-0,1471.34 38.05,1471.34 88.03,1471.34 223.89,1471.34 523.87,2069.1 767.33,1471.34 784.71,1471.34 821.66,1471.34 921.66,1471.34 921.66,2273.45 746.68,2273.45 746.68,1655 495.6,2273.45 446.7,2273.45 441.27,2273.45 403.22,2273.45 88.03,1646.32 88.03,2273.45 38.05,2273.45 38.05,1547.4 "/>
  <path class="fil0" d="M2047.63 1465.9c76.08,0 144.55,14.86 205.41,44.57 60.88,29.71 110.14,75.9 147.81,138.56 37.68,62.69 56.52,137.14 56.52,223.36 0,128.97 -38.42,228.78 -115.22,299.42 -76.81,70.64 -174.96,106.32 -294.52,107.05l-1.08 0c-47.83,0 -90.39,-8.7 -127.71,-26.09 -37.32,-17.38 -67.93,-40.75 -91.83,-70.1 -23.91,-29.35 -44.93,-63.19 -63.03,-101.61 -18.12,-38.41 -33.89,-78.61 -47.28,-120.65 -13.42,-42.03 -26.47,-84.04 -39.15,-126.1 -12.66,-41.99 -26.99,-82.21 -42.92,-120.63 -15.94,-38.39 -34.42,-72.28 -55.43,-101.63 -21.03,-29.32 -47.83,-52.71 -80.43,-70.1 -32.6,-17.37 -70.29,-26.07 -113.03,-26.07 -44.94,0 -83.33,11.03 -115.21,33.15 -31.89,22.11 -55.97,51.62 -72.27,88.58 -16.32,36.94 -27.91,74.63 -34.78,113.02 -6.89,38.42 -10.34,78.99 -10.34,121.75 0,44.19 3.8,85.68 11.42,124.43 7.6,38.78 19.73,76.08 36.42,111.95 16.65,35.88 40.75,64.5 72.26,85.86 31.53,21.4 69.02,32.07 112.5,32.07 52.17,0 103.6,-17.38 154.33,-52.17 50.71,-34.78 86.58,-79.35 107.61,-133.68l67.38 92.4c-39.14,45.63 -88.42,81.32 -147.81,107.03 -59.42,25.73 -119.93,38.59 -181.51,38.59 -119.56,-0.73 -217.75,-36.4 -294.54,-107.05 -76.8,-70.65 -115.19,-170.45 -115.19,-299.42 0,-122.46 37.11,-220.65 111.39,-294.54 74.26,-73.91 172.26,-111.22 293.99,-111.95l2.18 0c55.05,0 103.06,10.87 144,32.6 40.93,21.74 72.99,50.55 96.18,86.4 23.19,35.87 44.21,76.47 63.05,121.75 18.84,45.28 34.06,91.83 45.65,139.65 11.58,47.82 26.1,94.39 43.48,139.66 17.37,45.3 36.42,85.87 57.05,121.72 20.65,35.88 49.26,64.68 85.87,86.43 36.58,21.73 79.88,32.6 129.88,32.6l2.18 0c44.18,0 82.05,-11.22 113.58,-33.68 31.5,-22.46 55.05,-52.35 70.63,-89.68 15.57,-37.3 26.79,-74.8 33.69,-112.48 6.89,-37.66 10.32,-77.16 10.32,-118.46l0 -5.44c0,-33.32 -1.99,-65.21 -5.97,-95.64 -3.99,-30.44 -11.41,-61.6 -22.28,-93.48 -10.88,-31.87 -24.64,-59.4 -41.3,-82.6 -16.69,-23.19 -38.97,-42.19 -66.85,-57.05 -27.89,-14.85 -59.62,-22.29 -95.1,-22.29 -62.32,0 -118.3,23.01 -167.91,69 -49.66,46.04 -80.98,101.65 -94.03,166.85l-67.38 -134.76c39.84,-49.27 88.4,-86.77 145.64,-112.52 57.23,-25.69 118.47,-38.57 183.68,-38.57z"/>
  <path class="fil0" d="M2685.63 1521.34l0 702.09 132.59 0c43.48,0 81.87,-10.48 115.22,-31.5 33.29,-21 59.41,-48.91 78.25,-83.7 18.82,-34.76 32.77,-72.08 41.83,-111.94 9.07,-39.85 13.58,-81.15 13.58,-123.9 0,-41.32 -4.35,-81.52 -13.03,-120.65 -8.68,-39.13 -22.11,-76.44 -40.22,-111.95 -18.11,-35.49 -44.01,-64.11 -77.7,-85.86 -33.7,-21.74 -73.01,-32.6 -117.93,-32.6l-132.59 0zm-175 -50l307.59 0c56.52,0 110.12,8.52 160.86,25.53 50.69,17.04 95.99,41.85 135.84,74.47 39.85,32.58 71.56,74.82 95.1,126.61 23.55,51.81 35.34,110.32 35.34,175.53 0,65.22 -11.42,123.74 -34.24,175.53 -22.83,51.83 -54.18,93.85 -94.03,126.08 -39.84,32.25 -85.14,56.71 -135.85,73.37 -50.72,16.65 -105.07,25 -163.03,25l-307.59 0 0 -802.11z"/>
  <path class="fil0" d="M3575.75 1467l2.16 0c38.41,0 76.26,5.97 113.58,17.92 37.3,11.97 71.89,33.15 103.79,63.58 31.87,30.45 51.44,67.4 58.7,110.87l-78.25 52.16 0 -6.5c0,-50.72 -15.6,-93.3 -46.73,-127.71 -31.16,-34.43 -67.77,-52.35 -109.78,-53.8l-5.43 0c-44.94,0 -82.62,10.87 -113.03,32.6 -30.44,21.73 -45.64,53.25 -45.64,94.55l0 7.61c1.43,33.35 12.48,58.9 33.13,76.62 20.66,17.77 49.82,33.15 87.5,46.2 28.26,10.17 50.17,18.32 65.75,24.46 15.58,6.15 37.67,15.58 66.31,28.25 28.62,12.7 51.62,25.55 69.02,38.59 17.38,13.03 35.48,28.44 54.35,46.2 18.82,17.73 32.76,37.87 41.83,60.31 9.05,22.48 13.6,46.36 13.6,71.73 0,39.14 -9.07,73.9 -27.2,104.35 -18.11,30.43 -42.37,54.17 -72.8,71.17 -30.43,17.04 -63.24,29.91 -98.37,38.6 -35.17,8.7 -71.55,13.05 -109.23,13.05l-3.26 0c-41.3,-0.73 -82.58,-6.54 -123.9,-17.4 -41.3,-10.85 -80.27,-29.89 -116.83,-57.05 -36.61,-27.19 -59.62,-59.96 -69.03,-98.38l84.78 -54.34 0 4.34c0,39.13 19.01,76.1 57.06,110.88 38.04,34.78 80.59,52.54 127.72,53.25l3.25 0c50.71,0 94.37,-10.5 130.96,-31.5 36.58,-21.02 55.24,-50.73 55.98,-89.13l0 -3.27c0,-50 -49.99,-92.74 -149.99,-128.25 -29.71,-10.88 -55.43,-20.83 -77.15,-29.9 -21.75,-9.04 -46.75,-21.89 -75.02,-38.57 -28.25,-16.67 -51.45,-33.69 -69.55,-51.09 -18.12,-17.4 -33.52,-38.94 -46.19,-64.67 -12.7,-25.71 -19.02,-53.07 -19.02,-82.06 0,-72.43 28.8,-129.33 86.4,-170.63 57.61,-41.3 124.45,-62.32 200.53,-63.03z"/>
  <path class="fil1" d="M645.87 2485.42c-1.84,-2.65 -3.42,-5.95 -4.75,-9.93 3.69,-0.58 6.44,-1.91 8.28,-3.98 1.84,-2.05 3.12,-4.85 3.86,-8.39 0.29,-2.07 0.44,-3.46 0.44,-4.2 0,-3.67 -1.04,-6.79 -3.09,-9.38 -2.05,-2.56 -4.7,-4.45 -7.94,-5.62 -4.13,-1.63 -8.1,-2.44 -11.94,-2.44 -6.9,0 -13.47,2.3 -19.65,6.85 -2.2,1.62 -3.96,3.93 -5.28,6.95 -1.33,2.99 -1.99,6.21 -1.99,9.59 0,2.65 0.37,4.93 1.11,6.84 2.93,7.81 7.93,13.63 15.01,17.45l6.84 3.52c14.71,7.81 24.64,13.26 29.8,16.33 7.79,4.72 14.13,9.65 18.98,14.8 7.94,8.69 12.28,19.15 13.02,31.34 0,1.47 -0.08,2.59 -0.22,3.33 -4.11,12.94 -11.11,22.28 -20.96,28.02 -5.16,3.09 -10.64,5.14 -16.46,6.19 -5.81,1.02 -12.39,1.52 -19.76,1.52 -16.63,0 -30.81,-2.04 -42.59,-6.16 -6.34,-2.21 -11.42,-5.97 -15.24,-11.27 -3.81,-5.3 -5.74,-11.09 -5.74,-17.43 0,-3.23 0.6,-6.63 1.76,-10.15 1.47,-3.83 3.83,-6.88 7.06,-9.15 3.24,-2.3 6.71,-3.43 10.38,-3.43 5,0 9.26,1.68 12.81,5.06 0.29,0.31 0.58,0.91 0.88,1.78 -5.16,4.72 -7.73,10.37 -7.73,17.01 0,3.07 0.6,6.53 1.78,10.36 1.6,5.45 4.19,9.83 7.73,13.13 3.52,3.32 8,5.19 13.45,5.63 5.59,0.31 9.86,0.45 12.81,0.45 4.25,0 10.82,-0.15 19.65,-0.45 2.49,0 5,-1.36 7.5,-4.07 2.51,-2.73 4.12,-5.42 4.87,-8.07 1.02,-4.13 1.54,-6.89 1.54,-8.38 0,-1.03 -0.08,-1.78 -0.21,-2.21 -1.18,-3.81 -2.36,-7.05 -3.54,-9.7 -1.18,-2.67 -2.71,-5.09 -4.64,-7.29 -7.07,-7.79 -15.75,-14.21 -26.05,-19.19 -7.49,-3.4 -13.5,-6.22 -17.98,-8.52 -4.5,-2.26 -8.88,-4.87 -13.15,-7.83 -6.03,-4.12 -10.62,-8.89 -13.78,-14.36 -3.19,-5.44 -4.75,-11.24 -4.75,-17.43 0,-4.4 0.95,-9.35 2.86,-14.78 5.3,-13.98 16.12,-23.11 32.46,-27.37 7.95,-2.05 14.63,-3.09 20.1,-3.09 6.03,0 11.98,1.04 17.87,3.09 15.9,5.59 24.64,15.69 26.26,30.24 0.16,0.89 0.24,2.13 0.24,3.75 0,5.76 -1.62,10.13 -4.87,13.13 -3.24,3.02 -7.36,4.53 -12.35,4.53 -2.07,0 -4.43,-0.36 -7.07,-1.1 -3.24,-1.04 -5.79,-2.86 -7.62,-5.51z"/>
  <path class="fil1" d="M786.81 2588.95c0,1.04 -0.23,1.76 -0.66,2.21 -0.15,0.15 -0.44,0.36 -0.89,0.66 -1.91,0.58 -4.33,0.87 -7.27,0.87l-7.29 -0.21 -8.39 -0.45c-0.88,0 -1.46,-0.13 -1.76,-0.45 -0.44,-0.28 -0.66,-1.39 -0.66,-3.3 -0.15,-1.91 -0.18,-3.57 -0.1,-4.96 0.07,-1.41 0.1,-2.54 0.1,-3.43 -0.44,-15.73 -0.66,-31.48 -0.66,-47.23 -0.15,-3.52 -0.21,-8.75 -0.21,-15.67l0 -24.51 0 -49.66c-3.83,-0.31 -6.18,-0.44 -7.07,-0.44 -7.81,0 -13.61,-0.08 -17.43,-0.22 -4.41,0 -8.13,0.55 -11.16,1.65 -3.02,1.11 -5.4,3.35 -7.16,6.72l-0.23 0.22c-0.44,0 -1.15,-0.47 -2.1,-1.43 -0.96,-0.94 -1.57,-1.71 -1.86,-2.3l0 -1.33c0,-2.52 0.5,-4.29 1.54,-5.32 1.04,-1.02 3.46,-1.54 7.27,-1.54l81.02 0.21c6.92,0 12.14,0.08 15.67,0.23l7.73 0c2.22,0 3.86,0.34 4.96,1 1.12,0.66 1.67,2.31 1.67,4.95 0,2.21 -0.6,4.51 -1.76,6.86l-1.1 0.22c-1.03,0 -1.81,-0.26 -2.33,-0.77 -0.5,-0.52 -0.92,-1.07 -1.2,-1.67 -0.31,-0.58 -0.53,-1.02 -0.66,-1.32 -1.94,-3.65 -5.1,-5.64 -9.51,-5.95 -12.22,0 -21.34,0.06 -27.37,0.22 -1.33,0 -2.12,0.08 -2.42,0.23 -0.15,0.13 -0.18,0.35 -0.1,0.66 0.07,0.28 0.1,0.52 0.1,0.66 0.14,0.86 0.19,1.63 0.11,2.3 -0.08,0.66 -0.11,1.21 -0.11,1.68l0 7.92c0,6.94 0.06,12.16 0.22,15.69 0,8.83 0.13,22.08 0.44,39.73l0.44 39.96 0 22.95 0 11.27 0.23 3.09z"/>
  <path class="fil1" d="M966.05 2440.38c0.29,0.44 0.44,1.49 0.44,3.09 0,1.62 -0.15,3.75 -0.44,6.4 -0.31,5.73 -0.74,10.01 -1.32,12.81 0,0.15 -0.08,0.52 -0.22,1.1 -0.15,0.58 -0.5,0.95 -1.1,1.12 -0.89,0 -1.62,-0.23 -2.2,-0.66 -1.18,-0.89 -2.14,-2.28 -2.88,-4.2 -3.98,-10.3 -12.37,-15.81 -25.16,-16.56 -4.85,-0.44 -9.64,-0.66 -14.34,-0.66l-11.71 0.22c-2.51,0.15 -6.26,0.22 -11.26,0.22 -0.89,0 -1.7,0.06 -2.42,0.21 -0.74,0.15 -1.41,0.31 -1.99,0.45l0 68.21c0.58,0.13 1.32,0.29 2.2,0.44 0.89,0.17 1.84,0.23 2.88,0.23 5.14,0 13.02,-0.15 23.62,-0.45 4.4,0 7.27,-0.66 8.6,-1.99 1.31,-1.32 2.13,-4.19 2.42,-8.6l0 -1.99c0,-1.31 0.21,-2.31 0.66,-2.97 0.45,-0.66 0.88,-0.99 1.33,-0.99 0.58,0 1.15,0.28 1.65,0.86 0.53,0.61 0.86,1.34 1,2.23 0.58,5.6 0.89,9.8 0.89,12.58 0,1.92 -0.16,4.64 -0.45,8.16 -0.29,3.52 -0.75,6.11 -1.33,7.73 -0.14,0.89 -0.52,1.33 -1.1,1.33 -0.45,0 -0.84,-0.41 -1.21,-1.21 -0.37,-0.81 -0.63,-1.6 -0.78,-2.33 -0.74,-3.82 -1.65,-6.29 -2.76,-7.39 -1.1,-1.1 -3.2,-1.65 -6.29,-1.65l-24.27 0.21 -7.29 0c-0.29,3.54 -0.44,6.03 -0.44,7.5 0,4.12 0.15,10.31 0.44,18.55 0.29,5.3 0.44,9.28 0.44,11.94l0.45 28.68 0.21 6.84c0.74,0.16 1.47,0.31 2.21,0.45 0.74,0.13 1.54,0.21 2.44,0.21l30.01 0 15.01 0c3.23,0 6.86,-0.74 10.82,-2.22 5.6,-2.34 8.75,-5.89 9.49,-10.59 0.58,-2.05 1.32,-3.3 2.2,-3.75 0.29,-0.13 0.66,-0.21 1.11,-0.21 1.46,0 2.49,1.16 3.09,3.53 0.29,1.03 0.44,2.57 0.44,4.62 0,2.23 -0.06,3.84 -0.21,4.87l-0.66 4.21c0,0.71 -0.08,1.24 -0.23,1.54 -0.15,0.44 -0.56,0.69 -1.23,0.77 -0.65,0.08 -1.13,0.11 -1.42,0.11l-2.88 0.21 -38.63 0c-12.79,0 -25.66,0.08 -38.62,0.22l-18.77 0c-2.2,0 -3.59,-0.55 -4.19,-1.65 -0.6,-1.11 -0.92,-2.41 -1,-3.88 -0.06,-1.45 -0.1,-2.57 -0.1,-3.31 -0.16,-1.16 -0.29,-2.64 -0.45,-4.4 -0.14,-1.76 -0.21,-3.75 -0.21,-5.97 -0.45,-17.51 -0.66,-34.95 -0.66,-52.33l0 -18.3 0 -37.1c0,-7.79 -0.08,-13.6 -0.23,-17.43 0,-0.89 -0.31,-2.36 -0.89,-4.41 0,-0.15 -0.14,-0.55 -0.44,-1.21 -0.29,-0.66 -0.44,-1.21 -0.44,-1.66 0,-1.6 1.39,-2.42 4.19,-2.42l5.3 -0.23c1.16,-0.13 2.78,-0.21 4.85,-0.21l88.3 0 3.52 0.21c1.02,0.31 1.68,0.58 1.99,0.89z"/>
  <path class="fil1" d="M1065.61 2508.37l-3.98 -7.94c-0.88,-1.78 -2.76,-5.55 -5.63,-11.37 -2.86,-5.82 -5.77,-11.3 -8.71,-16.44l-31.56 71.08 67.77 0c-3.97,-8.23 -9.93,-20.02 -17.88,-35.33zm-53.64 43.05l-12.37 27.37c-0.14,0.6 -0.47,1.44 -1,2.55 -0.5,1.09 -0.84,2.1 -0.99,2.96l0 0.89c0,1.91 0.52,3.62 1.55,5.08 0,0.15 0.08,0.34 0.22,0.56 0.15,0.21 0.15,0.4 0,0.55 0,0.15 -0.22,0.2 -0.66,0.2l-1.99 0.24 -2.42 0.23c-0.31,0 -1,0.06 -2.1,0.19 -1.1,0.16 -1.79,-0.05 -2.1,-0.66l0 -0.2c0,-0.73 0.19,-1.52 0.56,-2.33 0.36,-0.81 0.61,-1.36 0.76,-1.65l1.78 -4.2 65.33 -143.25c0.15,-0.6 0.45,-0.89 0.89,-0.89 1.04,0 2.42,1.32 4.19,3.97l14.13 27.15 18.32 35.32 23.4 46.81 11.71 23.4c1.16,2.2 2.8,5.51 4.85,9.91 0.31,0.6 0.6,1.47 0.89,2.65 0,0.15 0.11,0.6 0.33,1.32 0.22,0.74 0.05,1.26 -0.55,1.55l-2.86 0.42 -5.3 0.66c-3.08,0.16 -7.79,0.24 -14.11,0.24l-7.29 0c-0.17,0 -0.57,0.03 -1.23,0.11 -0.66,0.08 -0.99,-0.2 -0.99,-0.78l0 -0.24c0,-0.42 0.11,-0.78 0.33,-1.09 0.22,-0.29 0.34,-0.66 0.34,-1.1 0.29,-0.89 0.29,-1.91 0,-3.1 -0.15,-1.16 -0.81,-2.93 -1.99,-5.29l-16.33 -30.46c-0.44,-0.73 -1.25,-1.99 -2.42,-3.75l-70.42 0c-0.44,1.03 -1.24,2.57 -2.42,4.62z"/>
  <path class="fil1" d="M1302.48 2588.95c0,0 0.44,0.31 1.33,0.89 -3.25,1.02 -6.77,1.54 -10.59,1.54 -7.38,0 -13.84,-2.51 -19.42,-7.5 -1.49,-1.32 -3.69,-3.17 -6.65,-5.51l-7.71 -6.61c-6.32,-6.19 -11.41,-15.02 -15.23,-26.5 -1.91,-5.87 -4.38,-10.93 -7.4,-15.12 -3.01,-4.19 -6.95,-7.54 -11.81,-10.06 -5.43,-2.93 -10.51,-4.4 -15.23,-4.4 -2.8,0 -5.8,0.58 -9.04,1.75 -0.31,10.91 -0.44,19 -0.44,24.29 -0.31,14.44 -0.45,25.32 -0.45,32.7l0 7.71c0,1.03 0.29,2.57 0.89,4.62 0,0.16 0.29,0.77 0.88,1.87 0.6,1.11 0.66,1.89 0.22,2.33l-0.66 0.22 -0.87 0.42c-0.74,0.32 -1.57,0.6 -2.44,0.9 -3.09,0.88 -6.48,1.3 -10.15,1.21 -3.67,-0.08 -6.03,-0.13 -7.07,-0.13l-1.99 0c-1.76,0 -3.01,-0.21 -3.75,-0.66l-1.99 -1.32c-0.44,-0.42 -0.66,-0.88 -0.66,-1.31 0,-0.44 0.16,-1.1 0.45,-1.99l0.44 -3.31c0.15,-0.73 0.29,-1.57 0.44,-2.54 0.15,-0.95 0.23,-2.09 0.23,-3.41l0 -120.76 0 -2.65c0.15,-0.88 0.22,-2.2 0.22,-3.96 0,-1.33 -0.08,-2.28 -0.22,-2.88 -0.31,-1.16 -0.73,-2.22 -1.32,-3.08 -0.15,-0.31 -0.6,-0.77 -1.33,-1.44 -0.72,-0.66 -0.89,-1.29 -0.44,-1.87 1.16,-1.05 2.94,-1.71 5.3,-2 0.58,-0.13 1.47,-0.21 2.64,-0.21 1.04,0 2.28,0.08 3.77,0.21 1.47,0.16 2.72,0.16 3.74,0 1.78,-0.13 3.35,-0.18 4.75,-0.1 1.41,0.08 2.54,0.1 3.43,0.1 0.88,0.16 2.28,0.22 4.19,0.22 0.29,0 0.74,-0.03 1.32,-0.11 0.58,-0.06 1.04,0.05 1.32,0.34 0.29,0 0.44,0.29 0.44,0.89l-0.21 1.76c-0.31,1.91 -0.6,4.79 -0.89,8.6 -0.15,1.78 -0.21,4.56 -0.21,8.39l0 8.62c0.29,7.65 0.44,13.23 0.44,16.77 0,3.4 -0.08,5.89 -0.22,7.5 -0.15,2.35 -0.18,4.38 -0.11,6.06 0.08,1.68 0.11,3.2 0.11,4.53l0 6.63c0.74,-0.74 1.55,-1.41 2.42,-1.99 0.89,-0.58 1.47,-1.1 1.76,-1.55 8.1,-8.39 20.1,-21.1 36,-38.2l17.22 -18.32 7.5 -8.37c1.02,-1.04 2.12,-1.55 3.31,-1.55 0.57,0 1.31,0.22 2.2,0.66l0.89 1.11c0,0.73 -0.08,1.18 -0.22,1.32 -4.72,3.08 -9.06,6.55 -13.04,10.37 -3.96,3.83 -8.46,8.55 -13.47,14.11l-7.49 7.96c-5.89,6.03 -11.71,12.29 -17.45,18.77l-10.38 11.25c-0.74,0.74 -1.36,1.5 -1.87,2.3 -0.52,0.83 -1.13,1.68 -1.87,2.56l9.72 -2.43c2.8,-0.74 6.17,-1.1 10.15,-1.1 7.65,0 16.11,2.14 25.39,6.39 2.36,1.04 4.3,2.41 5.85,4.09 1.54,1.7 3.41,4.07 5.63,7.18 3.81,5.14 7.2,11.69 10.15,19.65 2.51,6.76 6.7,16.79 12.58,30.01 3.09,7.06 8.53,11.71 16.33,13.9 0.44,0.15 0.66,0.23 0.66,0.23z"/>
  <path class="fil1" d="M1354.13 2591.82c-1.02,0.89 -2.8,1.32 -5.3,1.32l-4.85 0 -9.04 0.66 -5.32 -0.24c-0.42,0 -1.25,-0.06 -2.42,-0.2 -1.18,-0.14 -2.05,-0.39 -2.64,-0.66 -0.6,-0.47 -0.89,-1.05 -0.89,-1.78 0,-0.75 0.11,-1.47 0.32,-2.2 0.23,-0.73 0.34,-1.32 0.34,-1.78l0.66 -6.61c0.15,-1.47 0.23,-3.62 0.23,-6.4 0,-3.52 -0.17,-8.68 -0.45,-15.46 -0.29,-6.76 -0.44,-11.91 -0.44,-15.46 0.15,-4.25 0.23,-10.74 0.23,-19.42 0,-9.41 -0.16,-23.84 -0.45,-43.27l-0.66 -19.42c-0.29,-4.41 -0.44,-7.71 -0.44,-9.93l-0.44 -5.08c0,-0.45 -0.08,-1.07 -0.22,-1.89 -0.15,-0.77 -0.07,-1.42 0.22,-1.86 0.44,-0.44 1.21,-0.83 2.31,-1.1 1.1,-0.31 2.09,-0.45 2.98,-0.45l6.63 -0.21c1.32,-0.15 3.46,-0.22 6.4,-0.22 3.09,0 5.37,0.08 6.84,0.22l1.99 0c1.16,0 2.05,0.16 2.65,0.44 0.87,0.58 1.27,1.64 1.21,3.11 -0.08,1.45 -0.11,2.42 -0.11,2.85l0 15.25 0 30.45 0 21.2c4.12,0.31 10.22,0.44 18.32,0.44 4.85,0 12.14,-0.13 21.86,-0.44l11.46 -0.22c0.29,-3.24 0.45,-5.44 0.45,-6.61l0 -51c0,-3.22 -0.08,-5.66 -0.22,-7.27 -0.15,-1.04 -0.52,-2.2 -1.1,-3.52 -0.17,-0.15 -0.45,-0.58 -0.89,-1.33 -0.44,-0.74 -0.37,-1.41 0.22,-1.99 0.29,-0.31 0.88,-0.58 1.76,-0.89 0.89,-0.28 1.61,-0.35 2.21,-0.22 2.05,0.15 5.21,0.06 9.47,-0.21 2.07,-0.31 3.69,-0.45 4.87,-0.45l3.09 -0.21c1.04,0 2.42,0.17 4.2,0.44 1.62,0.44 2.75,0.94 3.41,1.44 0.66,0.52 0.99,1.52 0.99,2.99l0 11.67c-0.13,5.31 -0.21,13.26 -0.21,23.87l-0.23 28.69 0.23 28.91 0.44 28.7 0.44 14.57 0.23 7.06 0.22 2.42c0,0.89 -0.37,1.62 -1.11,2.22 -0.13,0.13 -0.95,0.44 -2.41,0.86 -2.65,0.32 -4.64,0.47 -5.97,0.47 -2.21,0 -5.24,-0.15 -9.05,-0.47 -1.62,0 -4.35,-0.13 -8.17,-0.42 -1.32,0 -2.3,-0.08 -2.88,-0.24 -0.58,-0.13 -0.87,-0.58 -0.87,-1.32 0,-0.57 0.13,-1.31 0.44,-2.18 0.31,-1.18 0.6,-2.65 0.89,-4.43 0.29,-4.11 0.44,-7.2 0.44,-9.25 0,-3.23 0.06,-5.61 0.23,-7.08 0,-4.85 0.06,-8.46 0.21,-10.82 0.29,-5.58 0.45,-9.78 0.45,-12.58 0,-4.27 -0.16,-10.66 -0.45,-19.19 0,-1.47 -0.15,-4.43 -0.44,-8.83l-51.87 0c-0.6,2.18 -0.89,4.64 -0.89,7.27 0,1.93 0.08,3.54 0.23,4.87 0.14,1.32 0.31,2.49 0.44,3.52 0.58,4.11 0.83,7.21 0.66,9.26 -0.44,8.1 -0.66,16.33 -0.66,24.72l0.22 11.48c0,0.89 0.11,2.65 0.34,5.3 0.21,2.64 0.26,5.01 0.1,7.07 0,0.13 -0.13,0.52 -0.44,1.1z"/>
  <path class="fil1" d="M1494.75 2504.4c0,3.54 0.06,6.19 0.21,7.94l0 7.29c-0.44,10.74 1.32,22.74 5.3,36 3.67,11.32 8.68,20.89 15.01,28.67 1.18,1.63 3.17,3.26 5.96,4.87 3.24,1.91 6.84,2.87 10.82,2.87 5.44,0 10.74,-1.52 15.9,-4.52 5.14,-3.03 8.67,-6.73 10.59,-11.14 3.83,-8.54 6.4,-15.02 7.73,-19.43 4.13,-12.5 6.18,-27.01 6.18,-43.49 0,-4.57 -0.29,-11.56 -0.89,-20.97 -0.73,-11.34 -3.96,-21.64 -9.72,-30.9 -7.65,-12.37 -17.51,-18.55 -29.56,-18.55 -5.47,0 -9.36,0.74 -11.71,2.2 -7.36,4.87 -12.73,10.17 -16.11,15.9 -6.49,12.22 -9.72,26.64 -9.72,43.27zm109.15 9.15c-0.06,1.26 -0.1,2.1 -0.1,2.55 0.13,1.18 0.21,2.86 0.21,5.08 0,8.39 -1.62,17.29 -4.85,26.7 -1.93,6.18 -5.97,13.32 -12.15,21.42 -7.79,10.3 -16.7,17.43 -26.71,21.41 -8.97,3.82 -17.72,5.74 -26.27,5.74 -8.52,0 -17.06,-1.93 -25.6,-5.74 -7.21,-3.23 -12.95,-6.69 -17.22,-10.38 -4.41,-3.52 -9.2,-8.84 -14.34,-15.89 -8.39,-10.74 -12.95,-23.69 -13.7,-38.84 -0.15,-2.21 -0.21,-5.53 -0.21,-9.95 0,-12.64 1.76,-23.23 5.29,-31.79 5.3,-12.81 13.7,-23.48 25.18,-32 11.62,-8.83 24.27,-13.24 37.97,-13.24 10.15,0 20.89,2.42 32.23,7.27 3.67,1.49 7.43,4.06 11.25,7.73 7.79,6.92 14.05,14.13 18.76,21.64 6.05,9.72 9.43,21.28 10.17,34.67 0.13,1.16 0.18,2.38 0.1,3.63z"/>
  <path class="fil1" d="M1743.09 2440.16c1.62,0 2.88,0.15 3.75,0.44 1.04,0.31 1.55,2.44 1.55,6.42l0.21 77.7 0.23 7.94c0.14,1.93 0.21,4.64 0.21,8.17 0,4.12 -0.28,7.87 -0.88,11.25 -1.62,8.85 -5.29,16.12 -11.03,21.85 -12.37,12.68 -25.98,19.81 -40.85,21.44 -1.93,0.28 -4.85,0.44 -8.83,0.44 -16.19,0 -29.89,-5.53 -41.06,-16.56 -3.83,-3.53 -6.05,-7.67 -6.63,-12.37l-0.87 -5.95c-1.49,-9.14 -2.28,-15.98 -2.44,-20.54 -0.44,-14.86 -0.73,-27.85 -0.87,-38.97 -0.15,-11.09 -0.29,-20.34 -0.44,-27.7 0,-9.85 -0.08,-17.22 -0.22,-22.07l0 -5.95 0 -1.78c0,-1.46 0.15,-2.35 0.44,-2.65 0.15,-0.44 0.44,-0.66 0.89,-0.66l5.74 -0.21 8.39 -0.66c3.52,0 6.17,0.08 7.94,0.21 2.65,0 4.57,0.14 5.74,0.45 1.18,0.44 1.84,0.75 1.99,0.88 0.29,0.31 0.45,0.81 0.45,1.55 0,0.58 -0.21,1.32 -0.57,2.21 -0.37,0.86 -0.63,1.6 -0.76,2.2 -0.45,1.32 -0.68,2.65 -0.68,3.98 -0.14,1.76 -0.22,4.33 -0.22,7.71l-0.21 56.97 0 14.13c0,10.45 0.81,20 2.44,28.68 1.31,8.09 5.06,14.64 11.24,19.65 6.17,5 13.32,7.5 21.41,7.5 5.76,0 11.5,-0.66 17.24,-1.99 10.14,-2.92 17.78,-9.55 22.95,-19.86 3.69,-7.79 5.51,-15.6 5.51,-23.4 0,-7.07 -0.15,-17.51 -0.44,-31.36 -0.44,-10.45 -0.66,-20.82 -0.66,-31.11l0.22 -21.42c0,-3.84 -0.44,-6.92 -1.32,-9.28 -0.29,-0.58 -0.77,-1.36 -1.42,-2.3 -0.68,-0.97 -1.16,-1.83 -1.44,-2.56 -0.31,-0.72 -0.15,-1.32 0.44,-1.76l0.21 -0.23c0.45,-0.29 1.32,-0.44 2.65,-0.44z"/>
  <path class="fil1" d="M1855.56 2485.42c-1.84,-2.65 -3.43,-5.95 -4.75,-9.93 3.69,-0.58 6.44,-1.91 8.28,-3.98 1.84,-2.05 3.12,-4.85 3.86,-8.39 0.31,-2.07 0.44,-3.46 0.44,-4.2 0,-3.67 -1.04,-6.79 -3.09,-9.38 -2.05,-2.56 -4.71,-4.45 -7.94,-5.62 -4.13,-1.63 -8.1,-2.44 -11.94,-2.44 -6.9,0 -13.47,2.3 -19.63,6.85 -2.21,1.62 -3.97,3.93 -5.3,6.95 -1.32,2.99 -1.99,6.21 -1.99,9.59 0,2.65 0.37,4.93 1.12,6.84 2.92,7.81 7.92,13.63 15.01,17.45l6.84 3.52c14.71,7.81 24.64,13.26 29.8,16.33 7.8,4.72 14.14,9.65 18.99,14.8 7.94,8.69 12.29,19.15 13.03,31.34 0,1.47 -0.1,2.59 -0.22,3.33 -4.12,12.94 -11.12,22.28 -20.97,28.02 -5.16,3.09 -10.64,5.14 -16.46,6.19 -5.8,1.02 -12.39,1.52 -19.76,1.52 -16.62,0 -30.8,-2.04 -42.59,-6.16 -6.34,-2.21 -11.4,-5.97 -15.23,-11.27 -3.82,-5.3 -5.74,-11.09 -5.74,-17.43 0,-3.23 0.6,-6.63 1.78,-10.15 1.45,-3.83 3.81,-6.88 7.06,-9.15 3.24,-2.3 6.7,-3.43 10.37,-3.43 5,0 9.26,1.68 12.81,5.06 0.29,0.31 0.58,0.91 0.87,1.78 -5.16,4.72 -7.71,10.37 -7.71,17.01 0,3.07 0.57,6.53 1.76,10.36 1.6,5.45 4.19,9.83 7.73,13.13 3.52,3.32 8,5.19 13.45,5.63 5.6,0.31 9.86,0.45 12.81,0.45 4.27,0 10.82,-0.15 19.66,-0.45 2.49,0 5,-1.36 7.49,-4.07 2.51,-2.73 4.13,-5.42 4.87,-8.07 1.02,-4.13 1.54,-6.89 1.54,-8.38 0,-1.03 -0.08,-1.78 -0.22,-2.21 -1.18,-3.81 -2.34,-7.05 -3.52,-9.7 -1.16,-2.67 -2.72,-5.09 -4.64,-7.29 -7.07,-7.79 -15.74,-14.21 -26.04,-19.19 -7.5,-3.4 -13.52,-6.22 -18,-8.52 -4.49,-2.26 -8.86,-4.87 -13.15,-7.83 -6.03,-4.12 -10.62,-8.89 -13.77,-14.36 -3.17,-5.44 -4.76,-11.24 -4.76,-17.43 0,-4.4 0.96,-9.35 2.86,-14.78 5.3,-13.98 16.14,-23.11 32.45,-27.37 7.96,-2.05 14.64,-3.09 20.1,-3.09 6.03,0 11.98,1.04 17.87,3.09 15.9,5.59 24.65,15.69 26.28,30.24 0.15,0.89 0.22,2.13 0.22,3.75 0,5.76 -1.61,10.13 -4.86,13.13 -3.24,3.02 -7.36,4.53 -12.36,4.53 -2.05,0 -4.43,-0.36 -7.06,-1.1 -3.24,-1.04 -5.79,-2.86 -7.62,-5.51z"/>
  <path class="fil1" d="M2034.69 2440.38c0.31,0.44 0.45,1.49 0.45,3.09 0,1.62 -0.15,3.75 -0.45,6.4 -0.29,5.73 -0.74,10.01 -1.32,12.81 0,0.15 -0.06,0.52 -0.21,1.1 -0.16,0.58 -0.52,0.95 -1.1,1.12 -0.89,0 -1.61,-0.23 -2.21,-0.66 -1.18,-0.89 -2.14,-2.28 -2.86,-4.2 -3.98,-10.3 -12.37,-15.81 -25.18,-16.56 -4.85,-0.44 -9.64,-0.66 -14.34,-0.66l-11.69 0.22c-2.51,0.15 -6.26,0.22 -11.25,0.22 -0.91,0 -1.7,0.06 -2.44,0.21 -0.74,0.15 -1.41,0.31 -1.99,0.45l0 68.21c0.58,0.13 1.33,0.29 2.2,0.44 0.91,0.17 1.86,0.23 2.88,0.23 5.16,0 13.02,-0.15 23.62,-0.45 4.41,0 7.28,-0.66 8.6,-1.99 1.32,-1.32 2.13,-4.19 2.42,-8.6l0 -1.99c0,-1.31 0.22,-2.31 0.66,-2.97 0.45,-0.66 0.87,-0.99 1.32,-0.99 0.58,0 1.15,0.28 1.66,0.86 0.52,0.61 0.86,1.34 0.99,2.23 0.6,5.6 0.89,9.8 0.89,12.58 0,1.92 -0.16,4.64 -0.44,8.16 -0.31,3.52 -0.74,6.11 -1.32,7.73 -0.16,0.89 -0.53,1.33 -1.11,1.33 -0.44,0 -0.84,-0.41 -1.21,-1.21 -0.37,-0.81 -0.63,-1.6 -0.77,-2.33 -0.73,-3.82 -1.65,-6.29 -2.75,-7.39 -1.1,-1.1 -3.2,-1.65 -6.29,-1.65l-24.29 0.21 -7.29 0c-0.29,3.54 -0.44,6.03 -0.44,7.5 0,4.12 0.14,10.31 0.44,18.55 0.31,5.3 0.45,9.28 0.45,11.94l0.44 28.68 0.22 6.84c0.73,0.16 1.47,0.31 2.22,0.45 0.72,0.13 1.54,0.21 2.42,0.21l30.01 0 15.03 0c3.23,0 6.84,-0.74 10.82,-2.22 5.58,-2.34 8.75,-5.89 9.47,-10.59 0.6,-2.05 1.32,-3.3 2.21,-3.75 0.29,-0.13 0.66,-0.21 1.1,-0.21 1.47,0 2.49,1.16 3.09,3.53 0.31,1.03 0.44,2.57 0.44,4.62 0,2.23 -0.06,3.84 -0.21,4.87l-0.66 4.21c0,0.71 -0.08,1.24 -0.21,1.54 -0.16,0.44 -0.57,0.69 -1.23,0.77 -0.66,0.08 -1.15,0.11 -1.44,0.11l-2.86 0.21 -38.63 0c-12.79,0 -25.68,0.08 -38.63,0.22l-18.76 0c-2.21,0 -3.6,-0.55 -4.2,-1.65 -0.6,-1.11 -0.92,-2.41 -0.99,-3.88 -0.08,-1.45 -0.11,-2.57 -0.11,-3.31 -0.14,-1.16 -0.29,-2.64 -0.45,-4.4 -0.15,-1.76 -0.21,-3.75 -0.21,-5.97 -0.44,-17.51 -0.65,-34.95 -0.65,-52.33l0 -18.3 0 -37.1c0,-7.79 -0.1,-13.6 -0.24,-17.43 0,-0.89 -0.29,-2.36 -0.88,-4.41 0,-0.15 -0.16,-0.55 -0.45,-1.21 -0.29,-0.66 -0.44,-1.21 -0.44,-1.66 0,-1.6 1.39,-2.42 4.19,-2.42l5.3 -0.23c1.18,-0.13 2.8,-0.21 4.85,-0.21l88.3 0 3.54 0.21c1.02,0.31 1.68,0.58 1.97,0.89z"/>
  <path class="fil1" d="M2227.62 2493.59l5.08 -5.06c3.25,-2.96 5.74,-5.62 7.52,-7.98 2.64,-3.51 4.69,-7.55 6.18,-12.12 0.58,-1.76 0.87,-3.61 0.87,-5.51 0,-4.43 -1.82,-8.83 -5.51,-13.25 -2.05,-2.36 -4.27,-3.56 -6.61,-3.56 -2.21,0 -4.35,1.05 -6.42,3.11 -4.4,3.97 -6.61,8.99 -6.61,15.02l0 7.05c0.45,6.77 2.28,14.2 5.51,22.3zm18.55 83c-19.87,-21.49 -35.09,-44.6 -45.68,-69.31 -0.89,0.58 -2.44,1.71 -4.64,3.43 -2.21,1.68 -4.01,3.38 -5.42,5.06 -1.41,1.7 -2.39,3.49 -2.99,5.42 -2.93,9.12 -4.4,17.43 -4.4,24.94 0,3.54 0.29,6.77 0.89,9.72 2.2,13.24 9.77,21.49 22.72,24.72 5.3,1.31 10.67,1.97 16.12,1.97 2.8,0 4.93,-0.06 6.4,-0.21 6.92,-0.45 12.58,-2.34 16.99,-5.74zm88.53 -12.58c1.02,0 1.54,0.44 1.54,1.33 0,0.72 -0.29,1.61 -0.89,2.65 -0.73,1.46 -2.05,3.17 -3.96,5.08 -1.93,1.91 -3.31,3.38 -4.2,4.4 -3.4,3.83 -6.49,7.07 -9.27,9.72 -7.06,6.47 -15.38,9.72 -24.95,9.72 -5.16,0 -10.53,-0.89 -16.11,-2.65 -7.21,-2.2 -14.36,-5.82 -21.41,-10.8l-5.76 -3.54 -9.93 7.71c-11.46,8.85 -24.27,13.26 -38.42,13.26 -2.49,0 -6.1,-0.31 -10.8,-0.89 -11.18,-1.47 -20.1,-7.43 -26.71,-17.87 -5.6,-8.97 -8.39,-18.92 -8.39,-29.8 0,-3.7 0.37,-7.87 1.1,-12.58 1.34,-6.92 4.5,-13.11 9.51,-18.55 8.97,-9.86 18.76,-15.54 29.35,-17.01 0.29,0 1.49,-0.29 3.54,-0.88 -0.6,-1.62 -1.1,-3.54 -1.55,-5.74 -1.45,-5 -2.65,-8.76 -3.52,-11.27 -1.49,-4.41 -2.21,-9.12 -2.21,-14.12 0,-5.74 1.26,-11.71 3.75,-17.89 2.65,-6.32 6.63,-11.11 11.94,-14.34 5.28,-3.25 11.04,-4.85 17.2,-4.85 2.35,0 5,0.35 7.96,1.08 5.89,1.64 10.7,4.92 14.44,9.83 3.77,4.93 5.63,10.25 5.63,16.01 0,3.97 -0.79,7.58 -2.41,10.82 -1.63,3.23 -3.98,6.47 -7.06,9.7 -4.41,4.87 -9.2,9.88 -14.36,15.03 9.72,15.6 17.22,27.52 22.52,35.75l1.55 -5.73 2.42 -7.52c2.21,-7.34 4.13,-13.1 5.74,-17.22 3.24,-7.94 7.99,-13.91 14.25,-17.87 6.24,-3.98 13.71,-5.97 22.4,-5.97 5.3,0 9.83,1.5 13.59,4.53 3.74,3.01 6.13,7.02 7.16,12.03 0.58,3.81 0.89,6.77 0.89,8.83 0,7.66 -2.68,13.98 -8.05,18.99 -5.39,5 -11.74,7.52 -19.1,7.52 -2.65,0 -4.93,-0.31 -6.85,-0.89 -3.82,-1.04 -7.1,-3.28 -9.82,-6.74 -2.72,-3.45 -4.01,-7.11 -3.86,-10.93 0.44,0 1.02,0.08 1.76,0.22 0.74,0.17 1.32,0.29 1.78,0.44 1.45,0.74 3.15,1.11 5.06,1.11 2.07,0 3.91,-0.56 5.51,-1.66 1.63,-1.09 2.88,-2.69 3.77,-4.75 2.2,-4.55 3.09,-9.4 2.65,-14.55 -0.14,-2.51 -0.89,-4.46 -2.21,-5.85 -1.32,-1.41 -3.01,-2.1 -5.08,-2.1 -1.47,0 -3.09,0.44 -4.85,1.32 -6.18,3.52 -10.74,8.62 -13.7,15.23 -1.62,4.13 -3.75,10.32 -6.4,18.55 -0.88,3.09 -2.05,7.73 -3.52,13.91 -0.29,0.87 -0.44,2.07 -0.44,3.52 0,2.96 1.1,5.74 3.31,8.39 11.19,13.53 24.5,21.99 39.94,25.37 2.8,0.6 5.82,0.9 9.06,0.9 7.21,0 13.98,-1.99 20.31,-5.97 2.65,-1.61 4.72,-2.42 6.19,-2.42z"/>
  <path class="fil1" d="M2454.56 2589.83c-0.31,-0.31 -0.31,-0.66 0,-1.1l1.32 -2.64c0.44,-1.8 0.66,-3.48 0.66,-5.09 0.13,-1.33 0.13,-3.01 0,-5.08 -0.16,-2.05 -0.22,-3.77 -0.22,-5.08 0,-7.79 -0.15,-19.5 -0.44,-35.11 0,-3.23 -0.16,-8.08 -0.45,-14.55 -0.44,-6.48 -0.66,-12.88 -0.66,-19.22l0 -9.49 0.23 -37.29c0,-1.63 -0.15,-3.9 -0.44,-6.84 -0.31,-1.78 -0.44,-3.11 -0.44,-3.98 0,-0.31 -0.05,-0.74 -0.13,-1.32 -0.06,-0.58 0.05,-1.1 0.34,-1.55 0.58,-0.58 1.68,-0.89 3.3,-0.89 1.32,-0.29 2.88,-0.4 4.66,-0.33 1.76,0.08 2.94,0.11 3.52,0.11l11.93 0.21c2.05,0 3.67,0.06 4.84,0.22 2.22,0.75 3.31,1.7 3.31,2.88 0,0.44 -0.13,1.1 -0.44,1.99 -0.29,0.88 -0.52,1.68 -0.66,2.41 -0.44,1.32 -0.66,2.65 -0.66,3.98 -0.29,3.25 -0.44,5.74 -0.44,7.5 0,1.91 0.14,4.95 0.44,9.05l0.22 8.6c0,15.6 0.08,29.27 0.21,40.96 0.15,11.69 0.31,21.44 0.45,29.25l0.44 23.62 0 18.09c1.04,0.16 2.05,0.31 3.09,0.44 1.04,0.15 2.05,0.23 3.09,0.23 16.33,0 28.56,-0.15 36.64,-0.44 3.69,-0.15 8.53,-1.33 14.59,-3.54 3.52,-1.16 5.73,-3.61 6.61,-7.27 0.72,-2.8 1.82,-4.19 3.31,-4.19 1.91,0 2.86,1.16 2.86,3.52 -0.15,1.76 -0.52,4.41 -1.1,7.94 0,1.04 -0.16,2.42 -0.44,4.2 0,0.75 -0.21,1.18 -0.68,1.33 -0.15,0.13 -0.37,0.16 -0.65,0.11 -0.31,-0.08 -0.54,-0.03 -0.66,0.08 -0.89,0 -1.62,0.08 -2.21,0.24l-3.98 0.22 -67.98 0.44 -13.68 0.23c-0.44,0 -1.6,-0.08 -3.43,-0.23 -1.84,-0.16 -3.51,-0.58 -4.96,-1.32 -0.89,-0.44 -1.32,-0.89 -1.32,-1.32z"/>
  <path class="fil1" d="M2610.85 2504.4c0,3.54 0.06,6.19 0.21,7.94l0 7.29c-0.44,10.74 1.32,22.74 5.3,36 3.67,11.32 8.67,20.89 15.01,28.67 1.18,1.63 3.15,3.26 5.97,4.87 3.23,1.91 6.84,2.87 10.8,2.87 5.45,0 10.75,-1.52 15.91,-4.52 5.14,-3.03 8.67,-6.73 10.59,-11.14 3.83,-8.54 6.39,-15.02 7.71,-19.43 4.13,-12.5 6.19,-27.01 6.19,-43.49 0,-4.57 -0.31,-11.56 -0.89,-20.97 -0.74,-11.34 -3.98,-21.64 -9.72,-30.9 -7.65,-12.37 -17.51,-18.55 -29.57,-18.55 -5.45,0 -9.35,0.74 -11.71,2.2 -7.36,4.87 -12.71,10.17 -16.09,15.9 -6.5,12.22 -9.72,26.64 -9.72,43.27zm109.15 9.15c-0.06,1.26 -0.1,2.1 -0.1,2.55 0.13,1.18 0.21,2.86 0.21,5.08 0,8.39 -1.62,17.29 -4.85,26.7 -1.93,6.18 -5.97,13.32 -12.14,21.42 -7.81,10.3 -16.7,17.43 -26.71,21.41 -8.97,3.82 -17.73,5.74 -26.28,5.74 -8.53,0 -17.07,-1.93 -25.6,-5.74 -7.23,-3.23 -12.95,-6.69 -17.22,-10.38 -4.41,-3.52 -9.2,-8.84 -14.34,-15.89 -8.39,-10.74 -12.95,-23.69 -13.7,-38.84 -0.15,-2.21 -0.21,-5.53 -0.21,-9.95 0,-12.64 1.76,-23.23 5.28,-31.79 5.29,-12.81 13.7,-23.48 25.18,-32 11.63,-8.83 24.27,-13.24 37.97,-13.24 10.16,0 20.89,2.42 32.23,7.27 3.67,1.49 7.42,4.06 11.25,7.73 7.8,6.92 14.05,14.13 18.76,21.64 6.05,9.72 9.42,21.28 10.17,34.67 0.13,1.16 0.17,2.38 0.1,3.63z"/>
  <path class="fil1" d="M2859.18 2440.16c1.62,0 2.86,0.15 3.75,0.44 1.04,0.31 1.55,2.44 1.55,6.42l0.21 77.7 0.22 7.94c0.15,1.93 0.21,4.64 0.21,8.17 0,4.12 -0.29,7.87 -0.87,11.25 -1.62,8.85 -5.29,16.12 -11.05,21.85 -12.35,12.68 -25.97,19.81 -40.85,21.44 -1.91,0.28 -4.85,0.44 -8.81,0.44 -16.2,0 -29.88,-5.53 -41.06,-16.56 -3.83,-3.53 -6.05,-7.67 -6.65,-12.37l-0.87 -5.95c-1.47,-9.14 -2.28,-15.98 -2.42,-20.54 -0.44,-14.86 -0.73,-27.85 -0.89,-38.97 -0.15,-11.09 -0.29,-20.34 -0.44,-27.7 0,-9.85 -0.06,-17.22 -0.21,-22.07l0 -5.95 0 -1.78c0,-1.46 0.15,-2.35 0.44,-2.65 0.14,-0.44 0.44,-0.66 0.89,-0.66l5.74 -0.21 8.38 -0.66c3.54,0 6.17,0.08 7.94,0.21 2.65,0 4.57,0.14 5.76,0.45 1.18,0.44 1.82,0.75 1.97,0.88 0.31,0.31 0.45,0.81 0.45,1.55 0,0.58 -0.2,1.32 -0.55,2.21 -0.37,0.86 -0.65,1.6 -0.78,2.2 -0.45,1.32 -0.66,2.65 -0.66,3.98 -0.16,1.76 -0.23,4.33 -0.23,7.71l-0.21 56.97 0 14.13c0,10.45 0.81,20 2.42,28.68 1.32,8.09 5.07,14.64 11.25,19.65 6.18,5 13.32,7.5 21.41,7.5 5.74,0 11.48,-0.66 17.22,-1.99 10.15,-2.92 17.8,-9.55 22.96,-19.86 3.67,-7.79 5.51,-15.6 5.51,-23.4 0,-7.07 -0.14,-17.51 -0.44,-31.36 -0.44,-10.45 -0.66,-20.82 -0.66,-31.11l0.23 -21.42c0,-3.84 -0.45,-6.92 -1.32,-9.28 -0.29,-0.58 -0.78,-1.36 -1.44,-2.3 -0.66,-0.97 -1.15,-1.83 -1.44,-2.56 -0.29,-0.72 -0.15,-1.32 0.45,-1.76l0.21 -0.23c0.44,-0.29 1.33,-0.44 2.65,-0.44z"/>
  <path class="fil1" d="M3010.07 2442.04c-0.23,-0.66 -0.26,-1.21 -0.11,-1.66 0,-0.44 0.29,-0.72 0.88,-0.88 0.89,-0.29 1.7,-0.45 2.42,-0.45 1.93,0 3.4,0.38 4.41,1.12 0.58,0.44 0.89,0.95 0.89,1.54 0,0.74 -0.21,1.62 -0.66,2.67 -0.44,1.02 -0.74,1.91 -0.87,2.65 -0.16,1.44 -0.23,3.19 -0.23,5.17l0 4.07 0.66 55.42 0.66 73.74 0.22 4.19c0,1.18 -0.16,1.97 -0.45,2.42 -0.6,0.87 -1.55,1.32 -2.88,1.32 -0.87,0 -1.6,-0.29 -2.2,-0.88 -1.91,-1.91 -3.46,-3.77 -4.64,-5.53l-64.89 -85.88 -15.69 -21.41c-0.73,-1.02 -4.84,-6.68 -12.35,-17 -0.74,-1.02 -2.93,-3.9 -6.61,-8.6l-3.31 -4.21c0,1.33 -0.05,2.33 -0.11,2.99 -0.08,0.66 -0.11,1.13 -0.11,1.44l0.22 79.02 -0.22 39.51 0 9.94c0,1.47 0.22,2.86 0.66,4.19 0.15,0.44 0.4,0.95 0.77,1.55 0.38,0.58 0.63,1.32 0.78,2.2 0,1.04 -0.4,1.86 -1.21,2.44 -0.83,0.58 -1.75,0.94 -2.76,1.08 -0.89,0 -1.91,-0.14 -3.09,-0.42 -0.87,-0.31 -1.44,-0.55 -1.66,-0.78 -0.21,-0.22 -0.33,-0.94 -0.33,-2.1 0,-1.02 0.15,-2.88 0.44,-5.51 0.31,-2.36 0.45,-4.14 0.45,-5.3l-0.22 -109.06c0,-2.64 0.08,-5.77 0.22,-9.38 0.13,-3.6 0.29,-6.37 0.44,-8.28 0.29,-2.65 0.44,-4.56 0.44,-5.73 0.15,-2.65 0.74,-4.36 1.76,-5.09 1.04,-0.73 2.94,-1.18 5.76,-1.32l17.64 -0.44 0.45 0c1.02,0 1.87,0.21 2.54,0.66 0.66,0.44 1.42,1.25 2.31,2.42l27.59 35.75 50.79 66.23 3.52 3.98 0 -20.54c-0.29,-35.31 -0.6,-61.82 -0.89,-79.48 0,-1.02 -0.35,-3.15 -1.1,-6.39 0,-0.31 -0.11,-0.77 -0.32,-1.44z"/>
  <path class="fil1" d="M3138.63 2527.14c0.6,-0.15 1.32,-0.18 2.21,-0.11 0.89,0.08 1.47,0.11 1.76,0.11l6.63 -0.23c5.58,0 9.85,0.08 12.79,0.23l2.65 0c1.18,0 1.99,0.52 2.44,1.55 0.28,0.29 0.44,0.81 0.44,1.54 0,0.6 -0.16,1.47 -0.44,2.65 -0.31,2.36 -0.58,5.89 -0.89,10.59 0,3.54 0.06,6.19 0.21,7.94 0.31,4.41 0.31,8.76 0,13.03 -0.15,1.47 -0.21,3.61 -0.21,6.4l0.21 12.58 0 2.42c0,2.21 -0.37,3.67 -1.1,4.41 -0.58,0.45 -1.18,0.66 -1.76,0.66 -0.75,0 -1.55,-0.18 -2.43,-0.55 -0.89,-0.36 -1.47,-0.63 -1.78,-0.78 -2.34,-0.87 -4.62,-1.32 -6.84,-1.32 -2.92,0 -5.66,0.74 -8.16,2.21 -7.65,4.13 -15.67,6.18 -24.06,6.18 -3.81,0 -7.21,-0.29 -10.14,-0.87 -3.98,-0.91 -9.22,-2.3 -15.67,-4.22 -10.9,-3.22 -19.66,-9.77 -26.28,-19.63 -11.04,-16.91 -16.56,-34.8 -16.56,-53.64 0,-1.91 0.13,-5.07 0.44,-9.49 0.44,-4.13 1.32,-7.87 2.65,-11.26 5.59,-16.19 12.87,-28.63 21.86,-37.32 6.18,-6.17 12.94,-10.95 20.29,-14.34 9.86,-4.41 19.73,-6.63 29.59,-6.63 10.01,0 19.65,2.3 28.91,6.84 7.65,3.69 13.18,9.07 16.56,16.12 1.76,3.96 2.65,7.81 2.65,11.48 0,5.76 -1.84,10.98 -5.53,15.69 -3.67,4.7 -8.02,7.78 -13.01,9.25 -1.33,0.47 -2.72,0.66 -4.19,0.66 -4.41,0 -8.33,-1.63 -11.71,-4.95 -3.38,-3.31 -5.16,-7.41 -5.29,-12.26 2.05,-1.04 3.67,-1.78 4.85,-2.22 3.67,-1.6 6.51,-3.9 8.49,-6.84 2,-2.92 2.97,-6.32 2.97,-10.15 0,-5.14 -2.64,-9.7 -7.94,-13.68 -5.14,-3.98 -10.45,-5.95 -15.9,-5.95 -3.67,0 -7.5,1.1 -11.46,3.3 -7.96,4.41 -13.32,10.17 -16.13,17.22 -1.76,4.4 -3.17,7.65 -4.2,9.72 -2.65,5.14 -4.35,10.56 -5.08,16.22 -0.72,5.66 -1.08,12.33 -1.08,19.97l-0.24 9.04c0,6.5 0.08,12.16 0.24,17.01 0.13,4.87 0.28,8.91 0.42,12.15 0.29,4.12 0.44,7.27 0.44,9.49 0.31,7.5 3.54,15.69 9.72,24.5 1.18,1.63 3.4,3.31 6.63,5.08 7.21,4.29 14.49,5.95 21.86,5.09 2.2,-0.31 4.85,-1.2 7.94,-2.65 3.83,-1.64 5.74,-4.56 5.74,-8.83l0 -6.42 0 -26.04 0 -13.03c0,-1.6 -0.44,-3.09 -1.33,-4.4 -0.29,-0.31 -0.89,-0.71 -1.76,-1.21 -0.89,-0.54 -1.25,-1 -1.1,-1.44 0,-0.17 0.21,-0.45 0.65,-0.89z"/>
  <path class="fil1" d="M3315.9 2440.38c0.31,0.44 0.45,1.49 0.45,3.09 0,1.62 -0.15,3.75 -0.45,6.4 -0.29,5.73 -0.73,10.01 -1.32,12.81 0,0.15 -0.06,0.52 -0.21,1.1 -0.16,0.58 -0.52,0.95 -1.1,1.12 -0.89,0 -1.62,-0.23 -2.21,-0.66 -1.18,-0.89 -2.14,-2.28 -2.86,-4.2 -3.98,-10.3 -12.37,-15.81 -25.17,-16.56 -4.85,-0.44 -9.64,-0.66 -14.35,-0.66l-11.69 0.22c-2.51,0.15 -6.26,0.22 -11.25,0.22 -0.91,0 -1.7,0.06 -2.44,0.21 -0.74,0.15 -1.41,0.31 -1.99,0.45l0 68.21c0.58,0.13 1.32,0.29 2.2,0.44 0.9,0.17 1.86,0.23 2.88,0.23 5.16,0 13.03,-0.15 23.62,-0.45 4.41,0 7.27,-0.66 8.6,-1.99 1.33,-1.32 2.14,-4.19 2.43,-8.6l0 -1.99c0,-1.31 0.22,-2.31 0.66,-2.97 0.45,-0.66 0.89,-0.99 1.33,-0.99 0.58,0 1.15,0.28 1.66,0.86 0.52,0.61 0.86,1.34 0.99,2.23 0.6,5.6 0.89,9.8 0.89,12.58 0,1.92 -0.16,4.64 -0.44,8.16 -0.31,3.52 -0.74,6.11 -1.32,7.73 -0.17,0.89 -0.54,1.33 -1.12,1.33 -0.44,0 -0.84,-0.41 -1.21,-1.21 -0.38,-0.81 -0.63,-1.6 -0.78,-2.33 -0.72,-3.82 -1.65,-6.29 -2.75,-7.39 -1.1,-1.1 -3.2,-1.65 -6.29,-1.65l-24.28 0.21 -7.29 0c-0.29,3.54 -0.44,6.03 -0.44,7.5 0,4.12 0.15,10.31 0.44,18.55 0.31,5.3 0.45,9.28 0.45,11.94l0.44 28.68 0.22 6.84c0.73,0.16 1.47,0.31 2.21,0.45 0.73,0.13 1.54,0.21 2.42,0.21l30.01 0 15.02 0c3.24,0 6.84,-0.74 10.82,-2.22 5.58,-2.34 8.75,-5.89 9.48,-10.59 0.6,-2.05 1.32,-3.3 2.21,-3.75 0.29,-0.13 0.66,-0.21 1.1,-0.21 1.47,0 2.49,1.16 3.09,3.53 0.31,1.03 0.44,2.57 0.44,4.62 0,2.23 -0.06,3.84 -0.21,4.87l-0.66 4.21c0,0.71 -0.08,1.24 -0.21,1.54 -0.17,0.44 -0.57,0.69 -1.23,0.77 -0.66,0.08 -1.15,0.11 -1.44,0.11l-2.86 0.21 -38.63 0c-12.79,0 -25.68,0.08 -38.63,0.22l-18.76 0c-2.2,0 -3.61,-0.55 -4.2,-1.65 -0.6,-1.11 -0.92,-2.41 -0.99,-3.88 -0.08,-1.45 -0.11,-2.57 -0.11,-3.31 -0.15,-1.16 -0.29,-2.64 -0.45,-4.4 -0.15,-1.76 -0.21,-3.75 -0.21,-5.97 -0.44,-17.51 -0.65,-34.95 -0.65,-52.33l0 -18.3 0 -37.1c0,-7.79 -0.1,-13.6 -0.24,-17.43 0,-0.89 -0.29,-2.36 -0.87,-4.41 0,-0.15 -0.16,-0.55 -0.45,-1.21 -0.29,-0.66 -0.44,-1.21 -0.44,-1.66 0,-1.6 1.39,-2.42 4.18,-2.42l5.31 -0.23c1.18,-0.13 2.8,-0.21 4.85,-0.21l88.3 0 3.54 0.21c1.02,0.31 1.68,0.58 1.97,0.89z"/>
  <path class="fil0" d="M2612.03 825.73c-4.85,-120.42 -43.81,-235.07 -76.25,-349.08 -33.47,-117.65 -75.4,-254.88 -30.53,-376.64 14,-37.97 36.41,-71.47 63.98,-100 -6.81,3.7 -13.61,7.39 -20.36,11.25 -102.86,58.99 -189.81,137.43 -254.89,239.66 -78.62,123.49 -85.04,265.48 -37.17,399.81 41.14,115.44 97.54,223.49 126.34,343.86 20.7,86.49 27.25,178.44 14.62,266.91 42.63,-32.6 80.3,-73.14 110.38,-112.5 71.52,-93.63 108.62,-205.3 103.88,-323.28z"/>
  <path class="fil0" d="M2029.63 371.38c10.8,-29.32 28.12,-55.21 49.4,-77.24 -5.26,2.85 -10.5,5.73 -15.72,8.7 -79.43,45.57 -146.6,106.16 -196.87,185.1 -60.72,95.39 -65.68,205.06 -28.72,308.82 31.77,89.16 75.35,172.62 97.59,265.59 15.99,66.8 21.05,137.8 11.29,206.16 32.92,-25.18 62.03,-56.48 85.27,-86.88 55.22,-72.33 83.91,-158.58 80.24,-249.7 -3.75,-93.01 -33.85,-181.56 -58.89,-269.62 -25.86,-90.89 -58.24,-196.87 -23.58,-290.92z"/>
  <path class="fil0" d="M1583.4 476.65c-33.46,-117.65 -75.4,-254.88 -30.53,-376.64 14,-37.97 36.43,-71.47 63.97,-100.01 -6.79,3.7 -13.58,7.41 -20.34,11.27 -102.84,58.99 -189.81,137.43 -254.89,239.66 -78.62,123.49 -85.04,265.46 -37.18,399.81 41.14,115.44 97.54,223.49 126.36,343.86 20.68,86.49 27.25,178.42 14.6,266.91 42.62,-32.6 80.32,-73.14 110.38,-112.5 71.51,-93.63 108.63,-205.3 103.88,-323.27 -4.84,-120.42 -43.81,-235.07 -76.24,-349.08z"/>
 </g>
</svg>
